<?xml version="1.0" standalone="no"?>
<!DOCTYPE svg PUBLIC "-//W3C//DTD SVG 1.1//EN" "http://www.w3.org/Graphics/SVG/1.1/DTD/svg11.dtd" >
<svg xmlns="http://www.w3.org/2000/svg" xmlns:xlink="http://www.w3.org/1999/xlink" version="1.1">
<metadata>
Created by FontForge 20170731 at Fri Mar 13 17:25:06 2020
 By Aleksey,,,
Service d'Information du Gouvernement
</metadata>
<defs>
<font id="Marianne-Regular" horiz-adv-x="600" >
  <font-face 
    font-family="Marianne"
    font-weight="400"
    font-stretch="normal"
    units-per-em="1000"
    panose-1="2 0 0 0 0 0 0 0 0 0"
    ascent="750"
    descent="-250"
    x-height="504"
    cap-height="700"
    bbox="-201 -250 1222 966"
    underline-thickness="0"
    underline-position="0"
    unicode-range="U+0020-25CC"
  />
<missing-glyph 
d="M1 -246v996h599v-996h-599zM222 130h90l7 70q89 16 146 68.5t57 137.5q0 45 -17.5 81.5t-47 62.5t-68 40t-81.5 14q-75 0 -131 -33.5t-96 -96.5l105 -64q26 40 53 60t64 20t62.5 -24t25.5 -61q0 -60 -49.5 -84.5t-133.5 -32.5zM268 -96q34 0 58.5 24.5t24.5 58.5
q0 33 -24.5 57.5t-58.5 24.5t-59 -24.5t-25 -57.5q0 -34 25 -58.5t59 -24.5z" />
    <glyph glyph-name=".notdef" 
d="M1 -246v996h599v-996h-599zM222 130h90l7 70q89 16 146 68.5t57 137.5q0 45 -17.5 81.5t-47 62.5t-68 40t-81.5 14q-75 0 -131 -33.5t-96 -96.5l105 -64q26 40 53 60t64 20t62.5 -24t25.5 -61q0 -60 -49.5 -84.5t-133.5 -32.5zM268 -96q34 0 58.5 24.5t24.5 58.5
q0 33 -24.5 57.5t-58.5 24.5t-59 -24.5t-25 -57.5q0 -34 25 -58.5t59 -24.5z" />
    <glyph glyph-name=".null" horiz-adv-x="0" 
 />
    <glyph glyph-name="nonmarkingreturn" horiz-adv-x="333" 
 />
    <glyph glyph-name="space" unicode=" " horiz-adv-x="270" 
 />
    <glyph glyph-name="exclam" unicode="!" horiz-adv-x="304" 
d="M119 204l-16 496h97l-16 -496h-65zM153 -11q-27 0 -46 19t-19 45q0 25 19 44t46 19q26 0 44.5 -19t18.5 -44q0 -26 -18.5 -45t-44.5 -19z" />
    <glyph glyph-name="quotedbl" unicode="&#x22;" horiz-adv-x="463" 
d="M173 432h-74l-12 268h97zM364 432h-74l-12 268h97z" />
    <glyph glyph-name="numbersign" unicode="#" horiz-adv-x="662" 
d="M32 258h105l50 184h-155v71h175l51 187h78l-51 -187h182l51 187h78l-51 -187h84v-71h-104l-50 -184h154v-71h-174l-51 -187h-78l51 187h-182l-51 -187h-78l51 187h-85v71zM215 258h182l50 184h-182z" />
    <glyph glyph-name="dollar" unicode="$" 
d="M51 110l62 58q33 -39 71 -61t80 -28v248q-33 12 -65 27.5t-56.5 37.5t-40 53t-15.5 75q0 68 49 118t128 60v72h74v-72q60 -7 108 -34t82 -70l-62 -56q-25 35 -58 56t-70 28v-233q34 -13 67.5 -28t59.5 -37.5t42 -54t16 -77.5q-1 -78 -52.5 -129t-132.5 -61v-72h-74v72
q-66 5 -119.5 32.5t-93.5 75.5zM172 521q0 -40 26.5 -63.5t65.5 -40.5v205q-46 -8 -69 -35t-23 -66zM439 191q0 43 -29 67t-72 42v-221q50 9 75.5 40t25.5 72z" />
    <glyph glyph-name="percent" unicode="%" horiz-adv-x="824" 
d="M206 722q37 0 68 -13.5t53.5 -36t34.5 -53t12 -64.5t-12 -64.5t-34.5 -53t-53.5 -36t-68 -13.5q-38 0 -69 13.5t-53 36t-34.5 53t-12.5 64.5t12.5 64.5t34.5 53t53 36t69 13.5zM109 1l513 700h90l-513 -700h-90zM206 448q43 0 72 31.5t29 75.5q0 45 -29 76t-72 31
q-45 0 -73.5 -31t-28.5 -76t28.5 -76t73.5 -31zM618 315q37 0 68 -13.5t53.5 -36t34.5 -53t12 -64.5t-12 -64.5t-34.5 -53t-53.5 -36t-68 -13.5q-38 0 -69 13.5t-53 36t-34.5 53t-12.5 64.5t12.5 64.5t34.5 53t53 36t69 13.5zM618 41q43 0 72 31.5t29 75.5q0 45 -29 76
t-72 31q-45 0 -73.5 -31t-28.5 -76t28.5 -76t73.5 -31z" />
    <glyph glyph-name="ampersand" unicode="&#x26;" horiz-adv-x="745" 
d="M716 0h-110l-76 73q-43 -43 -98.5 -67.5t-125.5 -24.5q-53 0 -97.5 15.5t-77 43.5t-50.5 68t-18 90q0 71 40 120.5t97 72.5q-33 37 -51 73.5t-18 84.5q0 73 51.5 122t135.5 49q79 0 131 -47t52 -122q0 -72 -45 -116.5t-113 -66.5l175 -173q22 37 39.5 83t30.5 97h89
q-18 -69 -42 -130t-56 -110zM219 544q0 -44 20.5 -70.5t50.5 -54.5q66 18 97.5 49t31.5 80q0 38 -26.5 66t-71.5 28q-49 0 -75.5 -28t-26.5 -70zM153 198q0 -64 46.5 -101.5t111.5 -37.5q46 0 86 18.5t73 52.5l-212 202l-2.5 2.5l-2.5 2.5q-43 -17 -71.5 -52.5t-28.5 -86.5z
" />
    <glyph glyph-name="quotesingle" unicode="'" horiz-adv-x="270" 
d="M173 432h-74l-12 268h97z" />
    <glyph glyph-name="parenleft" unicode="(" horiz-adv-x="322" 
d="M128 275q0 -132 43.5 -237.5t124.5 -186.5l-62 -51q-89 83 -140.5 204.5t-51.5 270.5q0 151 54 273t138 202l62 -51q-78 -78 -123 -185t-45 -239z" />
    <glyph glyph-name="parenright" unicode=")" horiz-adv-x="322" 
d="M194 275q0 132 -44.5 238.5t-124.5 185.5l62 51q86 -81 139 -202.5t53 -272.5t-52.5 -272.5t-139.5 -202.5l-62 51q80 79 124.5 185t44.5 239z" />
    <glyph glyph-name="asterisk" unicode="*" horiz-adv-x="431" 
d="M360 371l-60 -43l-85 130l-83 -130l-60 43l97 120l-149 40l23 71l145 -57l-9 155h74l-9 -154l144 56l23 -71l-150 -40z" />
    <glyph glyph-name="plus" unicode="+" 
d="M552 215h-215v-215h-74v215h-215v74h215v215h74v-215h215v-74z" />
    <glyph glyph-name="comma" unicode="," horiz-adv-x="270" 
d="M123 -160h-79l85 265h97z" />
    <glyph glyph-name="hyphen" unicode="-" horiz-adv-x="310" 
d="M20 297h270v-82h-270v82z" />
    <glyph glyph-name="period" unicode="." horiz-adv-x="270" 
d="M136 -11q-27 0 -46 18.5t-19 44.5t19 45t46 19t45.5 -19t18.5 -45t-18.5 -44.5t-45.5 -18.5z" />
    <glyph glyph-name="slash" unicode="/" horiz-adv-x="357" 
d="M14 -197l242 947h86l-242 -947h-86z" />
    <glyph glyph-name="zero" unicode="0" 
d="M299 720q66 0 115.5 -28.5t81.5 -78.5t48.5 -117.5t16.5 -145.5t-16.5 -145.5t-48.5 -117.5t-81.5 -78.5t-115.5 -28.5q-65 0 -114 28.5t-81.5 78.5t-49 117.5t-16.5 145.5t16.5 145.5t49 117.5t81.5 78.5t114 28.5zM300 636q-42 0 -74 -21.5t-53 -60t-32 -91t-11 -113.5
t11 -113.5t32 -91t53 -60t74 -21.5q41 0 73 21.5t53 60t31.5 91t10.5 113.5t-10.5 113.5t-31.5 91t-53 60t-73 21.5z" />
    <glyph glyph-name="one" unicode="1" horiz-adv-x="462" 
d="M237 0v609l-185 -100l-46 64l230 127h90v-700h-89z" />
    <glyph glyph-name="two" unicode="2" 
d="M68 0v81l237 244q31 32 53.5 57t37 47t21.5 44.5t7 50.5q0 54 -35.5 84.5t-88.5 30.5q-55 0 -93.5 -27t-69.5 -78l-74 45q43 66 103 103.5t141 37.5q44 0 82.5 -13.5t66.5 -38.5t44.5 -60t16.5 -78q0 -71 -41.5 -129.5t-104.5 -124.5l-192 -195h357v-81h-468z" />
    <glyph glyph-name="three" unicode="3" 
d="M542 193q0 -47 -18.5 -86.5t-50.5 -67.5t-77 -43.5t-98 -15.5q-90 0 -152.5 36.5t-104.5 105.5l79 49q32 -57 75.5 -83.5t101.5 -26.5q65 0 108.5 36.5t43.5 99.5q0 59 -39.5 96.5t-108.5 37.5h-119v81h105q60 0 95.5 32.5t35.5 83.5q0 53 -35.5 82t-89.5 29
q-47 0 -83.5 -23.5t-61.5 -69.5l-75 46q37 61 93.5 94.5t132.5 33.5q45 0 84 -13t67 -37t44 -58.5t16 -75.5q0 -51 -23.5 -92.5t-68.5 -66.5q60 -25 92 -74.5t32 -109.5z" />
    <glyph glyph-name="four" unicode="4" 
d="M40 202v81l329 417h109v-417h81v-81h-81v-202h-90v202h-348zM136 283h252v319z" />
    <glyph glyph-name="five" unicode="5" 
d="M103 332l21 368h385v-81h-299l-12 -205h101q123 0 183 -60.5t60 -153.5q0 -50 -18.5 -91t-51 -69.5t-77.5 -44t-97 -15.5q-90 0 -152.5 36.5t-104.5 105.5l79 49q32 -58 76 -84t101 -26q66 0 109.5 36.5t43.5 99.5q0 60 -41 97.5t-114 37.5h-192z" />
    <glyph glyph-name="six" unicode="6" 
d="M333 720q81 0 134.5 -33t90.5 -86l-71 -55q-31 46 -68 69t-85 23q-96 0 -144 -75t-52 -204q37 37 86.5 57.5t106.5 20.5q49 0 90 -17.5t70.5 -47.5t45.5 -70.5t16 -86.5q0 -47 -16.5 -90t-47.5 -75t-76 -51t-101 -19q-122 0 -194.5 89t-72.5 270q0 85 17 155.5
t52.5 120.5t90 77.5t128.5 27.5zM317 356q-52 0 -98 -22.5t-77 -67.5q11 -110 56.5 -157t111.5 -47q70 0 109.5 43.5t39.5 106.5q0 60 -40.5 102t-101.5 42z" />
    <glyph glyph-name="seven" unicode="7" 
d="M192 0h-104l370 619h-390v81h486v-81z" />
    <glyph glyph-name="eight" unicode="8" 
d="M300 720q52 0 93.5 -14.5t69.5 -39.5t43 -58.5t15 -70.5q0 -52 -26.5 -92t-75.5 -62q65 -23 100.5 -72.5t35.5 -116.5q0 -45 -17.5 -84.5t-50 -68t-80 -45t-107.5 -16.5q-59 0 -106.5 16.5t-80.5 45t-50.5 68t-17.5 84.5q0 67 35.5 116.5t100.5 72.5q-50 22 -76.5 62
t-26.5 92q0 37 15 70.5t43 58.5t69.5 39.5t94.5 14.5zM301 417q56 0 91.5 31.5t35.5 80.5q0 50 -35.5 81.5t-91.5 31.5q-58 0 -93.5 -31.5t-35.5 -81.5t35.5 -81t93.5 -31zM301 59q72 0 116.5 39t44.5 100q0 62 -44.5 102t-116.5 40q-73 0 -118 -40t-45 -102t45 -100.5
t118 -38.5z" />
    <glyph glyph-name="nine" unicode="9" 
d="M265 -20q-81 0 -135 33t-90 86l72 55q30 -46 67 -69t86 -23q96 0 144.5 75t51.5 205q-37 -38 -86.5 -58.5t-107.5 -20.5q-49 0 -90 17.5t-70 47.5t-45 70.5t-16 86.5q0 47 16.5 90t47 75t75.5 51t102 19q122 0 194.5 -89t72.5 -270q0 -85 -17.5 -155.5t-52.5 -120.5
t-90 -77.5t-129 -27.5zM139 488q0 -60 40.5 -102t101.5 -42q53 0 99 22.5t77 68.5q-11 110 -57 156.5t-112 46.5q-69 0 -109 -43.5t-40 -106.5z" />
    <glyph glyph-name="colon" unicode=":" horiz-adv-x="270" 
d="M136 388q-27 0 -46 19t-19 45t19 44.5t46 18.5t45.5 -18.5t18.5 -44.5t-18.5 -45t-45.5 -19zM136 -11q-27 0 -46 18.5t-19 44.5t19 45t46 19t45.5 -19t18.5 -45t-18.5 -44.5t-45.5 -18.5z" />
    <glyph glyph-name="semicolon" unicode=";" horiz-adv-x="270" 
d="M136 388q-27 0 -46 19t-19 45t19 44.5t46 18.5t45.5 -18.5t18.5 -44.5t-18.5 -45t-45.5 -19zM105 -160h-79l85 265h97z" />
    <glyph glyph-name="less" unicode="&#x3c;" 
d="M552 80v-80l-504 209v86l504 209v-80l-423 -172z" />
    <glyph glyph-name="equal" unicode="=" 
d="M552 323h-504v74h504v-74zM552 107h-504v74h504v-74z" />
    <glyph glyph-name="greater" unicode="&#x3e;" 
d="M48 80l423 172l-423 172v80l504 -209v-86l-504 -209v80z" />
    <glyph glyph-name="question" unicode="?" horiz-adv-x="509" 
d="M179 204l-10 152q105 12 161.5 50t56.5 109q0 54 -36.5 90t-90.5 36q-46 0 -80.5 -22t-65.5 -65l-74 46q39 55 92.5 87.5t130.5 32.5q45 0 84.5 -15.5t68.5 -42.5t46 -64.5t17 -81.5q0 -46 -17 -83.5t-47 -65t-72.5 -46t-92.5 -27.5l-5 -90h-66zM213 -11q-26 0 -45 19
t-19 45q0 25 19 44t45 19t45 -19t19 -44q0 -26 -19 -45t-45 -19z" />
    <glyph glyph-name="at" unicode="@" horiz-adv-x="839" 
d="M234 250q0 36 12 69t34 57t54 38.5t70 14.5q34 0 63.5 -13.5t52.5 -37.5v38h69v-235q0 -23 13.5 -37.5t34.5 -14.5q39 0 64 44t25 117q0 57 -22.5 108t-62 88t-95 58.5t-120.5 21.5q-68 0 -126 -25.5t-99 -68t-64.5 -100t-23.5 -121.5t23 -122t64 -100.5t98 -68
t125 -25.5q72 0 128.5 21t113.5 72l35 -49q-62 -51 -128 -74.5t-150 -23.5q-82 0 -151 30t-118 80t-76 117.5t-27 142.5t27.5 142.5t76.5 117.5t118.5 80t153.5 30q80 0 147 -26t114.5 -71t74 -105.5t26.5 -128.5q0 -47 -11 -87t-31.5 -69t-49 -45.5t-62.5 -16.5
q-38 0 -64.5 17.5t-37.5 45.5q-24 -30 -55.5 -46.5t-72.5 -16.5q-38 0 -70 14t-54 38.5t-34 57t-12 68.5zM308 250q0 -48 29.5 -81t77.5 -33q33 0 59.5 17.5t45.5 46.5v99q-19 31 -45.5 48t-59.5 17q-48 0 -77.5 -33t-29.5 -81z" />
    <glyph glyph-name="A" unicode="A" horiz-adv-x="738" 
d="M27 0l279 700h126l279 -700h-100l-81 206h-322l-81 -206h-100zM239 287h260l-130 331z" />
    <glyph glyph-name="B" unicode="B" 
d="M111 0v700h173q100 0 157.5 -49.5t57.5 -132.5q0 -47 -21.5 -84.5t-62.5 -59.5q61 -22 93.5 -67.5t32.5 -105.5q0 -92 -64.5 -146.5t-175.5 -54.5h-190zM285 620h-80v-211h80q55 0 86 28t31 79q0 49 -31 76.5t-86 27.5zM305 329h-100v-249h100q65 0 102 33t37 92
t-37 91.5t-102 32.5z" />
    <glyph glyph-name="C" unicode="C" horiz-adv-x="757" 
d="M419 68q70 0 126.5 31.5t91.5 82.5l75 -58q-48 -65 -123.5 -104.5t-169.5 -39.5q-82 0 -150 30t-116 80t-75 117.5t-27 142.5t27 142.5t75 117.5t116 80t150 30q94 0 169.5 -40t123.5 -104l-75 -58q-35 51 -91.5 82.5t-126.5 31.5q-59 0 -109 -22t-86 -60.5t-56 -90
t-20 -109.5t20 -109.5t56 -90t86 -60.5t109 -22z" />
    <glyph glyph-name="D" unicode="D" horiz-adv-x="800" 
d="M111 0v700h269q82 0 150 -28t116 -76t75 -111.5t27 -134.5t-27 -134.5t-75 -111.5t-116 -76t-150 -28h-269zM382 614h-177v-528h177q58 0 107.5 21t85.5 56.5t56 84t20 102.5q0 55 -20 103.5t-56 84t-85.5 56t-107.5 20.5z" />
    <glyph glyph-name="E" unicode="E" horiz-adv-x="563" 
d="M111 0v700h376v-80h-282v-224h242v-79h-242v-237h282v-80h-376z" />
    <glyph glyph-name="F" unicode="F" horiz-adv-x="523" 
d="M111 0v700h376v-80h-282v-224h242v-79h-242v-317h-94z" />
    <glyph glyph-name="G" unicode="G" horiz-adv-x="809" 
d="M429 68q65 0 118.5 24.5t90.5 65.5v158h-202v81h296v-273q-49 -66 -127 -105t-176 -39q-84 0 -154 30t-119.5 80t-77 117.5t-27.5 142.5t27 142.5t75 117.5t116 80t150 30q94 0 169.5 -40t123.5 -104l-75 -58q-35 51 -91.5 82.5t-126.5 31.5q-59 0 -109 -22t-86 -60.5
t-56 -90t-20 -109.5t21 -109.5t58 -90t89 -60.5t113 -22z" />
    <glyph glyph-name="H" unicode="H" horiz-adv-x="835" 
d="M111 0v700h94v-301h425v301h94v-700h-94v314h-425v-314h-94z" />
    <glyph glyph-name="I" unicode="I" horiz-adv-x="316" 
d="M111 0v700h94v-700h-94z" />
    <glyph glyph-name="J" unicode="J" horiz-adv-x="328" 
d="M218 50q0 -113 -53 -163t-145 -50q-14 0 -26.5 1t-22.5 3v84q9 -2 18.5 -3.5t19.5 -1.5q50 0 82.5 26.5t32.5 99.5v654h94v-650z" />
    <glyph glyph-name="K" unicode="K" horiz-adv-x="721" 
d="M111 0v700h94v-353l363 353h118l-297 -290l305 -410h-116l-254 346l-119 -116v-230h-94z" />
    <glyph glyph-name="L" unicode="L" horiz-adv-x="523" 
d="M111 0v700h94v-614h282v-86h-376z" />
    <glyph glyph-name="M" unicode="M" horiz-adv-x="889" 
d="M111 0v700h120l214 -353l214 353h120v-700h-94v574l-204 -334h-72l-204 334v-574h-94z" />
    <glyph glyph-name="N" unicode="N" horiz-adv-x="835" 
d="M111 0v700h123l396 -585v585h94v-700h-123l-396 585v-585h-94z" />
    <glyph glyph-name="O" unicode="O" horiz-adv-x="837" 
d="M419 720q81 0 149 -30t116 -80t75 -117.5t27 -142.5t-27 -142.5t-75 -117.5t-116 -80t-149 -30q-82 0 -150 30t-116 80t-75 117.5t-27 142.5t27 142.5t75 117.5t116 80t150 30zM419 68q59 0 108.5 22t85.5 60.5t56 90t20 109.5t-20 109.5t-56 90t-85.5 60.5t-108.5 22
t-109 -22t-86 -60.5t-56 -90t-20 -109.5t20 -109.5t56 -90t86 -60.5t109 -22z" />
    <glyph glyph-name="P" unicode="P" horiz-adv-x="574" 
d="M111 0v700h205q104 0 165.5 -53.5t61.5 -143.5t-61.5 -143t-165.5 -53h-111v-307h-94zM318 620h-113v-233h113q60 0 94 31t34 87q0 53 -34 84t-94 31z" />
    <glyph glyph-name="Q" unicode="Q" horiz-adv-x="837" 
d="M690 -9q43 -38 83 -54t73 -16q12 0 25.5 1.5t23.5 5.5v-82q-13 -4 -28 -6.5t-34 -2.5q-49 0 -100.5 20.5t-103.5 64.5l-91 76q-28 -9 -57.5 -13.5t-61.5 -4.5q-82 0 -150 30t-116 80t-75 117.5t-27 142.5t27 142.5t75 117.5t116 80t150 30q81 0 149 -30t116 -80
t75 -117.5t27 -142.5q0 -94 -42 -175t-114 -131zM419 68q59 0 108.5 22t85.5 60.5t56 90t20 109.5t-20 109.5t-56 90t-85.5 60.5t-108.5 22t-109 -22t-86 -60.5t-56 -90t-20 -109.5t20 -109.5t56 -90t86 -60.5t109 -22z" />
    <glyph glyph-name="R" unicode="R" horiz-adv-x="641" 
d="M111 0v700h186q105 0 166.5 -53.5t61.5 -143.5q0 -63 -31 -109t-87 -68l226 -326h-111l-203 308q-5 -1 -11 -1h-11h-92v-307h-94zM301 620h-96v-233h96q60 0 93.5 31t33.5 87q0 53 -33.5 84t-93.5 31z" />
    <glyph glyph-name="S" unicode="S" horiz-adv-x="588" 
d="M58 96l70 64q36 -46 78.5 -70.5t90.5 -24.5q58 0 90.5 31.5t32.5 79.5q0 59 -52 89.5t-114 60.5t-114 74.5t-52 130.5q0 39 15.5 73.5t43 60t65.5 40.5t84 15q73 0 128 -31.5t94 -82.5l-71 -62q-31 44 -68 68t-82 24q-51 0 -82 -29t-31 -74q0 -59 52 -89t113.5 -59.5
t113.5 -74t52 -131.5q0 -45 -16.5 -82t-45.5 -62.5t-69 -39.5t-86 -14q-77 0 -135.5 29.5t-104.5 85.5z" />
    <glyph glyph-name="T" unicode="T" horiz-adv-x="629" 
d="M35 614v86h558v-86h-232v-614h-94v614h-232z" />
    <glyph glyph-name="U" unicode="U" horiz-adv-x="725" 
d="M540 258v442h94v-436q0 -134 -74.5 -209t-196.5 -75t-197 75t-75 209v436h94v-442q0 -90 48.5 -140t129.5 -50q80 0 128.5 50t48.5 140z" />
    <glyph glyph-name="V" unicode="V" horiz-adv-x="738" 
d="M27 700h100l242 -605l242 605h100l-280 -700h-124z" />
    <glyph glyph-name="W" unicode="W" horiz-adv-x="1039" 
d="M33 700h94l152 -598l178 598h126l177 -597l153 597h93l-179 -700h-128l-179 600l-179 -600h-128z" />
    <glyph glyph-name="X" unicode="X" horiz-adv-x="716" 
d="M143 0h-113l263 364l-242 336h112l195 -270l195 270h113l-243 -336l263 -364h-112l-216 298z" />
    <glyph glyph-name="Y" unicode="Y" horiz-adv-x="676" 
d="M668 700l-283 -386v-314h-94v314l-284 386h113l218 -294l218 294h112z" />
    <glyph glyph-name="Z" unicode="Z" horiz-adv-x="668" 
d="M55 0v86l434 528h-424v86h538v-86l-434 -528h444v-86h-558z" />
    <glyph glyph-name="bracketleft" unicode="[" horiz-adv-x="305" 
d="M68 750h223v-74h-142v-799h142v-74h-223v947z" />
    <glyph glyph-name="backslash" unicode="\" horiz-adv-x="357" 
d="M342 -197h-86l-242 947h86z" />
    <glyph glyph-name="bracketright" unicode="]" horiz-adv-x="305" 
d="M238 -197h-223v74h141v799h-141v74h223v-947z" />
    <glyph glyph-name="asciicircum" unicode="^" 
d="M186 154h-78l135 226h115l134 -226h-77l-114 181z" />
    <glyph glyph-name="underscore" unicode="_" horiz-adv-x="540" 
d="M12 -93h516v-74h-516v74z" />
    <glyph glyph-name="grave" unicode="`" 
d="M318 584l-117 166h95l104 -166h-82z" />
    <glyph glyph-name="a" unicode="a" horiz-adv-x="562" 
d="M227 -14q-74 0 -120 38.5t-46 102.5q0 57 42.5 96t122.5 52l170 28v35q0 52 -34 81t-88 29q-43 0 -78 -19t-58 -51l-64 49q33 45 85 71t118 26q96 0 150 -51.5t54 -134.5v-338h-85v63q-28 -37 -73.5 -57t-95.5 -20zM147 130q0 -32 25 -53t69 -21q50 0 90 23t65 63v99
l-149 -25q-51 -9 -75.5 -31.5t-24.5 -54.5z" />
    <glyph glyph-name="b" unicode="b" horiz-adv-x="661" 
d="M613 252q0 -55 -18.5 -104.5t-52 -86.5t-81.5 -59t-107 -22q-56 0 -100.5 21t-78.5 59v-60h-85v750h85v-306q34 38 78.5 59t100.5 21q59 0 107 -22t81.5 -59t52 -86.5t18.5 -104.5zM344 444q-52 0 -96.5 -24.5t-72.5 -68.5v-198q29 -45 73.5 -69t95.5 -24q40 0 73.5 15
t57 41t36.5 61t13 75t-13 75t-36.5 61t-57 41t-73.5 15z" />
    <glyph glyph-name="c" unicode="c" horiz-adv-x="560" 
d="M322 60q46 0 83.5 20.5t60.5 53.5l67 -51q-35 -47 -89 -75t-123 -28q-62 0 -113 22t-86.5 59t-55 86.5t-19.5 104.5t19.5 104.5t55 86.5t86.5 59t113 22q68 0 122.5 -28.5t89.5 -74.5l-67 -51q-23 33 -60.5 53.5t-84.5 20.5q-40 0 -74.5 -15t-58.5 -41t-38 -61t-14 -75
t14 -75.5t38.5 -61t58.5 -40.5t75 -15z" />
    <glyph glyph-name="d" unicode="d" horiz-adv-x="659" 
d="M47 252q0 55 18.5 104.5t52 86.5t81.5 59t107 22q56 0 100.5 -21t78.5 -59v306h85v-750h-85v60q-34 -38 -78.5 -59t-100.5 -21q-59 0 -107 22t-81.5 59t-52 86.5t-18.5 104.5zM137 252q0 -40 13 -75t36.5 -61t56.5 -41t73 -15q52 0 96.5 24.5t72.5 68.5v198
q-29 45 -73.5 69t-95.5 24q-40 0 -73 -15t-56.5 -41t-36.5 -61t-13 -75z" />
    <glyph glyph-name="e" unicode="e" horiz-adv-x="581" 
d="M538 83q-35 -47 -90.5 -75t-125.5 -28q-63 0 -114.5 22t-87 59t-54.5 86.5t-19 104.5q0 57 18 107t50.5 86.5t80 57.5t105.5 21q51 0 93 -16.5t71.5 -45.5t45.5 -69.5t16 -87.5q0 -15 -2 -29.5t-4 -24.5h-387q2 -90 54.5 -142t133.5 -52q49 0 88.5 20.5t64.5 54.5z
M301 452q-63 0 -105.5 -35.5t-55.5 -100.5h302q-2 55 -40 95.5t-101 40.5z" />
    <glyph glyph-name="f" unicode="f" horiz-adv-x="388" 
d="M24 504h95v62q0 80 48.5 132t130.5 52q34 0 62 -8.5t49 -20.5l-38 -71q-14 10 -31.5 16.5t-39.5 6.5q-43 0 -69 -28t-26 -77v-64h175v-77h-175v-427h-86v427h-95v77z" />
    <glyph glyph-name="g" unicode="g" horiz-adv-x="556" 
d="M32 -91q0 38 19 69.5t56 57.5q-17 13 -26 32.5t-9 39.5q0 30 15.5 54.5t44.5 43.5q-33 25 -51.5 61.5t-18.5 78.5q0 36 14 69t39 57t61.5 38.5t81.5 14.5q28 0 52.5 -5.5t44.5 -15.5h187v-74h-109q10 -19 15.5 -40.5t5.5 -43.5q0 -36 -13.5 -68.5t-39 -56.5t-62 -38.5
t-81.5 -14.5q-19 0 -36.5 3t-33.5 7q-16 -11 -24.5 -24.5t-8.5 -27.5q0 -16 9.5 -26t32.5 -10h144q99 0 147 -44t48 -111q0 -40 -19 -74t-53 -58.5t-81.5 -38.5t-103.5 -14q-111 0 -179 42t-68 117zM259 235q54 0 84.5 32.5t30.5 78.5t-30.5 79t-84.5 33q-56 0 -86 -33
t-30 -79t30 -78.5t86 -32.5zM115 -81q0 -46 44 -72t119 -26q79 0 126 29.5t47 78.5q0 36 -25 61t-92 25h-155q-32 -19 -48 -42.5t-16 -53.5z" />
    <glyph glyph-name="h" unicode="h" horiz-adv-x="621" 
d="M90 0v750h85v-303q31 34 71.5 55.5t96.5 21.5q84 0 140.5 -56t56.5 -163v-305h-85v302q0 67 -35 104.5t-94 37.5q-55 0 -91 -28t-60 -67v-349h-85z" />
    <glyph glyph-name="i" unicode="i" horiz-adv-x="265" 
d="M133 635q-25 0 -42.5 17.5t-17.5 42.5q0 24 17.5 41.5t42.5 17.5t42 -17.5t17 -41.5q0 -25 -17 -42.5t-42 -17.5zM90 0v504h85v-504h-85z" />
    <glyph glyph-name="j" unicode="j" horiz-adv-x="265" 
d="M132 635q-25 0 -42.5 17.5t-17.5 42.5q0 24 17.5 41.5t42.5 17.5q24 0 41.5 -17.5t17.5 -41.5q0 -25 -17.5 -42.5t-41.5 -17.5zM175 -66q0 -96 -45.5 -140t-129.5 -44q-27 0 -48 3.5t-38 10.5v76q13 -6 31.5 -9t43.5 -3q45 0 73 22t28 84v570h85v-570z" />
    <glyph glyph-name="k" unicode="k" horiz-adv-x="546" 
d="M91 0v750h86v-482l237 236h109l-211 -210l215 -294h-105l-171 234l-74 -73v-161h-86z" />
    <glyph glyph-name="l" unicode="l" horiz-adv-x="265" 
d="M90 0v750h85v-750h-85z" />
    <glyph glyph-name="m" unicode="m" horiz-adv-x="945" 
d="M90 0v504h85v-55q28 33 67 54t91 21q54 0 97.5 -24.5t66.5 -72.5q30 41 72.5 69t107.5 28q81 0 134 -53.5t53 -155.5v-315h-85v312q0 63 -32.5 97.5t-86.5 34.5q-48 0 -82.5 -25.5t-59.5 -69.5q1 -8 1.5 -16.5t0.5 -17.5v-315h-85v312q0 63 -32.5 97.5t-86.5 34.5
q-51 0 -85 -28t-56 -67v-349h-85z" />
    <glyph glyph-name="n" unicode="n" horiz-adv-x="621" 
d="M90 0v504h85v-57q31 34 71.5 55.5t96.5 21.5q84 0 140.5 -56t56.5 -163v-305h-85v302q0 67 -35.5 104.5t-93.5 37.5q-54 0 -90.5 -27.5t-60.5 -67.5v-349h-85z" />
    <glyph glyph-name="o" unicode="o" horiz-adv-x="640" 
d="M320 524q60 0 110.5 -22t86.5 -59t56 -86.5t20 -104.5t-20 -104.5t-56 -86.5t-86.5 -59t-110.5 -22q-61 0 -111.5 22t-86 59t-55.5 86.5t-20 104.5t20 104.5t55.5 86.5t86 59t111.5 22zM321 60q39 0 72.5 15.5t58 41.5t38 61t13.5 74t-13.5 74t-38 61t-58 41.5
t-72.5 15.5q-40 0 -74.5 -15.5t-58.5 -41.5t-38 -61t-14 -74t14 -74t38 -61t58.5 -41.5t74.5 -15.5z" />
    <glyph glyph-name="p" unicode="p" horiz-adv-x="660" 
d="M90 -246v750h85v-60q34 38 78.5 59t100.5 21q59 0 107 -22t81.5 -59t52 -86.5t18.5 -104.5t-18.5 -104.5t-52 -86.5t-81.5 -59t-107 -22q-56 0 -100.5 21t-78.5 59v-306h-85zM344 444q-52 0 -96.5 -24.5t-72.5 -69.5v-196q29 -46 73.5 -70t95.5 -24q40 0 73.5 15t57 41
t36.5 61t13 75t-13 75t-36.5 61t-57 41t-73.5 15z" />
    <glyph glyph-name="q" unicode="q" horiz-adv-x="660" 
d="M47 252q0 55 18.5 104.5t52 86.5t81.5 59t107 22q56 0 100.5 -21t78.5 -60v61h85v-750h-85v307q-34 -39 -78.5 -60t-100.5 -21q-59 0 -107 22t-81.5 59t-52 86.5t-18.5 104.5zM136 252q0 -40 13 -75t36.5 -61t56.5 -41t73 -15q53 0 97.5 24.5t72.5 69.5v196
q-29 46 -73.5 70t-96.5 24q-40 0 -73 -15t-56.5 -41t-36.5 -61t-13 -75z" />
    <glyph glyph-name="r" unicode="r" horiz-adv-x="397" 
d="M90 0v504h85v-63q28 33 63.5 53t83.5 20q12 0 23 -1.5t20 -4.5v-83q-11 3 -23 4.5t-27 1.5q-49 0 -83 -23.5t-57 -61.5v-346h-85z" />
    <glyph glyph-name="s" unicode="s" horiz-adv-x="443" 
d="M36 69l60 51q26 -33 58 -51t70 -18q42 0 65 22.5t23 55.5q0 42 -39.5 61.5t-86.5 39.5t-86.5 52t-39.5 98q0 59 46 101.5t118 42.5q54 0 98.5 -23t70.5 -60l-59 -50q-20 28 -48 45t-61 17q-40 0 -61.5 -21t-21.5 -50q0 -42 39.5 -62.5t87 -40t87 -51t39.5 -95.5
q-1 -70 -50.5 -111.5t-119.5 -41.5q-60 0 -107.5 23t-81.5 66z" />
    <glyph glyph-name="t" unicode="t" horiz-adv-x="420" 
d="M119 169v258h-95v77h95v126h86v-126h175v-77h-175v-258q0 -59 27.5 -80t73.5 -21q25 0 43 3t32 9v-76q-18 -7 -39 -10.5t-48 -3.5q-84 0 -129.5 43.5t-45.5 135.5z" />
    <glyph glyph-name="u" unicode="u" horiz-adv-x="604" 
d="M441 216v288h85v-285q0 -113 -61 -176t-163 -63q-101 0 -162 63t-61 176v285h85v-288q0 -74 37.5 -115t101.5 -41q63 0 100.5 41t37.5 115z" />
    <glyph glyph-name="v" unicode="v" horiz-adv-x="534" 
d="M14 504h92l161 -415l161 415h92l-197 -504h-112z" />
    <glyph glyph-name="w" unicode="w" horiz-adv-x="802" 
d="M34 504h85l105 -416l118 416h116l119 -417l105 417h85l-127 -504h-119l-120 423l-121 -423h-119z" />
    <glyph glyph-name="x" unicode="x" horiz-adv-x="530" 
d="M122 0h-99l186 261l-172 243h97l131 -186l131 186h98l-173 -243l186 -261h-97l-144 204z" />
    <glyph glyph-name="y" unicode="y" horiz-adv-x="549" 
d="M269 -122q-26 -63 -70.5 -95.5t-107.5 -32.5q-25 0 -45 4t-36 12v76q14 -7 31 -10.5t35 -3.5q38 0 68 17.5t49 63.5l39 92l-218 503h94l169 -395l167 395h90z" />
    <glyph glyph-name="z" unicode="z" horiz-adv-x="505" 
d="M49 0v77l297 350h-290v77h394v-77l-298 -350h305v-77h-408z" />
    <glyph glyph-name="braceleft" unicode="{" horiz-adv-x="305" 
d="M149 -42q0 -36 21 -58.5t57 -22.5h64v-74h-65q-74 0 -116 43t-42 112q0 26 8.5 55.5t19 57.5t19 54t8.5 47q0 29 -13 48.5t-45 19.5h-56v74h56q32 0 45 19.5t13 48.5q0 21 -8.5 47t-19 54t-19 57t-8.5 55q0 70 42 112.5t116 42.5h65v-74h-64q-36 0 -57 -22.5t-21 -58.5
q0 -22 9 -48.5t19 -54t19 -56t9 -54.5q0 -34 -14 -61.5t-42 -43.5q28 -16 42 -43.5t14 -61.5q0 -26 -9 -54.5t-19 -56.5t-19 -54.5t-9 -48.5z" />
    <glyph glyph-name="bar" unicode="|" horiz-adv-x="357" 
d="M138 -197v947h81v-947h-81z" />
    <glyph glyph-name="braceright" unicode="}" horiz-adv-x="305" 
d="M157 -42q0 22 -9 48.5t-19 54t-19 56t-9 54.5q0 34 14 61.5t41 43.5q-27 16 -41 43.5t-14 61.5q0 26 9 54.5t19 56.5t19 54.5t9 48.5q0 36 -21 58.5t-57 22.5h-64v74h65q74 0 116 -42.5t42 -112.5q0 -26 -8.5 -55.5t-19 -57.5t-19 -54t-8.5 -47q0 -29 13 -48t45 -19h56
v-75h-56q-32 0 -45 -19.5t-13 -48.5q0 -21 8.5 -47t19 -54t19 -57t8.5 -55q0 -69 -42 -112t-116 -43h-65v74h64q36 0 57 22.5t21 58.5z" />
    <glyph glyph-name="asciitilde" unicode="~" 
d="M505 372v-79q0 -58 -27.5 -97.5t-80.5 -39.5q-45 0 -71 25t-43.5 54t-34 54t-41.5 25t-37 -18t-12 -49v-85h-64v82q0 58 28 96t80 38q46 0 72 -25t44 -54t34 -54t41 -25t36.5 18t11.5 49v85h64z" />
    <glyph glyph-name="exclamdown" unicode="&#xa1;" horiz-adv-x="304" 
d="M152 524q25 0 44.5 -19t19.5 -46q0 -25 -19.5 -43.5t-44.5 -18.5q-27 0 -45.5 18.5t-18.5 43.5q0 27 19 46t45 19zM185 309l16 -496h-97l16 496h65z" />
    <glyph glyph-name="cent" unicode="&#xa2;" 
d="M287 700h74v-79q59 -5 106.5 -32.5t78.5 -69.5l-68 -53q-20 29 -50 48.5t-67 24.5v-378q37 5 67 24.5t50 47.5l68 -53q-31 -42 -78.5 -69t-106.5 -32v-79h-74v81q-52 8 -94.5 32.5t-71.5 60.5t-45 81t-16 95t16 95t45 81t71.5 60.5t94.5 32.5v81zM149 350q0 -68 38 -119
t100 -66v370q-62 -15 -100 -66.5t-38 -118.5z" />
    <glyph glyph-name="sterling" unicode="&#xa3;" 
d="M71 0v81l77 69q41 38 57.5 63.5t16.5 62.5q0 8 -1.5 16.5t-4.5 16.5h-145v73h104q-22 31 -42 67t-19 84q0 81 56.5 134t143.5 53q70 0 118 -30t82 -83l-69 -52q-23 42 -54 62.5t-73 20.5q-49 0 -81.5 -29.5t-32.5 -80.5q-1 -44 21.5 -78t44.5 -68h219v-73h-186
q2 -8 3 -16.5t1 -17.5q-1 -48 -22.5 -85t-72.5 -84l-28 -25h355v-81h-468z" />
    <glyph glyph-name="currency" unicode="&#xa4;" 
d="M500 0l-110 110q-19 -11 -42 -17.5t-48 -6.5t-48 6.5t-42 17.5l-110 -110l-52 52l109 109q-13 20 -19.5 43.5t-6.5 48.5t6.5 48t18.5 42l-108 108l52 53l109 -109q19 12 42 18.5t49 6.5t49 -6.5t42 -18.5l109 109l52 -52l-109 -109q12 -19 18.5 -42t6.5 -48t-6.5 -48.5
t-19.5 -42.5l110 -110zM300 146q43 0 72 31.5t29 75.5q0 45 -29 76t-72 31q-45 0 -73.5 -31t-28.5 -76t28.5 -76t73.5 -31z" />
    <glyph glyph-name="yen" unicode="&#xa5;" 
d="M62 232v74h193v83h-193v74h135l-161 238h106l159 -236l158 235h105l-160 -237h135v-74h-193v-83h193v-74h-193v-232h-91v232h-193z" />
    <glyph glyph-name="brokenbar" unicode="&#xa6;" horiz-adv-x="357" 
d="M219 399h-81v351h81v-351zM219 -197h-81v351h81v-351z" />
    <glyph glyph-name="section" unicode="&#xa7;" horiz-adv-x="525" 
d="M361 -25q0 58 -48.5 81.5t-106.5 44t-106.5 56t-48.5 116.5q1 51 28 86.5t68 53.5q-31 20 -52 52.5t-21 83.5q0 72 53.5 121.5t136.5 49.5q61 0 111 -24t89 -70l-54 -54q-33 41 -70.5 58.5t-74.5 17.5q-49 0 -78.5 -27t-29.5 -70q0 -58 48.5 -81.5t106.5 -44t106.5 -56
t48.5 -116.5q-1 -51 -28 -86t-68 -53q31 -20 52 -52.5t21 -83.5q0 -72 -53.5 -122t-136.5 -50q-61 0 -111 24t-89 70l54 54q33 -41 70.5 -58.5t74.5 -17.5q49 0 78.5 27t29.5 70zM135 276q0 -30 14 -49.5t37 -33.5t52 -24t59 -21q39 8 63 35.5t24 66.5q0 30 -14.5 49.5
t-37 33.5t-52 24t-59.5 21q-38 -7 -62 -35t-24 -67z" />
    <glyph glyph-name="dieresis" unicode="&#xa8;" 
d="M202 642q-23 0 -40 16.5t-17 39.5t17 39.5t40 16.5q22 0 39.5 -16.5t17.5 -39.5t-17.5 -39.5t-39.5 -16.5zM398 642q-22 0 -39.5 16.5t-17.5 39.5t17.5 39.5t39.5 16.5q23 0 40 -16.5t17 -39.5t-17 -39.5t-40 -16.5z" />
    <glyph glyph-name="copyright" unicode="&#xa9;" horiz-adv-x="849" 
d="M798 350q0 -75 -27 -142.5t-76 -117.5t-118.5 -80t-152.5 -30t-152.5 30t-118.5 80t-76 117.5t-27 142.5t27 142.5t76.5 117.5t118.5 80t153 30q83 0 152 -30t118 -80t76 -117.5t27 -142.5zM110 350q0 -65 23 -122.5t64 -100.5t99.5 -68.5t127.5 -25.5q70 0 128 25.5
t99.5 68.5t64.5 100.5t23 122.5t-23 122.5t-64.5 100.5t-99.5 68.5t-128 25.5q-69 0 -127.5 -25.5t-99.5 -68.5t-64 -100.5t-23 -122.5zM431 189q40 0 72 18t52 47l57 -43q-30 -40 -77 -64t-104 -24q-50 0 -92.5 18t-72.5 49t-46.5 72.5t-16.5 87.5t16.5 87.5t46.5 72.5
t72.5 49t92.5 18q57 0 104 -24t77 -64l-57 -43q-20 29 -52 47t-72 18q-67 0 -110.5 -47t-43.5 -114t43.5 -114t110.5 -47z" />
    <glyph glyph-name="ordfeminine" unicode="&#xaa;" horiz-adv-x="359" 
d="M143 393q-45 0 -73.5 24.5t-28.5 66.5q0 36 27 61t76 32l96 16v16q0 28 -18.5 44.5t-48.5 16.5q-24 0 -43 -10.5t-32 -29.5l-48 36q21 28 53 44.5t72 16.5q62 0 95.5 -33.5t33.5 -84.5v-204h-64v35q-16 -22 -42 -34.5t-55 -12.5zM103 485q0 -18 13.5 -30t38.5 -12
q28 0 49.5 14t35.5 37v54l-80 -13q-31 -5 -44 -18t-13 -32zM59 258v61h245v-61h-245z" />
    <glyph glyph-name="guillemetleft" unicode="&#xab;" horiz-adv-x="530" 
d="M275 48h-92l-132 200l132 200h92l-131 -200zM478 48h-92l-132 200l132 200h92l-131 -200z" />
    <glyph glyph-name="logicalnot" unicode="&#xac;" 
d="M552 397v-290h-74v216h-430v74h504z" />
    <glyph glyph-name="registered" unicode="&#xae;" horiz-adv-x="509" 
d="M479 498q0 -45 -16.5 -85.5t-46 -70.5t-71 -48t-91.5 -18t-91 18t-70.5 48t-46 70.5t-16.5 85.5t16.5 85.5t46 70.5t71 48t91.5 18t91 -18t70.5 -48t46 -70.5t16.5 -85.5zM71 498q0 -38 13.5 -72t38 -59t58.5 -40t74 -15t74 15t57.5 40t37 59t13.5 72t-13.5 72t-37 59
t-57.5 40t-74 15q-41 0 -75 -15t-58 -40t-37.5 -59t-13.5 -72zM176 371v258h76q42 0 66.5 -20.5t24.5 -54.5q0 -22 -11.5 -39t-31.5 -26l70 -118h-54l-62 109h-29v-109h-49zM254 588h-29v-67h29q19 0 29 9t10 25t-10 24.5t-29 8.5z" />
    <glyph glyph-name="macron" unicode="&#xaf;" 
d="M145 659v65h310v-65h-310z" />
    <glyph glyph-name="degree" unicode="&#xb0;" horiz-adv-x="411" 
d="M206 720q37 0 68 -13.5t53.5 -36t34.5 -53t12 -64.5t-12 -64.5t-34.5 -53t-53.5 -36t-68 -13.5q-38 0 -69 13.5t-53 36t-34.5 53t-12.5 64.5t12.5 64.5t34.5 53t53 36t69 13.5zM206 446q43 0 72 31.5t29 75.5q0 45 -29 76t-72 31q-45 0 -73.5 -31t-28.5 -76t28.5 -76
t73.5 -31z" />
    <glyph glyph-name="plusminus" unicode="&#xb1;" 
d="M337 504v-144h215v-74h-215v-145h-74v145h-215v74h215v144h74zM552 0h-504v74h504v-74z" />
    <glyph glyph-name="twosuperior" unicode="&#xb2;" horiz-adv-x="389" 
d="M49 405v61l147 148q28 30 46 52.5t18 56.5q0 30 -19.5 47t-49.5 17q-32 0 -54 -17t-40 -47l-55 34q26 42 63 66t90 24q57 0 95.5 -32.5t38.5 -86.5q0 -46 -25.5 -81t-59.5 -70l-113 -111h210v-61h-292z" />
    <glyph glyph-name="threesuperior" unicode="&#xb3;" horiz-adv-x="389" 
d="M346 526q0 -61 -43.5 -97t-110.5 -36q-57 0 -97 22t-65 65l59 37q19 -34 44 -49t59 -15q36 0 60 20t24 55q0 34 -22.5 54.5t-61.5 20.5h-72v60h64q33 0 53 17.5t20 45.5q0 29 -19.5 45t-48.5 16q-28 0 -48.5 -14t-34.5 -39l-56 33q23 38 58.5 59t84.5 21q57 0 95 -31.5
t38 -82.5q0 -31 -13.5 -55.5t-39.5 -40.5q35 -16 54 -45.5t19 -65.5z" />
    <glyph glyph-name="acute" unicode="&#xb4;" 
d="M283 584h-83l104 166h96z" />
    <glyph glyph-name="paragraph" unicode="&#xb6;" horiz-adv-x="664" 
d="M363 -197h-82v504h-25q-103 0 -164 53t-61 143t61 143.5t164 53.5h107v-897zM472 -197v897h81v-897h-81z" />
    <glyph glyph-name="periodcentered" unicode="&#xb7;" horiz-adv-x="270" 
d="M136 192q-27 0 -46 18.5t-19 44.5t19 45t46 19t45.5 -19t18.5 -45t-18.5 -44.5t-45.5 -18.5z" />
    <glyph glyph-name="cedilla" unicode="&#xb8;" 
d="M289 8l69 -5l-56 -67h4q43 0 73.5 -24t30.5 -63q0 -41 -32 -69t-82 -28q-31 0 -58 8.5t-46 25.5l33 47q13 -12 30.5 -20t36.5 -8q22 0 36 11.5t14 31.5t-14 30.5t-39 10.5q-12 0 -21.5 -2.5t-18.5 -6.5l-32 36z" />
    <glyph glyph-name="onesuperior" unicode="&#xb9;" horiz-adv-x="389" 
d="M59 405v61h118v300l-106 -57l-34 49l142 77h66v-369h106v-61h-292z" />
    <glyph glyph-name="ordmasculine" unicode="&#xba;" horiz-adv-x="411" 
d="M206 727q37 0 68 -13.5t53.5 -36t34.5 -53t12 -64.5t-12 -64.5t-34.5 -53t-53.5 -36t-68 -13.5q-38 0 -69 13.5t-53 36t-34.5 53t-12.5 64.5t12.5 64.5t34.5 53t53 36t69 13.5zM206 453q43 0 72 31.5t29 75.5q0 45 -29 76t-72 31q-45 0 -73.5 -31t-28.5 -76t28.5 -76
t73.5 -31zM61 258v61h290v-61h-290z" />
    <glyph glyph-name="guillemetright" unicode="&#xbb;" horiz-adv-x="530" 
d="M51 448h93l132 -200l-132 -200h-93l131 200zM254 448h93l132 -200l-132 -200h-93l131 200z" />
    <glyph glyph-name="onequarter" unicode="&#xbc;" horiz-adv-x="921" 
d="M59 270v61h118v300l-106 -57l-34 49l142 77h66v-369h106v-61h-292zM213 0l513 700h90l-513 -700h-90zM571 120v57l189 253h80v-253h47v-57h-47v-120h-67v120h-202zM641 177h132v176z" />
    <glyph glyph-name="onehalf" unicode="&#xbd;" horiz-adv-x="1004" 
d="M59 270v61h118v300l-106 -57l-34 49l142 77h66v-369h106v-61h-292zM213 0l513 700h90l-513 -700h-90zM664 0v61l147 148q28 30 46 52.5t18 56.5q0 30 -19.5 47t-49.5 17q-32 0 -54 -17t-40 -47l-55 34q26 42 63 66t90 24q57 0 95.5 -32.5t38.5 -86.5q0 -46 -25.5 -81
t-59.5 -70l-113 -111h210v-61h-292z" />
    <glyph glyph-name="threequarters" unicode="&#xbe;" horiz-adv-x="886" 
d="M346 391q0 -61 -43.5 -97t-110.5 -36q-57 0 -97 22t-65 65l59 37q19 -34 44 -49t59 -15q36 0 60 20t24 55q0 34 -22.5 54.5t-61.5 20.5h-72v60h64q33 0 53 17.5t20 45.5q0 29 -19.5 45t-48.5 16q-28 0 -48.5 -14t-34.5 -39l-56 33q23 38 58.5 59t84.5 21q57 0 95 -31.5
t38 -82.5q0 -31 -13.5 -55.5t-39.5 -40.5q35 -16 54 -45.5t19 -65.5zM179 0l513 700h90l-513 -700h-90zM536 120v57l189 253h80v-253h47v-57h-47v-120h-67v120h-202zM606 177h132v176z" />
    <glyph glyph-name="questiondown" unicode="&#xbf;" horiz-adv-x="509" 
d="M296 524q26 0 45.5 -19t19.5 -46q0 -25 -19.5 -43.5t-45.5 -18.5t-45 18.5t-19 43.5q0 27 19 46t45 19zM330 309l11 -152q-106 -13 -162 -50.5t-56 -108.5q0 -54 36.5 -90t90.5 -36q46 0 80.5 21.5t65.5 65.5l74 -47q-39 -54 -93 -86.5t-131 -32.5q-44 0 -83.5 15.5
t-68.5 42.5t-46 64.5t-17 81.5q0 92 64 148.5t164 73.5l6 90h65z" />
    <glyph glyph-name="Agrave" unicode="&#xc0;" horiz-adv-x="738" 
d="M328 760l-128 135h102l113 -135h-87zM27 0l279 700h126l279 -700h-100l-81 206h-322l-81 -206h-100zM239 287h260l-130 331z" />
    <glyph glyph-name="Aacute" unicode="&#xc1;" horiz-adv-x="738" 
d="M413 760h-87l113 135h102zM27 0l279 700h126l279 -700h-100l-81 206h-322l-81 -206h-100zM239 287h260l-130 331z" />
    <glyph glyph-name="Acircumflex" unicode="&#xc2;" horiz-adv-x="738" 
d="M281 760h-77l113 135h105l112 -135h-77l-88 92zM27 0l279 700h126l279 -700h-100l-81 206h-322l-81 -206h-100zM239 287h260l-130 331z" />
    <glyph glyph-name="Atilde" unicode="&#xc3;" horiz-adv-x="738" 
d="M193 760v44q0 44 26 72.5t69 28.5q29 0 51.5 -14.5t41 -32t34.5 -32t33 -14.5q15 0 23.5 10.5t8.5 29.5v43h64v-43q0 -46 -25.5 -74t-68.5 -28q-30 0 -52.5 14.5t-40.5 32t-33.5 32t-33.5 14.5q-16 0 -24.5 -10.5t-8.5 -29.5v-43h-64zM27 0l279 700h126l279 -700h-100
l-81 206h-322l-81 -206h-100zM239 287h260l-130 331z" />
    <glyph glyph-name="Adieresis" unicode="&#xc4;" horiz-adv-x="738" 
d="M272 789q-22 0 -38 15.5t-16 37.5t16 37.5t38 15.5t37.5 -15.5t15.5 -37.5t-15.5 -37.5t-37.5 -15.5zM466 789q-22 0 -37.5 15.5t-15.5 37.5t15.5 37.5t37.5 15.5t38 -15.5t16 -37.5t-16 -37.5t-38 -15.5zM27 0l279 700h126l279 -700h-100l-81 206h-322l-81 -206h-100z
M239 287h260l-130 331z" />
    <glyph glyph-name="Aring" unicode="&#xc5;" horiz-adv-x="738" 
d="M369 740q-49 0 -86 29t-37 83q0 56 37 85t86 29q50 0 87.5 -29t37.5 -85q0 -54 -37.5 -83t-87.5 -29zM370 791q28 0 47.5 16t19.5 45q0 31 -19.5 47t-47.5 16t-48 -16t-20 -47q0 -29 20 -45t48 -16zM27 0l279 700h126l279 -700h-100l-81 206h-322l-81 -206h-100zM239 287
h260l-130 331z" />
    <glyph glyph-name="AE" unicode="&#xc6;" horiz-adv-x="977" 
d="M22 0l451 700h429v-80h-282v-224h242v-79h-242v-237h282v-80h-376v206h-264l-131 -206h-109zM313 287h213v334z" />
    <glyph glyph-name="Ccedilla" unicode="&#xc7;" horiz-adv-x="757" 
d="M419 68q70 0 126.5 31.5t91.5 82.5l75 -58q-43 -59 -110 -97.5t-150 -45.5l-89 -141h-87l91 143q-71 9 -129.5 42t-99.5 82t-64 111.5t-23 131.5q0 75 27 142.5t75 117.5t116 80t150 30q94 0 169.5 -40t123.5 -104l-75 -58q-35 51 -91.5 82.5t-126.5 31.5q-59 0 -109 -22
t-86 -60.5t-56 -90t-20 -109.5t20 -109.5t56 -90t86 -60.5t109 -22z" />
    <glyph glyph-name="Egrave" unicode="&#xc8;" horiz-adv-x="563" 
d="M260 760l-128 135h102l113 -135h-87zM111 0v700h376v-80h-282v-224h242v-79h-242v-237h282v-80h-376z" />
    <glyph glyph-name="Eacute" unicode="&#xc9;" horiz-adv-x="563" 
d="M345 760h-87l113 135h102zM111 0v700h376v-80h-282v-224h242v-79h-242v-237h282v-80h-376z" />
    <glyph glyph-name="Ecircumflex" unicode="&#xca;" horiz-adv-x="563" 
d="M213 760h-77l113 135h105l112 -135h-77l-88 92zM111 0v700h376v-80h-282v-224h242v-79h-242v-237h282v-80h-376z" />
    <glyph glyph-name="Edieresis" unicode="&#xcb;" horiz-adv-x="563" 
d="M204 789q-22 0 -38 15.5t-16 37.5t16 37.5t38 15.5t37.5 -15.5t15.5 -37.5t-15.5 -37.5t-37.5 -15.5zM398 789q-22 0 -37.5 15.5t-15.5 37.5t15.5 37.5t37.5 15.5t38 -15.5t16 -37.5t-16 -37.5t-38 -15.5zM111 0v700h376v-80h-282v-224h242v-79h-242v-237h282v-80h-376z
" />
    <glyph glyph-name="Igrave" unicode="&#xcc;" horiz-adv-x="316" 
d="M117 760l-128 135h102l113 -135h-87zM111 0v700h94v-700h-94z" />
    <glyph glyph-name="Iacute" unicode="&#xcd;" horiz-adv-x="316" 
d="M202 760h-87l113 135h102zM111 0v700h94v-700h-94z" />
    <glyph glyph-name="Icircumflex" unicode="&#xce;" horiz-adv-x="316" 
d="M70 760h-77l113 135h105l112 -135h-77l-88 92zM111 0v700h94v-700h-94z" />
    <glyph glyph-name="Idieresis" unicode="&#xcf;" horiz-adv-x="316" 
d="M61 789q-22 0 -38 15.5t-16 37.5t16 37.5t38 15.5t37.5 -15.5t15.5 -37.5t-15.5 -37.5t-37.5 -15.5zM255 789q-22 0 -37.5 15.5t-15.5 37.5t15.5 37.5t37.5 15.5t38 -15.5t16 -37.5t-16 -37.5t-38 -15.5zM111 0v700h94v-700h-94z" />
    <glyph glyph-name="Eth" unicode="&#xd0;" horiz-adv-x="800" 
d="M111 0v326h-111v64h111v310h269q82 0 150 -28t116 -76t75 -111.5t27 -134.5t-27 -134.5t-75 -111.5t-116 -76t-150 -28h-269zM389 326h-184v-240h177q58 0 107.5 21t85.5 56.5t56 84t20 102.5q0 55 -20 103.5t-56 84t-85.5 56t-107.5 20.5h-177v-224h184v-64z" />
    <glyph glyph-name="Ntilde" unicode="&#xd1;" horiz-adv-x="835" 
d="M241 760v44q0 44 26 72.5t69 28.5q29 0 51.5 -14.5t41 -32t34.5 -32t33 -14.5q15 0 23.5 10.5t8.5 29.5v43h64v-43q0 -46 -25.5 -74t-68.5 -28q-30 0 -52.5 14.5t-40.5 32t-33.5 32t-33.5 14.5q-16 0 -24.5 -10.5t-8.5 -29.5v-43h-64zM111 0v700h123l396 -585v585h94
v-700h-123l-396 585v-585h-94z" />
    <glyph glyph-name="Ograve" unicode="&#xd2;" horiz-adv-x="837" 
d="M378 760l-128 135h102l113 -135h-87zM419 720q81 0 149 -30t116 -80t75 -117.5t27 -142.5t-27 -142.5t-75 -117.5t-116 -80t-149 -30q-82 0 -150 30t-116 80t-75 117.5t-27 142.5t27 142.5t75 117.5t116 80t150 30zM419 68q59 0 108.5 22t85.5 60.5t56 90t20 109.5
t-20 109.5t-56 90t-85.5 60.5t-108.5 22t-109 -22t-86 -60.5t-56 -90t-20 -109.5t20 -109.5t56 -90t86 -60.5t109 -22z" />
    <glyph glyph-name="Oacute" unicode="&#xd3;" horiz-adv-x="837" 
d="M463 760h-87l113 135h102zM419 720q81 0 149 -30t116 -80t75 -117.5t27 -142.5t-27 -142.5t-75 -117.5t-116 -80t-149 -30q-82 0 -150 30t-116 80t-75 117.5t-27 142.5t27 142.5t75 117.5t116 80t150 30zM419 68q59 0 108.5 22t85.5 60.5t56 90t20 109.5t-20 109.5
t-56 90t-85.5 60.5t-108.5 22t-109 -22t-86 -60.5t-56 -90t-20 -109.5t20 -109.5t56 -90t86 -60.5t109 -22z" />
    <glyph glyph-name="Ocircumflex" unicode="&#xd4;" horiz-adv-x="837" 
d="M331 760h-77l113 135h105l112 -135h-77l-88 92zM419 720q81 0 149 -30t116 -80t75 -117.5t27 -142.5t-27 -142.5t-75 -117.5t-116 -80t-149 -30q-82 0 -150 30t-116 80t-75 117.5t-27 142.5t27 142.5t75 117.5t116 80t150 30zM419 68q59 0 108.5 22t85.5 60.5t56 90
t20 109.5t-20 109.5t-56 90t-85.5 60.5t-108.5 22t-109 -22t-86 -60.5t-56 -90t-20 -109.5t20 -109.5t56 -90t86 -60.5t109 -22z" />
    <glyph glyph-name="Otilde" unicode="&#xd5;" horiz-adv-x="837" 
d="M243 760v44q0 44 26 72.5t69 28.5q29 0 51.5 -14.5t41 -32t34.5 -32t33 -14.5q15 0 23.5 10.5t8.5 29.5v43h64v-43q0 -46 -25.5 -74t-68.5 -28q-30 0 -52.5 14.5t-40.5 32t-33.5 32t-33.5 14.5q-16 0 -24.5 -10.5t-8.5 -29.5v-43h-64zM419 720q81 0 149 -30t116 -80
t75 -117.5t27 -142.5t-27 -142.5t-75 -117.5t-116 -80t-149 -30q-82 0 -150 30t-116 80t-75 117.5t-27 142.5t27 142.5t75 117.5t116 80t150 30zM419 68q59 0 108.5 22t85.5 60.5t56 90t20 109.5t-20 109.5t-56 90t-85.5 60.5t-108.5 22t-109 -22t-86 -60.5t-56 -90
t-20 -109.5t20 -109.5t56 -90t86 -60.5t109 -22z" />
    <glyph glyph-name="Odieresis" unicode="&#xd6;" horiz-adv-x="837" 
d="M322 789q-22 0 -38 15.5t-16 37.5t16 37.5t38 15.5t37.5 -15.5t15.5 -37.5t-15.5 -37.5t-37.5 -15.5zM516 789q-22 0 -37.5 15.5t-15.5 37.5t15.5 37.5t37.5 15.5t38 -15.5t16 -37.5t-16 -37.5t-38 -15.5zM419 720q81 0 149 -30t116 -80t75 -117.5t27 -142.5t-27 -142.5
t-75 -117.5t-116 -80t-149 -30q-82 0 -150 30t-116 80t-75 117.5t-27 142.5t27 142.5t75 117.5t116 80t150 30zM419 68q59 0 108.5 22t85.5 60.5t56 90t20 109.5t-20 109.5t-56 90t-85.5 60.5t-108.5 22t-109 -22t-86 -60.5t-56 -90t-20 -109.5t20 -109.5t56 -90t86 -60.5
t109 -22z" />
    <glyph glyph-name="multiply" unicode="&#xd7;" 
d="M500 0l-200 200l-200 -200l-52 52l200 200l-200 200l52 52l200 -200l200 200l52 -52l-200 -200l200 -200z" />
    <glyph glyph-name="Oslash" unicode="&#xd8;" horiz-adv-x="837" 
d="M142 -20h-91l97 115q-46 50 -71.5 116t-25.5 139q0 75 27 142.5t75 117.5t116 80t150 30q63 0 118.5 -18.5t99.5 -50.5l58 69h91l-97 -115q46 -50 71.5 -116t25.5 -139q0 -75 -27 -142.5t-75 -117.5t-116 -80t-149 -30q-63 0 -118.5 18.5t-100.5 50.5zM148 350
q0 -53 17 -101t48 -85l361 419q-32 23 -71.5 36t-83.5 13q-59 0 -109 -22t-86 -60.5t-56 -90t-20 -109.5zM419 68q59 0 108.5 22t85.5 60.5t56 90t20 109.5q0 53 -17 101t-48 85l-361 -419q32 -23 71.5 -36t84.5 -13z" />
    <glyph glyph-name="Ugrave" unicode="&#xd9;" horiz-adv-x="725" 
d="M322 760l-128 135h102l113 -135h-87zM540 258v442h94v-436q0 -134 -74.5 -209t-196.5 -75t-197 75t-75 209v436h94v-442q0 -90 48.5 -140t129.5 -50q80 0 128.5 50t48.5 140z" />
    <glyph glyph-name="Uacute" unicode="&#xda;" horiz-adv-x="725" 
d="M407 760h-87l113 135h102zM540 258v442h94v-436q0 -134 -74.5 -209t-196.5 -75t-197 75t-75 209v436h94v-442q0 -90 48.5 -140t129.5 -50q80 0 128.5 50t48.5 140z" />
    <glyph glyph-name="Ucircumflex" unicode="&#xdb;" horiz-adv-x="725" 
d="M275 760h-77l113 135h105l112 -135h-77l-88 92zM540 258v442h94v-436q0 -134 -74.5 -209t-196.5 -75t-197 75t-75 209v436h94v-442q0 -90 48.5 -140t129.5 -50q80 0 128.5 50t48.5 140z" />
    <glyph glyph-name="Udieresis" unicode="&#xdc;" horiz-adv-x="725" 
d="M266 789q-22 0 -38 15.5t-16 37.5t16 37.5t38 15.5t37.5 -15.5t15.5 -37.5t-15.5 -37.5t-37.5 -15.5zM460 789q-22 0 -37.5 15.5t-15.5 37.5t15.5 37.5t37.5 15.5t38 -15.5t16 -37.5t-16 -37.5t-38 -15.5zM540 258v442h94v-436q0 -134 -74.5 -209t-196.5 -75t-197 75
t-75 209v436h94v-442q0 -90 48.5 -140t129.5 -50q80 0 128.5 50t48.5 140z" />
    <glyph glyph-name="Yacute" unicode="&#xdd;" horiz-adv-x="676" 
d="M382 760h-87l113 135h102zM668 700l-283 -386v-314h-94v314l-284 386h113l218 -294l218 294h112z" />
    <glyph glyph-name="Thorn" unicode="&#xde;" horiz-adv-x="574" 
d="M111 0v700h94v-146h111q104 0 165.5 -53t61.5 -143t-61.5 -143.5t-165.5 -53.5h-111v-161h-94zM318 475h-113v-234h113q60 0 94 31t34 87q0 54 -34 85t-94 31z" />
    <glyph glyph-name="germandbls" unicode="&#xdf;" horiz-adv-x="583" 
d="M313 -4q-17 0 -30 1.5t-25 4.5v81q11 -4 24.5 -5.5t26.5 -1.5q61 0 99.5 36t38.5 95q0 56 -41 95.5t-104 39.5h-44v80h40q54 0 87.5 36t33.5 93q0 50 -33.5 84.5t-84.5 34.5q-55 0 -90 -31.5t-35 -86.5v-552h-86v552q0 87 58 142.5t154 55.5q47 0 85.5 -15t65 -41.5
t41 -62t14.5 -76.5q0 -54 -28 -102.5t-84 -68.5q69 -19 104 -71t35 -110q0 -46 -17 -84.5t-46.5 -65.5t-70.5 -42t-88 -15z" />
    <glyph glyph-name="agrave" unicode="&#xe0;" horiz-adv-x="559" 
d="M232 584l-117 166h95l104 -166h-82zM227 -14q-74 0 -120 38.5t-46 102.5q0 57 42.5 96t122.5 52l170 28v35q0 52 -34 81t-88 29q-43 0 -78 -19t-58 -51l-64 49q33 45 85 71t118 26q96 0 150 -51.5t54 -134.5v-338h-85v63q-28 -37 -73.5 -57t-95.5 -20zM147 130
q0 -32 25 -53t69 -21q50 0 90 23t65 63v99l-149 -25q-51 -9 -75.5 -31.5t-24.5 -54.5z" />
    <glyph glyph-name="aacute" unicode="&#xe1;" horiz-adv-x="562" 
d="M322 584h-83l104 166h96zM227 -14q-74 0 -120 38.5t-46 102.5q0 57 42.5 96t122.5 52l170 28v35q0 52 -34 81t-88 29q-43 0 -78 -19t-58 -51l-64 49q33 45 85 71t118 26q96 0 150 -51.5t54 -134.5v-338h-85v63q-28 -37 -73.5 -57t-95.5 -20zM147 130q0 -32 25 -53t69 -21
q50 0 90 23t65 63v99l-149 -25q-51 -9 -75.5 -31.5t-24.5 -54.5z" />
    <glyph glyph-name="acircumflex" unicode="&#xe2;" horiz-adv-x="562" 
d="M194 584h-77l105 166h115l104 -166h-76l-85 126zM227 -14q-74 0 -120 38.5t-46 102.5q0 57 42.5 96t122.5 52l170 28v35q0 52 -34 81t-88 29q-43 0 -78 -19t-58 -51l-64 49q33 45 85 71t118 26q96 0 150 -51.5t54 -134.5v-338h-85v63q-28 -37 -73.5 -57t-95.5 -20z
M147 130q0 -32 25 -53t69 -21q50 0 90 23t65 63v99l-149 -25q-51 -9 -75.5 -31.5t-24.5 -54.5z" />
    <glyph glyph-name="atilde" unicode="&#xe3;" horiz-adv-x="562" 
d="M454 750v-52q0 -51 -23.5 -86t-69.5 -35q-37 0 -59 18t-38 40t-30 40t-34 18q-16 0 -24.5 -14t-8.5 -35v-60h-64v55q0 51 23.5 84.5t68.5 33.5q37 0 59.5 -18t38.5 -40t30 -40t34 -18q16 0 24.5 14t8.5 35v60h64zM227 -14q-74 0 -120 38.5t-46 102.5q0 57 42.5 96
t122.5 52l170 28v35q0 52 -34 81t-88 29q-43 0 -78 -19t-58 -51l-64 49q33 45 85 71t118 26q96 0 150 -51.5t54 -134.5v-338h-85v63q-28 -37 -73.5 -57t-95.5 -20zM147 130q0 -32 25 -53t69 -21q50 0 90 23t65 63v99l-149 -25q-51 -9 -75.5 -31.5t-24.5 -54.5z" />
    <glyph glyph-name="adieresis" unicode="&#xe4;" horiz-adv-x="562" 
d="M181 642q-23 0 -40 16.5t-17 39.5t17 39.5t40 16.5q22 0 39.5 -16.5t17.5 -39.5t-17.5 -39.5t-39.5 -16.5zM377 642q-22 0 -39.5 16.5t-17.5 39.5t17.5 39.5t39.5 16.5q23 0 40 -16.5t17 -39.5t-17 -39.5t-40 -16.5zM227 -14q-74 0 -120 38.5t-46 102.5q0 57 42.5 96
t122.5 52l170 28v35q0 52 -34 81t-88 29q-43 0 -78 -19t-58 -51l-64 49q33 45 85 71t118 26q96 0 150 -51.5t54 -134.5v-338h-85v63q-28 -37 -73.5 -57t-95.5 -20zM147 130q0 -32 25 -53t69 -21q50 0 90 23t65 63v99l-149 -25q-51 -9 -75.5 -31.5t-24.5 -54.5z" />
    <glyph glyph-name="aring" unicode="&#xe5;" horiz-adv-x="562" 
d="M279 556q-49 0 -86 32t-37 85t37 85.5t86 32.5q50 0 87.5 -32.5t37.5 -85.5t-37.5 -85t-87.5 -32zM281 605q29 1 49 19.5t19 49.5t-21.5 49.5t-49.5 17.5q-28 0 -48 -19.5t-19 -50.5t21.5 -49t48.5 -17zM227 -14q-74 0 -120 38.5t-46 102.5q0 57 42.5 96t122.5 52l170 28
v35q0 52 -34 81t-88 29q-43 0 -78 -19t-58 -51l-64 49q33 45 85 71t118 26q96 0 150 -51.5t54 -134.5v-338h-85v63q-28 -37 -73.5 -57t-95.5 -20zM147 130q0 -32 25 -53t69 -21q50 0 90 23t65 63v99l-149 -25q-51 -9 -75.5 -31.5t-24.5 -54.5z" />
    <glyph glyph-name="ae" unicode="&#xe6;" horiz-adv-x="931" 
d="M228 -13q-75 0 -121 38t-46 102q0 57 43 96t123 52l170 28v35q0 52 -34.5 81t-86.5 29q-45 0 -80 -19t-58 -51l-64 49q33 45 86 71t119 26q63 0 108 -24t69 -66q33 42 82 66t112 24q51 0 93 -16.5t71.5 -45.5t45.5 -69.5t16 -87.5q0 -15 -1.5 -29.5t-4.5 -24.5h-387
q2 -90 54.5 -142t133.5 -52q50 0 89 20.5t64 54.5l63 -49q-35 -47 -90.5 -75t-125.5 -28q-79 0 -138.5 33.5t-93.5 87.5q-35 -54 -88.5 -84t-122.5 -30zM649 452q-60 0 -104 -34t-57 -102h303q-2 55 -40.5 95.5t-101.5 40.5zM147 130q0 -31 25.5 -52t68.5 -21q55 0 97.5 29
t71.5 78q-5 18 -8.5 37.5t-4.5 39.5l-149 -25q-52 -9 -76.5 -31.5t-24.5 -54.5z" />
    <glyph glyph-name="ccedilla" unicode="&#xe7;" horiz-adv-x="560" 
d="M322 60q46 0 83.5 20.5t60.5 53.5l67 -51q-31 -43 -78 -70t-106 -32l-89 -141h-87l92 145q-50 9 -91 34t-69 60t-43 79.5t-15 93.5q0 55 19.5 104.5t55 86.5t86.5 59t113 22q68 0 122.5 -28.5t89.5 -74.5l-67 -51q-23 33 -60.5 53.5t-84.5 20.5q-40 0 -74.5 -15
t-58.5 -41t-38 -61t-14 -75t14 -75.5t38.5 -61t58.5 -40.5t75 -15z" />
    <glyph glyph-name="egrave" unicode="&#xe8;" horiz-adv-x="581" 
d="M259 584l-117 166h95l104 -166h-82zM538 83q-35 -47 -90.5 -75t-125.5 -28q-63 0 -114.5 22t-87 59t-54.5 86.5t-19 104.5q0 57 18 107t50.5 86.5t80 57.5t105.5 21q51 0 93 -16.5t71.5 -45.5t45.5 -69.5t16 -87.5q0 -15 -2 -29.5t-4 -24.5h-387q2 -90 54.5 -142
t133.5 -52q49 0 88.5 20.5t64.5 54.5zM301 452q-63 0 -105.5 -35.5t-55.5 -100.5h302q-2 55 -40 95.5t-101 40.5z" />
    <glyph glyph-name="eacute" unicode="&#xe9;" horiz-adv-x="581" 
d="M346 584h-83l104 166h96zM538 83q-35 -47 -90.5 -75t-125.5 -28q-63 0 -114.5 22t-87 59t-54.5 86.5t-19 104.5q0 57 18 107t50.5 86.5t80 57.5t105.5 21q51 0 93 -16.5t71.5 -45.5t45.5 -69.5t16 -87.5q0 -15 -2 -29.5t-4 -24.5h-387q2 -90 54.5 -142t133.5 -52
q49 0 88.5 20.5t64.5 54.5zM301 452q-63 0 -105.5 -35.5t-55.5 -100.5h302q-2 55 -40 95.5t-101 40.5z" />
    <glyph glyph-name="ecircumflex" unicode="&#xea;" horiz-adv-x="581" 
d="M218 584h-77l105 166h115l104 -166h-76l-85 126zM538 83q-35 -47 -90.5 -75t-125.5 -28q-63 0 -114.5 22t-87 59t-54.5 86.5t-19 104.5q0 57 18 107t50.5 86.5t80 57.5t105.5 21q51 0 93 -16.5t71.5 -45.5t45.5 -69.5t16 -87.5q0 -15 -2 -29.5t-4 -24.5h-387
q2 -90 54.5 -142t133.5 -52q49 0 88.5 20.5t64.5 54.5zM301 452q-63 0 -105.5 -35.5t-55.5 -100.5h302q-2 55 -40 95.5t-101 40.5z" />
    <glyph glyph-name="edieresis" unicode="&#xeb;" horiz-adv-x="581" 
d="M205 642q-23 0 -40 16.5t-17 39.5t17 39.5t40 16.5q22 0 39.5 -16.5t17.5 -39.5t-17.5 -39.5t-39.5 -16.5zM401 642q-22 0 -39.5 16.5t-17.5 39.5t17.5 39.5t39.5 16.5q23 0 40 -16.5t17 -39.5t-17 -39.5t-40 -16.5zM538 83q-35 -47 -90.5 -75t-125.5 -28
q-63 0 -114.5 22t-87 59t-54.5 86.5t-19 104.5q0 57 18 107t50.5 86.5t80 57.5t105.5 21q51 0 93 -16.5t71.5 -45.5t45.5 -69.5t16 -87.5q0 -15 -2 -29.5t-4 -24.5h-387q2 -90 54.5 -142t133.5 -52q49 0 88.5 20.5t64.5 54.5zM301 452q-63 0 -105.5 -35.5t-55.5 -100.5h302
q-2 55 -40 95.5t-101 40.5z" />
    <glyph glyph-name="igrave" unicode="&#xec;" horiz-adv-x="265" 
d="M89 584l-117 166h95l104 -166h-82zM90 0v504h85v-504h-85z" />
    <glyph glyph-name="iacute" unicode="&#xed;" horiz-adv-x="265" 
d="M176 584h-83l104 166h96zM90 0v504h85v-504h-85z" />
    <glyph glyph-name="icircumflex" unicode="&#xee;" horiz-adv-x="265" 
d="M48 584h-77l105 166h115l104 -166h-76l-85 126zM90 0v504h85v-504h-85z" />
    <glyph glyph-name="idieresis" unicode="&#xef;" horiz-adv-x="265" 
d="M35 642q-23 0 -40 16.5t-17 39.5t17 39.5t40 16.5q22 0 39.5 -16.5t17.5 -39.5t-17.5 -39.5t-39.5 -16.5zM231 642q-22 0 -39.5 16.5t-17.5 39.5t17.5 39.5t39.5 16.5q23 0 40 -16.5t17 -39.5t-17 -39.5t-40 -16.5zM90 0v504h85v-504h-85z" />
    <glyph glyph-name="eth" unicode="&#xf0;" horiz-adv-x="632" 
d="M147 562v66l122 39q-30 21 -64 42t-74 41h131q25 -12 48 -26t45 -30l176 55v-66l-119 -37q81 -78 127 -174.5t46 -186.5q0 -140 -73 -222.5t-193 -82.5q-61 0 -111.5 21t-86 57t-55 85.5t-19.5 105.5q0 58 19.5 107.5t54 84.5t82.5 55t104 20q45 0 83 -15t68 -41
q-20 41 -52 81t-76 79zM137 249q0 -84 51.5 -136.5t129.5 -52.5q82 0 130.5 57.5t48.5 163.5q0 12 -0.5 24t-1.5 24q-28 47 -75.5 76.5t-104.5 29.5q-77 0 -127.5 -52t-50.5 -134z" />
    <glyph glyph-name="ntilde" unicode="&#xf1;" horiz-adv-x="621" 
d="M496 750v-52q0 -51 -23.5 -86t-69.5 -35q-37 0 -59 18t-38 40t-30 40t-34 18q-16 0 -24.5 -14t-8.5 -35v-60h-64v55q0 51 23.5 84.5t68.5 33.5q37 0 59.5 -18t38.5 -40t30 -40t34 -18q16 0 24.5 14t8.5 35v60h64zM90 0v504h85v-57q31 34 71.5 55.5t96.5 21.5
q84 0 140.5 -56t56.5 -163v-305h-85v302q0 67 -35.5 104.5t-93.5 37.5q-54 0 -90.5 -27.5t-60.5 -67.5v-349h-85z" />
    <glyph glyph-name="ograve" unicode="&#xf2;" horiz-adv-x="640" 
d="M276 584l-117 166h95l104 -166h-82zM320 524q60 0 110.5 -22t86.5 -59t56 -86.5t20 -104.5t-20 -104.5t-56 -86.5t-86.5 -59t-110.5 -22q-61 0 -111.5 22t-86 59t-55.5 86.5t-20 104.5t20 104.5t55.5 86.5t86 59t111.5 22zM321 60q39 0 72.5 15.5t58 41.5t38 61t13.5 74
t-13.5 74t-38 61t-58 41.5t-72.5 15.5q-40 0 -74.5 -15.5t-58.5 -41.5t-38 -61t-14 -74t14 -74t38 -61t58.5 -41.5t74.5 -15.5z" />
    <glyph glyph-name="oacute" unicode="&#xf3;" horiz-adv-x="640" 
d="M363 584h-83l104 166h96zM320 524q60 0 110.5 -22t86.5 -59t56 -86.5t20 -104.5t-20 -104.5t-56 -86.5t-86.5 -59t-110.5 -22q-61 0 -111.5 22t-86 59t-55.5 86.5t-20 104.5t20 104.5t55.5 86.5t86 59t111.5 22zM321 60q39 0 72.5 15.5t58 41.5t38 61t13.5 74t-13.5 74
t-38 61t-58 41.5t-72.5 15.5q-40 0 -74.5 -15.5t-58.5 -41.5t-38 -61t-14 -74t14 -74t38 -61t58.5 -41.5t74.5 -15.5z" />
    <glyph glyph-name="ocircumflex" unicode="&#xf4;" horiz-adv-x="640" 
d="M235 584h-77l105 166h115l104 -166h-76l-85 126zM320 524q60 0 110.5 -22t86.5 -59t56 -86.5t20 -104.5t-20 -104.5t-56 -86.5t-86.5 -59t-110.5 -22q-61 0 -111.5 22t-86 59t-55.5 86.5t-20 104.5t20 104.5t55.5 86.5t86 59t111.5 22zM321 60q39 0 72.5 15.5t58 41.5
t38 61t13.5 74t-13.5 74t-38 61t-58 41.5t-72.5 15.5q-40 0 -74.5 -15.5t-58.5 -41.5t-38 -61t-14 -74t14 -74t38 -61t58.5 -41.5t74.5 -15.5z" />
    <glyph glyph-name="otilde" unicode="&#xf5;" horiz-adv-x="640" 
d="M495 750v-52q0 -51 -23.5 -86t-69.5 -35q-37 0 -59 18t-38 40t-30 40t-34 18q-16 0 -24.5 -14t-8.5 -35v-60h-64v55q0 51 23.5 84.5t68.5 33.5q37 0 59.5 -18t38.5 -40t30 -40t34 -18q16 0 24.5 14t8.5 35v60h64zM320 524q60 0 110.5 -22t86.5 -59t56 -86.5t20 -104.5
t-20 -104.5t-56 -86.5t-86.5 -59t-110.5 -22q-61 0 -111.5 22t-86 59t-55.5 86.5t-20 104.5t20 104.5t55.5 86.5t86 59t111.5 22zM321 60q39 0 72.5 15.5t58 41.5t38 61t13.5 74t-13.5 74t-38 61t-58 41.5t-72.5 15.5q-40 0 -74.5 -15.5t-58.5 -41.5t-38 -61t-14 -74t14 -74
t38 -61t58.5 -41.5t74.5 -15.5z" />
    <glyph glyph-name="odieresis" unicode="&#xf6;" horiz-adv-x="640" 
d="M222 642q-23 0 -40 16.5t-17 39.5t17 39.5t40 16.5q22 0 39.5 -16.5t17.5 -39.5t-17.5 -39.5t-39.5 -16.5zM418 642q-22 0 -39.5 16.5t-17.5 39.5t17.5 39.5t39.5 16.5q23 0 40 -16.5t17 -39.5t-17 -39.5t-40 -16.5zM320 524q60 0 110.5 -22t86.5 -59t56 -86.5t20 -104.5
t-20 -104.5t-56 -86.5t-86.5 -59t-110.5 -22q-61 0 -111.5 22t-86 59t-55.5 86.5t-20 104.5t20 104.5t55.5 86.5t86 59t111.5 22zM321 60q39 0 72.5 15.5t58 41.5t38 61t13.5 74t-13.5 74t-38 61t-58 41.5t-72.5 15.5q-40 0 -74.5 -15.5t-58.5 -41.5t-38 -61t-14 -74t14 -74
t38 -61t58.5 -41.5t74.5 -15.5z" />
    <glyph glyph-name="divide" unicode="&#xf7;" 
d="M299 412q-22 0 -37.5 15.5t-15.5 37.5t15.5 37.5t37.5 15.5t38 -15.5t16 -37.5t-16 -37.5t-38 -15.5zM552 215h-504v74h504v-74zM299 -15q-22 0 -37.5 15.5t-15.5 37.5t15.5 37.5t37.5 15.5t38 -15.5t16 -37.5t-16 -37.5t-38 -15.5z" />
    <glyph glyph-name="oslash" unicode="&#xf8;" horiz-adv-x="640" 
d="M136 -20h-89l70 86q-33 37 -51.5 85t-18.5 101q0 55 20 104.5t55.5 86.5t86 59t111.5 22q43 0 81 -11.5t69 -30.5l34 42h89l-71 -86q34 -37 52.5 -85t18.5 -101q0 -55 -20 -104.5t-56 -86.5t-86.5 -59t-110.5 -22q-43 0 -81 11t-69 31zM136 252q0 -34 10.5 -65t29.5 -56
l238 287q-20 13 -44 19.5t-49 6.5q-40 0 -74.5 -15.5t-58.5 -41.5t-38 -61t-14 -74zM321 60q39 0 72.5 15.5t58 41.5t38 61t13.5 74q0 34 -10 65t-29 56l-238 -287q21 -13 45 -19.5t50 -6.5z" />
    <glyph glyph-name="ugrave" unicode="&#xf9;" horiz-adv-x="604" 
d="M258 584l-117 166h95l104 -166h-82zM441 216v288h85v-285q0 -113 -61 -176t-163 -63q-101 0 -162 63t-61 176v285h85v-288q0 -74 37.5 -115t101.5 -41q63 0 100.5 41t37.5 115z" />
    <glyph glyph-name="uacute" unicode="&#xfa;" horiz-adv-x="604" 
d="M345 584h-83l104 166h96zM441 216v288h85v-285q0 -113 -61 -176t-163 -63q-101 0 -162 63t-61 176v285h85v-288q0 -74 37.5 -115t101.5 -41q63 0 100.5 41t37.5 115z" />
    <glyph glyph-name="ucircumflex" unicode="&#xfb;" horiz-adv-x="604" 
d="M217 584h-77l105 166h115l104 -166h-76l-85 126zM441 216v288h85v-285q0 -113 -61 -176t-163 -63q-101 0 -162 63t-61 176v285h85v-288q0 -74 37.5 -115t101.5 -41q63 0 100.5 41t37.5 115z" />
    <glyph glyph-name="udieresis" unicode="&#xfc;" horiz-adv-x="604" 
d="M204 642q-23 0 -40 16.5t-17 39.5t17 39.5t40 16.5q22 0 39.5 -16.5t17.5 -39.5t-17.5 -39.5t-39.5 -16.5zM400 642q-22 0 -39.5 16.5t-17.5 39.5t17.5 39.5t39.5 16.5q23 0 40 -16.5t17 -39.5t-17 -39.5t-40 -16.5zM441 216v288h85v-285q0 -113 -61 -176t-163 -63
q-101 0 -162 63t-61 176v285h85v-288q0 -74 37.5 -115t101.5 -41q63 0 100.5 41t37.5 115z" />
    <glyph glyph-name="yacute" unicode="&#xfd;" horiz-adv-x="549" 
d="M317 584h-83l104 166h96zM269 -122q-26 -63 -70.5 -95.5t-107.5 -32.5q-25 0 -45 4t-36 12v76q14 -7 31 -10.5t35 -3.5q38 0 68 17.5t49 63.5l39 92l-218 503h94l169 -395l167 395h90z" />
    <glyph glyph-name="thorn" unicode="&#xfe;" horiz-adv-x="660" 
d="M90 -246v996h85v-302q34 37 79.5 56.5t99.5 19.5q59 0 107 -22t81.5 -59t52 -86.5t18.5 -104.5t-18.5 -104.5t-52 -86.5t-81.5 -59t-107 -22q-54 0 -99.5 19.5t-79.5 56.5v-302h-85zM175 156q29 -46 73 -71t96 -25q40 0 73.5 15t57 41t36.5 61t13 75t-13 75t-36.5 61
t-57 41t-73.5 15q-52 0 -96 -25t-73 -71v-192z" />
    <glyph glyph-name="ydieresis" unicode="&#xff;" horiz-adv-x="549" 
d="M176 642q-23 0 -40 16.5t-17 39.5t17 39.5t40 16.5q22 0 39.5 -16.5t17.5 -39.5t-17.5 -39.5t-39.5 -16.5zM372 642q-22 0 -39.5 16.5t-17.5 39.5t17.5 39.5t39.5 16.5q23 0 40 -16.5t17 -39.5t-17 -39.5t-40 -16.5zM269 -122q-26 -63 -70.5 -95.5t-107.5 -32.5
q-25 0 -45 4t-36 12v76q14 -7 31 -10.5t35 -3.5q38 0 68 17.5t49 63.5l39 92l-218 503h94l169 -395l167 395h90z" />
    <glyph glyph-name="Amacron" unicode="&#x100;" horiz-adv-x="738" 
d="M214 809v64h310v-64h-310zM27 0l279 700h126l279 -700h-100l-81 206h-322l-81 -206h-100zM239 287h260l-130 331z" />
    <glyph glyph-name="amacron" unicode="&#x101;" horiz-adv-x="562" 
d="M124 659v65h310v-65h-310zM227 -14q-74 0 -120 38.5t-46 102.5q0 57 42.5 96t122.5 52l170 28v35q0 52 -34 81t-88 29q-43 0 -78 -19t-58 -51l-64 49q33 45 85 71t118 26q96 0 150 -51.5t54 -134.5v-338h-85v63q-28 -37 -73.5 -57t-95.5 -20zM147 130q0 -32 25 -53
t69 -21q50 0 90 23t65 63v99l-149 -25q-51 -9 -75.5 -31.5t-24.5 -54.5z" />
    <glyph glyph-name="Abreve" unicode="&#x102;" horiz-adv-x="738" 
d="M370 811q43 0 68 21t27 63h71q0 -71 -47 -108t-120 -37q-71 0 -118 37t-48 108h71q3 -42 28 -63t68 -21zM27 0l279 700h126l279 -700h-100l-81 206h-322l-81 -206h-100zM239 287h260l-130 331z" />
    <glyph glyph-name="abreve" unicode="&#x103;" horiz-adv-x="562" 
d="M280 645q46 0 69 27t23 78h71q0 -81 -43.5 -123.5t-120.5 -42.5q-75 0 -119.5 42.5t-44.5 123.5h72q0 -51 23.5 -78t69.5 -27zM227 -14q-74 0 -120 38.5t-46 102.5q0 57 42.5 96t122.5 52l170 28v35q0 52 -34 81t-88 29q-43 0 -78 -19t-58 -51l-64 49q33 45 85 71t118 26
q96 0 150 -51.5t54 -134.5v-338h-85v63q-28 -37 -73.5 -57t-95.5 -20zM147 130q0 -32 25 -53t69 -21q50 0 90 23t65 63v99l-149 -25q-51 -9 -75.5 -31.5t-24.5 -54.5z" />
    <glyph glyph-name="Aogonek" unicode="&#x104;" horiz-adv-x="738" 
d="M27 0l279 700h126l279 -700h-11l-45 -30q-49 -36 -67 -58.5t-18 -44.5q0 -26 16.5 -39t43.5 -13q22 0 40 4.5t30 10.5v-61q-13 -6 -34 -10.5t-47 -4.5q-60 0 -90 32t-30 71q0 35 24 68.5t73 66.5l14 10l-80 204h-322l-81 -206h-100zM239 287h260l-130 331z" />
    <glyph glyph-name="aogonek" unicode="&#x105;" horiz-adv-x="562" 
d="M227 -14q-74 0 -120 38.5t-46 102.5q0 57 42.5 96t122.5 52l170 28v35q0 52 -34 81t-88 29q-43 0 -78 -19t-58 -51l-64 49q33 45 85 71t118 26q96 0 150 -51.5t54 -134.5v-338l-45 -30q-49 -36 -67 -58.5t-18 -44.5q0 -26 16.5 -39t43.5 -13q22 0 40 4.5t30 10.5v-61
q-13 -6 -34 -10.5t-47 -4.5q-60 0 -90 32t-30 71q0 35 24 68.5t73 66.5l19 13v58q-28 -37 -73.5 -57t-95.5 -20zM147 130q0 -32 25 -53t69 -21q50 0 90 23t65 63v99l-149 -25q-51 -9 -75.5 -31.5t-24.5 -54.5z" />
    <glyph glyph-name="Cacute" unicode="&#x106;" horiz-adv-x="757" 
d="M463 760h-87l113 135h102zM419 68q70 0 126.5 31.5t91.5 82.5l75 -58q-48 -65 -123.5 -104.5t-169.5 -39.5q-82 0 -150 30t-116 80t-75 117.5t-27 142.5t27 142.5t75 117.5t116 80t150 30q94 0 169.5 -40t123.5 -104l-75 -58q-35 51 -91.5 82.5t-126.5 31.5
q-59 0 -109 -22t-86 -60.5t-56 -90t-20 -109.5t20 -109.5t56 -90t86 -60.5t109 -22z" />
    <glyph glyph-name="cacute" unicode="&#x107;" horiz-adv-x="560" 
d="M363 584h-83l104 166h96zM322 60q46 0 83.5 20.5t60.5 53.5l67 -51q-35 -47 -89 -75t-123 -28q-62 0 -113 22t-86.5 59t-55 86.5t-19.5 104.5t19.5 104.5t55 86.5t86.5 59t113 22q68 0 122.5 -28.5t89.5 -74.5l-67 -51q-23 33 -60.5 53.5t-84.5 20.5q-40 0 -74.5 -15
t-58.5 -41t-38 -61t-14 -75t14 -75.5t38.5 -61t58.5 -40.5t75 -15z" />
    <glyph glyph-name="Ccircumflex" unicode="&#x108;" horiz-adv-x="757" 
d="M331 760h-77l113 135h105l112 -135h-77l-88 92zM419 68q70 0 126.5 31.5t91.5 82.5l75 -58q-48 -65 -123.5 -104.5t-169.5 -39.5q-82 0 -150 30t-116 80t-75 117.5t-27 142.5t27 142.5t75 117.5t116 80t150 30q94 0 169.5 -40t123.5 -104l-75 -58q-35 51 -91.5 82.5
t-126.5 31.5q-59 0 -109 -22t-86 -60.5t-56 -90t-20 -109.5t20 -109.5t56 -90t86 -60.5t109 -22z" />
    <glyph glyph-name="ccircumflex" unicode="&#x109;" horiz-adv-x="560" 
d="M235 584h-77l105 166h115l104 -166h-76l-85 126zM322 60q46 0 83.5 20.5t60.5 53.5l67 -51q-35 -47 -89 -75t-123 -28q-62 0 -113 22t-86.5 59t-55 86.5t-19.5 104.5t19.5 104.5t55 86.5t86.5 59t113 22q68 0 122.5 -28.5t89.5 -74.5l-67 -51q-23 33 -60.5 53.5
t-84.5 20.5q-40 0 -74.5 -15t-58.5 -41t-38 -61t-14 -75t14 -75.5t38.5 -61t58.5 -40.5t75 -15z" />
    <glyph glyph-name="Cdotaccent" unicode="&#x10a;" horiz-adv-x="757" 
d="M419 789q-22 0 -38 15.5t-16 37.5t16 37.5t38 15.5t37.5 -15.5t15.5 -37.5t-15.5 -37.5t-37.5 -15.5zM419 68q70 0 126.5 31.5t91.5 82.5l75 -58q-48 -65 -123.5 -104.5t-169.5 -39.5q-82 0 -150 30t-116 80t-75 117.5t-27 142.5t27 142.5t75 117.5t116 80t150 30
q94 0 169.5 -40t123.5 -104l-75 -58q-35 51 -91.5 82.5t-126.5 31.5q-59 0 -109 -22t-86 -60.5t-56 -90t-20 -109.5t20 -109.5t56 -90t86 -60.5t109 -22z" />
    <glyph glyph-name="cdotaccent" unicode="&#x10b;" horiz-adv-x="560" 
d="M320 635q-25 0 -42.5 17.5t-17.5 42.5q0 24 17.5 41.5t42.5 17.5t42.5 -17.5t17.5 -41.5q0 -25 -17.5 -42.5t-42.5 -17.5zM322 60q46 0 83.5 20.5t60.5 53.5l67 -51q-35 -47 -89 -75t-123 -28q-62 0 -113 22t-86.5 59t-55 86.5t-19.5 104.5t19.5 104.5t55 86.5t86.5 59
t113 22q68 0 122.5 -28.5t89.5 -74.5l-67 -51q-23 33 -60.5 53.5t-84.5 20.5q-40 0 -74.5 -15t-58.5 -41t-38 -61t-14 -75t14 -75.5t38.5 -61t58.5 -40.5t75 -15z" />
    <glyph glyph-name="Ccaron" unicode="&#x10c;" horiz-adv-x="757" 
d="M331 895l88 -92l88 92h77l-112 -135h-105l-113 135h77zM419 68q70 0 126.5 31.5t91.5 82.5l75 -58q-48 -65 -123.5 -104.5t-169.5 -39.5q-82 0 -150 30t-116 80t-75 117.5t-27 142.5t27 142.5t75 117.5t116 80t150 30q94 0 169.5 -40t123.5 -104l-75 -58
q-35 51 -91.5 82.5t-126.5 31.5q-59 0 -109 -22t-86 -60.5t-56 -90t-20 -109.5t20 -109.5t56 -90t86 -60.5t109 -22z" />
    <glyph glyph-name="ccaron" unicode="&#x10d;" horiz-adv-x="560" 
d="M235 750l86 -126l85 126h76l-104 -166h-115l-105 166h77zM322 60q46 0 83.5 20.5t60.5 53.5l67 -51q-35 -47 -89 -75t-123 -28q-62 0 -113 22t-86.5 59t-55 86.5t-19.5 104.5t19.5 104.5t55 86.5t86.5 59t113 22q68 0 122.5 -28.5t89.5 -74.5l-67 -51q-23 33 -60.5 53.5
t-84.5 20.5q-40 0 -74.5 -15t-58.5 -41t-38 -61t-14 -75t14 -75.5t38.5 -61t58.5 -40.5t75 -15z" />
    <glyph glyph-name="Dcaron" unicode="&#x10e;" horiz-adv-x="800" 
d="M311 895l88 -92l88 92h77l-112 -135h-105l-113 135h77zM111 0v700h269q82 0 150 -28t116 -76t75 -111.5t27 -134.5t-27 -134.5t-75 -111.5t-116 -76t-150 -28h-269zM382 614h-177v-528h177q58 0 107.5 21t85.5 56.5t56 84t20 102.5q0 55 -20 103.5t-56 84t-85.5 56
t-107.5 20.5z" />
    <glyph glyph-name="dcaron" unicode="&#x10f;" horiz-adv-x="654" 
d="M47 252q0 55 18.5 104.5t52 86.5t81.5 59t107 22q56 0 100.5 -21t78.5 -59v306h85v-750h-85v60q-34 -38 -78.5 -59t-100.5 -21q-59 0 -107 22t-81.5 59t-52 86.5t-18.5 104.5zM676 564h-74l85 186h91zM137 252q0 -40 13 -75t36.5 -61t56.5 -41t73 -15q52 0 96.5 24.5
t72.5 68.5v198q-29 45 -73.5 69t-95.5 24q-40 0 -73 -15t-56.5 -41t-36.5 -61t-13 -75z" />
    <glyph glyph-name="Dcroat" unicode="&#x110;" horiz-adv-x="800" 
d="M111 0v326h-111v64h111v310h269q82 0 150 -28t116 -76t75 -111.5t27 -134.5t-27 -134.5t-75 -111.5t-116 -76t-150 -28h-269zM389 326h-184v-240h177q58 0 107.5 21t85.5 56.5t56 84t20 102.5q0 55 -20 103.5t-56 84t-85.5 56t-107.5 20.5h-177v-224h184v-64z" />
    <glyph glyph-name="dcroat" unicode="&#x111;" horiz-adv-x="659" 
d="M47 252q0 55 18.5 104.5t52 86.5t81.5 59t107 22q56 0 100.5 -21t78.5 -59v142h-200v65h200v99h85v-99h89v-65h-89v-586h-85v60q-34 -38 -78.5 -59t-100.5 -21q-59 0 -107 22t-81.5 59t-52 86.5t-18.5 104.5zM137 252q0 -40 13 -75t36.5 -61t56.5 -41t73 -15
q52 0 96.5 24.5t72.5 68.5v198q-29 45 -73.5 69t-95.5 24q-40 0 -73 -15t-56.5 -41t-36.5 -61t-13 -75z" />
    <glyph glyph-name="Emacron" unicode="&#x112;" horiz-adv-x="563" 
d="M146 809v64h310v-64h-310zM111 0v700h376v-80h-282v-224h242v-79h-242v-237h282v-80h-376z" />
    <glyph glyph-name="emacron" unicode="&#x113;" horiz-adv-x="581" 
d="M148 659v65h310v-65h-310zM538 83q-35 -47 -90.5 -75t-125.5 -28q-63 0 -114.5 22t-87 59t-54.5 86.5t-19 104.5q0 57 18 107t50.5 86.5t80 57.5t105.5 21q51 0 93 -16.5t71.5 -45.5t45.5 -69.5t16 -87.5q0 -15 -2 -29.5t-4 -24.5h-387q2 -90 54.5 -142t133.5 -52
q49 0 88.5 20.5t64.5 54.5zM301 452q-63 0 -105.5 -35.5t-55.5 -100.5h302q-2 55 -40 95.5t-101 40.5z" />
    <glyph glyph-name="Ebreve" unicode="&#x114;" horiz-adv-x="563" 
d="M302 811q43 0 68 21t27 63h71q0 -71 -47 -108t-120 -37q-71 0 -118 37t-48 108h71q3 -42 28 -63t68 -21zM111 0v700h376v-80h-282v-224h242v-79h-242v-237h282v-80h-376z" />
    <glyph glyph-name="ebreve" unicode="&#x115;" horiz-adv-x="581" 
d="M304 645q46 0 69 27t23 78h71q0 -81 -43.5 -123.5t-120.5 -42.5q-75 0 -119.5 42.5t-44.5 123.5h72q0 -51 23.5 -78t69.5 -27zM538 83q-35 -47 -90.5 -75t-125.5 -28q-63 0 -114.5 22t-87 59t-54.5 86.5t-19 104.5q0 57 18 107t50.5 86.5t80 57.5t105.5 21q51 0 93 -16.5
t71.5 -45.5t45.5 -69.5t16 -87.5q0 -15 -2 -29.5t-4 -24.5h-387q2 -90 54.5 -142t133.5 -52q49 0 88.5 20.5t64.5 54.5zM301 452q-63 0 -105.5 -35.5t-55.5 -100.5h302q-2 55 -40 95.5t-101 40.5z" />
    <glyph glyph-name="Edotaccent" unicode="&#x116;" horiz-adv-x="563" 
d="M301 789q-22 0 -38 15.5t-16 37.5t16 37.5t38 15.5t37.5 -15.5t15.5 -37.5t-15.5 -37.5t-37.5 -15.5zM111 0v700h376v-80h-282v-224h242v-79h-242v-237h282v-80h-376z" />
    <glyph glyph-name="edotaccent" unicode="&#x117;" horiz-adv-x="581" 
d="M303 635q-25 0 -42.5 17.5t-17.5 42.5q0 24 17.5 41.5t42.5 17.5t42.5 -17.5t17.5 -41.5q0 -25 -17.5 -42.5t-42.5 -17.5zM538 83q-35 -47 -90.5 -75t-125.5 -28q-63 0 -114.5 22t-87 59t-54.5 86.5t-19 104.5q0 57 18 107t50.5 86.5t80 57.5t105.5 21q51 0 93 -16.5
t71.5 -45.5t45.5 -69.5t16 -87.5q0 -15 -2 -29.5t-4 -24.5h-387q2 -90 54.5 -142t133.5 -52q49 0 88.5 20.5t64.5 54.5zM301 452q-63 0 -105.5 -35.5t-55.5 -100.5h302q-2 55 -40 95.5t-101 40.5z" />
    <glyph glyph-name="Eogonek" unicode="&#x118;" horiz-adv-x="563" 
d="M111 0v700h376v-80h-282v-224h242v-79h-242v-237h282v-80l-45 -30q-49 -36 -67 -58.5t-18 -44.5q0 -26 16.5 -39t43.5 -13q22 0 40 4.5t30 10.5v-61q-13 -6 -34 -10.5t-47 -4.5q-60 0 -90 32t-30 71q0 35 24 68.5t73 66.5l12 8h-284z" />
    <glyph glyph-name="eogonek" unicode="&#x119;" horiz-adv-x="581" 
d="M228 -143q0 32 20 62.5t60 60.5q-60 3 -109 25.5t-82.5 59.5t-51.5 85.5t-18 101.5q0 57 18 107t50.5 86.5t80 57.5t105.5 21q51 0 93 -16.5t71.5 -45.5t45.5 -69.5t16 -87.5q0 -15 -2 -29.5t-4 -24.5h-387q2 -90 54.5 -142t133.5 -52q49 0 88.5 20.5t64.5 54.5l63 -49
q-21 -28 -48.5 -49.5t-61.5 -34.5l-44 -29q-49 -36 -67 -58.5t-18 -44.5q0 -26 16.5 -39t43.5 -13q22 0 40 4.5t30 10.5v-61q-13 -6 -34 -10.5t-47 -4.5q-60 0 -90 32t-30 71zM301 452q-63 0 -105.5 -35.5t-55.5 -100.5h302q-2 55 -40 95.5t-101 40.5z" />
    <glyph glyph-name="Ecaron" unicode="&#x11a;" horiz-adv-x="563" 
d="M213 895l88 -92l88 92h77l-112 -135h-105l-113 135h77zM111 0v700h376v-80h-282v-224h242v-79h-242v-237h282v-80h-376z" />
    <glyph glyph-name="ecaron" unicode="&#x11b;" horiz-adv-x="581" 
d="M218 750l86 -126l85 126h76l-104 -166h-115l-105 166h77zM538 83q-35 -47 -90.5 -75t-125.5 -28q-63 0 -114.5 22t-87 59t-54.5 86.5t-19 104.5q0 57 18 107t50.5 86.5t80 57.5t105.5 21q51 0 93 -16.5t71.5 -45.5t45.5 -69.5t16 -87.5q0 -15 -2 -29.5t-4 -24.5h-387
q2 -90 54.5 -142t133.5 -52q49 0 88.5 20.5t64.5 54.5zM301 452q-63 0 -105.5 -35.5t-55.5 -100.5h302q-2 55 -40 95.5t-101 40.5z" />
    <glyph glyph-name="Gcircumflex" unicode="&#x11c;" horiz-adv-x="809" 
d="M331 760h-77l113 135h105l112 -135h-77l-88 92zM429 68q65 0 118.5 24.5t90.5 65.5v158h-202v81h296v-273q-49 -66 -127 -105t-176 -39q-84 0 -154 30t-119.5 80t-77 117.5t-27.5 142.5t27 142.5t75 117.5t116 80t150 30q94 0 169.5 -40t123.5 -104l-75 -58
q-35 51 -91.5 82.5t-126.5 31.5q-59 0 -109 -22t-86 -60.5t-56 -90t-20 -109.5t21 -109.5t58 -90t89 -60.5t113 -22z" />
    <glyph glyph-name="gcircumflex" unicode="&#x11d;" horiz-adv-x="556" 
d="M181 583h-77l105 166h115l104 -166h-76l-85 126zM32 -91q0 38 19 69.5t56 57.5q-17 13 -26 32.5t-9 39.5q0 30 15.5 54.5t44.5 43.5q-33 25 -51.5 61.5t-18.5 78.5q0 36 14 69t39 57t61.5 38.5t81.5 14.5q28 0 52.5 -5.5t44.5 -15.5h187v-74h-109q10 -19 15.5 -40.5
t5.5 -43.5q0 -36 -13.5 -68.5t-39 -56.5t-62 -38.5t-81.5 -14.5q-19 0 -36.5 3t-33.5 7q-16 -11 -24.5 -24.5t-8.5 -27.5q0 -16 9.5 -26t32.5 -10h144q99 0 147 -44t48 -111q0 -40 -19 -74t-53 -58.5t-81.5 -38.5t-103.5 -14q-111 0 -179 42t-68 117zM259 235
q54 0 84.5 32.5t30.5 78.5t-30.5 79t-84.5 33q-56 0 -86 -33t-30 -79t30 -78.5t86 -32.5zM115 -81q0 -46 44 -72t119 -26q79 0 126 29.5t47 78.5q0 36 -25 61t-92 25h-155q-32 -19 -48 -42.5t-16 -53.5z" />
    <glyph glyph-name="Gbreve" unicode="&#x11e;" horiz-adv-x="809" 
d="M420 811q43 0 68 21t27 63h71q0 -71 -47 -108t-120 -37q-71 0 -118 37t-48 108h71q3 -42 28 -63t68 -21zM429 68q65 0 118.5 24.5t90.5 65.5v158h-202v81h296v-273q-49 -66 -127 -105t-176 -39q-84 0 -154 30t-119.5 80t-77 117.5t-27.5 142.5t27 142.5t75 117.5t116 80
t150 30q94 0 169.5 -40t123.5 -104l-75 -58q-35 51 -91.5 82.5t-126.5 31.5q-59 0 -109 -22t-86 -60.5t-56 -90t-20 -109.5t21 -109.5t58 -90t89 -60.5t113 -22z" />
    <glyph glyph-name="gbreve" unicode="&#x11f;" horiz-adv-x="556" 
d="M267 644q46 0 69 27t23 78h71q0 -81 -43.5 -123.5t-120.5 -42.5q-75 0 -119.5 42.5t-44.5 123.5h72q0 -51 23.5 -78t69.5 -27zM32 -91q0 38 19 69.5t56 57.5q-17 13 -26 32.5t-9 39.5q0 30 15.5 54.5t44.5 43.5q-33 25 -51.5 61.5t-18.5 78.5q0 36 14 69t39 57t61.5 38.5
t81.5 14.5q28 0 52.5 -5.5t44.5 -15.5h187v-74h-109q10 -19 15.5 -40.5t5.5 -43.5q0 -36 -13.5 -68.5t-39 -56.5t-62 -38.5t-81.5 -14.5q-19 0 -36.5 3t-33.5 7q-16 -11 -24.5 -24.5t-8.5 -27.5q0 -16 9.5 -26t32.5 -10h144q99 0 147 -44t48 -111q0 -40 -19 -74t-53 -58.5
t-81.5 -38.5t-103.5 -14q-111 0 -179 42t-68 117zM259 235q54 0 84.5 32.5t30.5 78.5t-30.5 79t-84.5 33q-56 0 -86 -33t-30 -79t30 -78.5t86 -32.5zM115 -81q0 -46 44 -72t119 -26q79 0 126 29.5t47 78.5q0 36 -25 61t-92 25h-155q-32 -19 -48 -42.5t-16 -53.5z" />
    <glyph glyph-name="Gdotaccent" unicode="&#x120;" horiz-adv-x="809" 
d="M419 789q-22 0 -38 15.5t-16 37.5t16 37.5t38 15.5t37.5 -15.5t15.5 -37.5t-15.5 -37.5t-37.5 -15.5zM429 68q65 0 118.5 24.5t90.5 65.5v158h-202v81h296v-273q-49 -66 -127 -105t-176 -39q-84 0 -154 30t-119.5 80t-77 117.5t-27.5 142.5t27 142.5t75 117.5t116 80
t150 30q94 0 169.5 -40t123.5 -104l-75 -58q-35 51 -91.5 82.5t-126.5 31.5q-59 0 -109 -22t-86 -60.5t-56 -90t-20 -109.5t21 -109.5t58 -90t89 -60.5t113 -22z" />
    <glyph glyph-name="gdotaccent" unicode="&#x121;" horiz-adv-x="556" 
d="M266 634q-25 0 -42.5 17.5t-17.5 42.5q0 24 17.5 41.5t42.5 17.5t42.5 -17.5t17.5 -41.5q0 -25 -17.5 -42.5t-42.5 -17.5zM32 -91q0 38 19 69.5t56 57.5q-17 13 -26 32.5t-9 39.5q0 30 15.5 54.5t44.5 43.5q-33 25 -51.5 61.5t-18.5 78.5q0 36 14 69t39 57t61.5 38.5
t81.5 14.5q28 0 52.5 -5.5t44.5 -15.5h187v-74h-109q10 -19 15.5 -40.5t5.5 -43.5q0 -36 -13.5 -68.5t-39 -56.5t-62 -38.5t-81.5 -14.5q-19 0 -36.5 3t-33.5 7q-16 -11 -24.5 -24.5t-8.5 -27.5q0 -16 9.5 -26t32.5 -10h144q99 0 147 -44t48 -111q0 -40 -19 -74t-53 -58.5
t-81.5 -38.5t-103.5 -14q-111 0 -179 42t-68 117zM259 235q54 0 84.5 32.5t30.5 78.5t-30.5 79t-84.5 33q-56 0 -86 -33t-30 -79t30 -78.5t86 -32.5zM115 -81q0 -46 44 -72t119 -26q79 0 126 29.5t47 78.5q0 36 -25 61t-92 25h-155q-32 -19 -48 -42.5t-16 -53.5z" />
    <glyph glyph-name="Gcedilla" unicode="&#x122;" horiz-adv-x="809" 
d="M429 68q65 0 118.5 24.5t90.5 65.5v158h-202v81h296v-273q-49 -66 -127 -105t-176 -39q-84 0 -154 30t-119.5 80t-77 117.5t-27.5 142.5t27 142.5t75 117.5t116 80t150 30q94 0 169.5 -40t123.5 -104l-75 -58q-35 51 -91.5 82.5t-126.5 31.5q-59 0 -109 -22t-86 -60.5
t-56 -90t-20 -109.5t21 -109.5t58 -90t89 -60.5t113 -22zM364 -246h-83l104 166h96z" />
    <glyph glyph-name="gcedilla" unicode="&#x123;" horiz-adv-x="556" 
d="M342 749h83l-104 -166h-96zM32 -91q0 38 19 69.5t56 57.5q-17 13 -26 32.5t-9 39.5q0 30 15.5 54.5t44.5 43.5q-33 25 -51.5 61.5t-18.5 78.5q0 36 14 69t39 57t61.5 38.5t81.5 14.5q28 0 52.5 -5.5t44.5 -15.5h187v-74h-109q10 -19 15.5 -40.5t5.5 -43.5
q0 -36 -13.5 -68.5t-39 -56.5t-62 -38.5t-81.5 -14.5q-19 0 -36.5 3t-33.5 7q-16 -11 -24.5 -24.5t-8.5 -27.5q0 -16 9.5 -26t32.5 -10h144q99 0 147 -44t48 -111q0 -40 -19 -74t-53 -58.5t-81.5 -38.5t-103.5 -14q-111 0 -179 42t-68 117zM259 235q54 0 84.5 32.5
t30.5 78.5t-30.5 79t-84.5 33q-56 0 -86 -33t-30 -79t30 -78.5t86 -32.5zM115 -81q0 -46 44 -72t119 -26q79 0 126 29.5t47 78.5q0 36 -25 61t-92 25h-155q-32 -19 -48 -42.5t-16 -53.5z" />
    <glyph glyph-name="Hcircumflex" unicode="&#x124;" horiz-adv-x="835" 
d="M329 760h-77l113 135h105l112 -135h-77l-88 92zM111 0v700h94v-301h425v301h94v-700h-94v314h-425v-314h-94z" />
    <glyph glyph-name="hcircumflex" unicode="&#x125;" horiz-adv-x="621" 
d="M221 810h-77l113 135h105l112 -135h-77l-88 92zM90 0v750h85v-303q31 34 71.5 55.5t96.5 21.5q84 0 140.5 -56t56.5 -163v-305h-85v302q0 67 -35 104.5t-94 37.5q-55 0 -91 -28t-60 -67v-349h-85z" />
    <glyph glyph-name="Hbar" unicode="&#x126;" horiz-adv-x="835" 
d="M111 0v520h-111v65h111v115h94v-115h425v115h94v-115h111v-65h-111v-520h-94v314h-425v-314h-94zM205 399h425v121h-425v-121z" />
    <glyph glyph-name="hbar" unicode="&#x127;" horiz-adv-x="621" 
d="M90 0v586h-90v65h90v99h85v-99h194v-65h-194v-139q31 34 71.5 55.5t96.5 21.5q84 0 140.5 -56t56.5 -163v-305h-85v302q0 67 -35 104.5t-94 37.5q-55 0 -91 -28t-60 -67v-349h-85z" />
    <glyph glyph-name="Itilde" unicode="&#x128;" horiz-adv-x="316" 
d="M-18 760v44q0 44 26 72.5t69 28.5q29 0 51.5 -14.5t41 -32t34.5 -32t33 -14.5q15 0 23.5 10.5t8.5 29.5v43h64v-43q0 -46 -25.5 -74t-68.5 -28q-30 0 -52.5 14.5t-40.5 32t-33.5 32t-33.5 14.5q-16 0 -24.5 -10.5t-8.5 -29.5v-43h-64zM111 0v700h94v-700h-94z" />
    <glyph glyph-name="itilde" unicode="&#x129;" horiz-adv-x="265" 
d="M308 750v-52q0 -51 -23.5 -86t-69.5 -35q-37 0 -59 18t-38 40t-30 40t-34 18q-16 0 -24.5 -14t-8.5 -35v-60h-64v55q0 51 23.5 84.5t68.5 33.5q37 0 59.5 -18t38.5 -40t30 -40t34 -18q16 0 24.5 14t8.5 35v60h64zM90 0v504h85v-504h-85z" />
    <glyph glyph-name="Imacron" unicode="&#x12a;" horiz-adv-x="316" 
d="M3 809v64h310v-64h-310zM111 0v700h94v-700h-94z" />
    <glyph glyph-name="imacron" unicode="&#x12b;" horiz-adv-x="265" 
d="M-22 659v65h310v-65h-310zM90 0v504h85v-504h-85z" />
    <glyph glyph-name="Ibreve" unicode="&#x12c;" horiz-adv-x="316" 
d="M159 811q43 0 68 21t27 63h71q0 -71 -47 -108t-120 -37q-71 0 -118 37t-48 108h71q3 -42 28 -63t68 -21zM111 0v700h94v-700h-94z" />
    <glyph glyph-name="ibreve" unicode="&#x12d;" horiz-adv-x="265" 
d="M134 645q46 0 69 27t23 78h71q0 -81 -43.5 -123.5t-120.5 -42.5q-75 0 -119.5 42.5t-44.5 123.5h72q0 -51 23.5 -78t69.5 -27zM90 0v504h85v-504h-85z" />
    <glyph glyph-name="Iogonek" unicode="&#x12e;" horiz-adv-x="316" 
d="M-3 -143q0 35 24 68.5t73 66.5l17 11v697h94v-700h-7l-45 -30q-49 -36 -67 -58.5t-18 -44.5q0 -26 16.5 -39t43.5 -13q22 0 40 4.5t30 10.5v-61q-13 -6 -34 -10.5t-47 -4.5q-60 0 -90 32t-30 71z" />
    <glyph glyph-name="iogonek" unicode="&#x12f;" horiz-adv-x="265" 
d="M133 635q-25 0 -42.5 17.5t-17.5 42.5q0 24 17.5 41.5t42.5 17.5t42 -17.5t17 -41.5q0 -25 -17 -42.5t-42 -17.5zM-26 -143q0 35 24 68.5t73 66.5l19 13v499h85v-504l-45 -30q-49 -36 -67 -58.5t-18 -44.5q0 -26 16.5 -39t43.5 -13q22 0 40 4.5t30 10.5v-61
q-13 -6 -34 -10.5t-47 -4.5q-60 0 -90 32t-30 71z" />
    <glyph glyph-name="Idotaccent" unicode="&#x130;" horiz-adv-x="316" 
d="M158 789q-22 0 -38 15.5t-16 37.5t16 37.5t38 15.5t37.5 -15.5t15.5 -37.5t-15.5 -37.5t-37.5 -15.5zM111 0v700h94v-700h-94z" />
    <glyph glyph-name="dotlessi" unicode="&#x131;" horiz-adv-x="265" 
d="M90 0v504h85v-504h-85z" />
    <glyph glyph-name="IJ" unicode="&#x132;" horiz-adv-x="635" 
d="M111 0v700h94v-700h-94zM525 50q0 -113 -53 -163t-145 -50q-14 0 -26.5 1t-22.5 3v84q9 -2 18.5 -3.5t19.5 -1.5q50 0 82.5 26.5t32.5 99.5v654h94v-650z" />
    <glyph glyph-name="ij" unicode="&#x133;" horiz-adv-x="531" 
d="M133 635q-25 0 -42.5 17.5t-17.5 42.5q0 24 17.5 41.5t42.5 17.5t42 -17.5t17 -41.5q0 -25 -17 -42.5t-42 -17.5zM397 635q-25 0 -42.5 17.5t-17.5 42.5q0 24 17.5 41.5t42.5 17.5q24 0 41.5 -17.5t17.5 -41.5q0 -25 -17.5 -42.5t-41.5 -17.5zM90 0v504h85v-504h-85z
M440 -66q0 -96 -45.5 -140t-129.5 -44q-27 0 -48 3.5t-38 10.5v76q13 -6 31.5 -9t43.5 -3q45 0 73 22t28 84v570h85v-570z" />
    <glyph glyph-name="Jcircumflex" unicode="&#x134;" horiz-adv-x="328" 
d="M82 760h-77l113 135h105l112 -135h-77l-88 92zM218 50q0 -113 -53 -163t-145 -50q-14 0 -26.5 1t-22.5 3v84q9 -2 18.5 -3.5t19.5 -1.5q50 0 82.5 26.5t32.5 99.5v654h94v-650z" />
    <glyph glyph-name="jcircumflex" unicode="&#x135;" horiz-adv-x="265" 
d="M48 584h-77l105 166h115l104 -166h-76l-85 126zM175 -66q0 -96 -45.5 -140t-129.5 -44q-27 0 -48 3.5t-38 10.5v76q13 -6 31.5 -9t43.5 -3q45 0 73 22t28 84v570h85v-570z" />
    <glyph glyph-name="Kcedilla" unicode="&#x136;" horiz-adv-x="721" 
d="M111 0v700h94v-353l363 353h118l-297 -290l305 -410h-116l-254 346l-119 -116v-230h-94zM316 -246h-83l104 166h96z" />
    <glyph glyph-name="kcedilla" unicode="&#x137;" horiz-adv-x="546" 
d="M91 0v750h86v-482l237 236h109l-211 -210l215 -294h-105l-171 234l-74 -73v-161h-86zM232 -246h-83l104 166h96z" />
    <glyph glyph-name="kra" unicode="&#x138;" horiz-adv-x="546" 
d="M91 0v504h86v-234l236 234h110l-211 -210l215 -294h-105l-171 234l-74 -73v-161h-86z" />
    <glyph glyph-name="Lacute" unicode="&#x139;" horiz-adv-x="523" 
d="M202 760h-87l113 135h102zM111 0v700h94v-614h282v-86h-376z" />
    <glyph glyph-name="lacute" unicode="&#x13a;" horiz-adv-x="265" 
d="M177 810h-87l113 135h102zM90 0v750h85v-750h-85z" />
    <glyph glyph-name="Lcedilla" unicode="&#x13b;" horiz-adv-x="523" 
d="M111 0v700h94v-614h282v-86h-376zM239 -246h-83l104 166h96z" />
    <glyph glyph-name="lcedilla" unicode="&#x13c;" horiz-adv-x="265" 
d="M90 0v750h85v-750h-85zM68 -246h-83l104 166h96z" />
    <glyph glyph-name="Lcaron" unicode="&#x13d;" horiz-adv-x="523" 
d="M111 0v700h94v-614h282v-86h-376zM324 514h-74l85 186h91z" />
    <glyph glyph-name="lcaron" unicode="&#x13e;" horiz-adv-x="265" 
d="M90 0v750h85v-750h-85zM286 564h-74l85 186h91z" />
    <glyph glyph-name="Ldot" unicode="&#x13f;" horiz-adv-x="523" 
d="M111 0v700h94v-614h282v-86h-376zM419 325q-27 0 -46 18.5t-19 44.5t19 45t46 19t45.5 -19t18.5 -45t-18.5 -44.5t-45.5 -18.5z" />
    <glyph glyph-name="ldot" unicode="&#x140;" horiz-adv-x="352" 
d="M90 0v750h85v-750h-85zM309 192q-27 0 -46 18.5t-19 44.5t19 45t46 19t45.5 -19t18.5 -45t-18.5 -44.5t-45.5 -18.5z" />
    <glyph glyph-name="Lslash" unicode="&#x141;" horiz-adv-x="523" 
d="M111 0v269l-111 -58v71l111 59v359h94v-310l164 87v-72l-164 -86v-233h282v-86h-376z" />
    <glyph glyph-name="lslash" unicode="&#x142;" horiz-adv-x="265" 
d="M90 0v341l-90 -48v71l90 48v338h85v-293l90 48v-72l-90 -48v-385h-85z" />
    <glyph glyph-name="Nacute" unicode="&#x143;" horiz-adv-x="835" 
d="M461 760h-87l113 135h102zM111 0v700h123l396 -585v585h94v-700h-123l-396 585v-585h-94z" />
    <glyph glyph-name="nacute" unicode="&#x144;" horiz-adv-x="621" 
d="M364 584h-83l104 166h96zM90 0v504h85v-57q31 34 71.5 55.5t96.5 21.5q84 0 140.5 -56t56.5 -163v-305h-85v302q0 67 -35.5 104.5t-93.5 37.5q-54 0 -90.5 -27.5t-60.5 -67.5v-349h-85z" />
    <glyph glyph-name="Ncedilla" unicode="&#x145;" horiz-adv-x="835" 
d="M111 0v700h123l396 -585v585h94v-700h-123l-396 585v-585h-94zM352 -246h-83l104 166h96z" />
    <glyph glyph-name="ncedilla" unicode="&#x146;" horiz-adv-x="621" 
d="M90 0v504h85v-57q31 34 71.5 55.5t96.5 21.5q84 0 140.5 -56t56.5 -163v-305h-85v302q0 67 -35.5 104.5t-93.5 37.5q-54 0 -90.5 -27.5t-60.5 -67.5v-349h-85zM250 -246h-83l104 166h96z" />
    <glyph glyph-name="Ncaron" unicode="&#x147;" horiz-adv-x="835" 
d="M329 895l88 -92l88 92h77l-112 -135h-105l-113 135h77zM111 0v700h123l396 -585v585h94v-700h-123l-396 585v-585h-94z" />
    <glyph glyph-name="ncaron" unicode="&#x148;" horiz-adv-x="621" 
d="M236 750l86 -126l85 126h76l-104 -166h-115l-105 166h77zM90 0v504h85v-57q31 34 71.5 55.5t96.5 21.5q84 0 140.5 -56t56.5 -163v-305h-85v302q0 67 -35.5 104.5t-93.5 37.5q-54 0 -90.5 -27.5t-60.5 -67.5v-349h-85z" />
    <glyph glyph-name="Eng" unicode="&#x14a;" horiz-adv-x="835" 
d="M111 0v700h127l393 -532v532h94v-668q0 -109 -51.5 -158t-140.5 -49q-16 0 -30 1t-25 4v84q10 -3 20.5 -4.5t23.5 -1.5q46 0 75.5 22.5t33.5 83.5h-1l-425 577v-591h-94z" />
    <glyph glyph-name="eng" unicode="&#x14b;" horiz-adv-x="621" 
d="M175 504v-57q30 34 70 55.5t95 21.5q86 0 143 -56t57 -163v-371q0 -96 -45.5 -140t-129.5 -44q-28 0 -48.5 3.5t-38.5 10.5v76q14 -6 32 -9t43 -3q46 0 73.5 22t27.5 84v368q0 67 -35.5 104.5t-95.5 37.5q-54 0 -89 -28t-59 -67v-349h-85v504h85z" />
    <glyph glyph-name="Omacron" unicode="&#x14c;" horiz-adv-x="837" 
d="M264 809v64h310v-64h-310zM419 720q81 0 149 -30t116 -80t75 -117.5t27 -142.5t-27 -142.5t-75 -117.5t-116 -80t-149 -30q-82 0 -150 30t-116 80t-75 117.5t-27 142.5t27 142.5t75 117.5t116 80t150 30zM419 68q59 0 108.5 22t85.5 60.5t56 90t20 109.5t-20 109.5
t-56 90t-85.5 60.5t-108.5 22t-109 -22t-86 -60.5t-56 -90t-20 -109.5t20 -109.5t56 -90t86 -60.5t109 -22z" />
    <glyph glyph-name="omacron" unicode="&#x14d;" horiz-adv-x="640" 
d="M165 659v65h310v-65h-310zM320 524q60 0 110.5 -22t86.5 -59t56 -86.5t20 -104.5t-20 -104.5t-56 -86.5t-86.5 -59t-110.5 -22q-61 0 -111.5 22t-86 59t-55.5 86.5t-20 104.5t20 104.5t55.5 86.5t86 59t111.5 22zM321 60q39 0 72.5 15.5t58 41.5t38 61t13.5 74t-13.5 74
t-38 61t-58 41.5t-72.5 15.5q-40 0 -74.5 -15.5t-58.5 -41.5t-38 -61t-14 -74t14 -74t38 -61t58.5 -41.5t74.5 -15.5z" />
    <glyph glyph-name="Obreve" unicode="&#x14e;" horiz-adv-x="837" 
d="M420 811q43 0 68 21t27 63h71q0 -71 -47 -108t-120 -37q-71 0 -118 37t-48 108h71q3 -42 28 -63t68 -21zM419 720q81 0 149 -30t116 -80t75 -117.5t27 -142.5t-27 -142.5t-75 -117.5t-116 -80t-149 -30q-82 0 -150 30t-116 80t-75 117.5t-27 142.5t27 142.5t75 117.5
t116 80t150 30zM419 68q59 0 108.5 22t85.5 60.5t56 90t20 109.5t-20 109.5t-56 90t-85.5 60.5t-108.5 22t-109 -22t-86 -60.5t-56 -90t-20 -109.5t20 -109.5t56 -90t86 -60.5t109 -22z" />
    <glyph glyph-name="obreve" unicode="&#x14f;" horiz-adv-x="640" 
d="M321 645q46 0 69 27t23 78h71q0 -81 -43.5 -123.5t-120.5 -42.5q-75 0 -119.5 42.5t-44.5 123.5h72q0 -51 23.5 -78t69.5 -27zM320 524q60 0 110.5 -22t86.5 -59t56 -86.5t20 -104.5t-20 -104.5t-56 -86.5t-86.5 -59t-110.5 -22q-61 0 -111.5 22t-86 59t-55.5 86.5
t-20 104.5t20 104.5t55.5 86.5t86 59t111.5 22zM321 60q39 0 72.5 15.5t58 41.5t38 61t13.5 74t-13.5 74t-38 61t-58 41.5t-72.5 15.5q-40 0 -74.5 -15.5t-58.5 -41.5t-38 -61t-14 -74t14 -74t38 -61t58.5 -41.5t74.5 -15.5z" />
    <glyph glyph-name="Ohungarumlaut" unicode="&#x150;" horiz-adv-x="837" 
d="M361 760h-87l113 135h103zM562 760h-87l113 135h102zM419 720q81 0 149 -30t116 -80t75 -117.5t27 -142.5t-27 -142.5t-75 -117.5t-116 -80t-149 -30q-82 0 -150 30t-116 80t-75 117.5t-27 142.5t27 142.5t75 117.5t116 80t150 30zM419 68q59 0 108.5 22t85.5 60.5t56 90
t20 109.5t-20 109.5t-56 90t-85.5 60.5t-108.5 22t-109 -22t-86 -60.5t-56 -90t-20 -109.5t20 -109.5t56 -90t86 -60.5t109 -22z" />
    <glyph glyph-name="ohungarumlaut" unicode="&#x151;" horiz-adv-x="640" 
d="M269 584h-83l104 166h96zM452 584h-82l103 166h96zM320 524q60 0 110.5 -22t86.5 -59t56 -86.5t20 -104.5t-20 -104.5t-56 -86.5t-86.5 -59t-110.5 -22q-61 0 -111.5 22t-86 59t-55.5 86.5t-20 104.5t20 104.5t55.5 86.5t86 59t111.5 22zM321 60q39 0 72.5 15.5t58 41.5
t38 61t13.5 74t-13.5 74t-38 61t-58 41.5t-72.5 15.5q-40 0 -74.5 -15.5t-58.5 -41.5t-38 -61t-14 -74t14 -74t38 -61t58.5 -41.5t74.5 -15.5z" />
    <glyph glyph-name="OE" unicode="&#x152;" horiz-adv-x="1046" 
d="M419 700h551v-80h-282v-224h242v-79h-242v-237h282v-80h-551q-82 0 -150 28t-116 76t-75 111.5t-27 134.5t27 134.5t75 111.5t116 76t150 28zM417 82h177v536h-177q-58 0 -107.5 -21t-85.5 -57.5t-56 -85.5t-20 -104q0 -56 20 -105t56 -85t85.5 -57t107.5 -21z" />
    <glyph glyph-name="oe" unicode="&#x153;" horiz-adv-x="1046" 
d="M320 524q75 0 132.5 -34t91.5 -88q31 55 86 88.5t127 33.5q51 0 93 -16.5t71.5 -45.5t45.5 -69.5t16 -87.5q0 -15 -2 -29.5t-4 -24.5h-387q2 -90 54.5 -142t133.5 -52q49 0 88.5 20.5t63.5 54.5l64 -49q-35 -47 -91 -75t-125 -28q-79 0 -138.5 35t-93.5 90
q-34 -55 -92.5 -90t-133.5 -35q-61 0 -111.5 22t-86 59t-55.5 86.5t-20 104.5t20 104.5t55.5 86.5t86 59t111.5 22zM755 452q-60 0 -103.5 -34.5t-56.5 -101.5h302q-2 55 -40 95.5t-102 40.5zM321 60q39 0 72.5 15.5t58 41.5t38 61t13.5 74t-13.5 74t-38 61t-58 41.5
t-72.5 15.5q-40 0 -74.5 -15.5t-58.5 -41.5t-38 -61t-14 -74t14 -74t38 -61t58.5 -41.5t74.5 -15.5z" />
    <glyph glyph-name="Racute" unicode="&#x154;" horiz-adv-x="641" 
d="M354 760h-87l113 135h102zM111 0v700h186q105 0 166.5 -53.5t61.5 -143.5q0 -63 -31 -109t-87 -68l226 -326h-111l-203 308q-5 -1 -11 -1h-11h-92v-307h-94zM301 620h-96v-233h96q60 0 93.5 31t33.5 87q0 53 -33.5 84t-93.5 31z" />
    <glyph glyph-name="racute" unicode="&#x155;" horiz-adv-x="397" 
d="M236 584h-83l104 166h96zM90 0v504h85v-63q28 33 63.5 53t83.5 20q12 0 23 -1.5t20 -4.5v-83q-11 3 -23 4.5t-27 1.5q-49 0 -83 -23.5t-57 -61.5v-346h-85z" />
    <glyph glyph-name="Rcedilla" unicode="&#x156;" horiz-adv-x="641" 
d="M111 0v700h186q105 0 166.5 -53.5t61.5 -143.5q0 -63 -31 -109t-87 -68l226 -326h-111l-203 308q-5 -1 -11 -1h-11h-92v-307h-94zM301 620h-96v-233h96q60 0 93.5 31t33.5 87q0 53 -33.5 84t-93.5 31zM287 -246h-83l104 166h96z" />
    <glyph glyph-name="rcedilla" unicode="&#x157;" horiz-adv-x="397" 
d="M90 0v504h85v-63q28 33 63.5 53t83.5 20q12 0 23 -1.5t20 -4.5v-83q-11 3 -23 4.5t-27 1.5q-49 0 -83 -23.5t-57 -61.5v-346h-85zM94 -246h-83l104 166h96z" />
    <glyph glyph-name="Rcaron" unicode="&#x158;" horiz-adv-x="641" 
d="M222 895l88 -92l88 92h77l-112 -135h-105l-113 135h77zM111 0v700h186q105 0 166.5 -53.5t61.5 -143.5q0 -63 -31 -109t-87 -68l226 -326h-111l-203 308q-5 -1 -11 -1h-11h-92v-307h-94zM301 620h-96v-233h96q60 0 93.5 31t33.5 87q0 53 -33.5 84t-93.5 31z" />
    <glyph glyph-name="rcaron" unicode="&#x159;" horiz-adv-x="397" 
d="M108 750l86 -126l85 126h76l-104 -166h-115l-105 166h77zM90 0v504h85v-63q28 33 63.5 53t83.5 20q12 0 23 -1.5t20 -4.5v-83q-11 3 -23 4.5t-27 1.5q-49 0 -83 -23.5t-57 -61.5v-346h-85z" />
    <glyph glyph-name="Sacute" unicode="&#x15a;" horiz-adv-x="588" 
d="M343 760h-87l113 135h102zM58 96l70 64q36 -46 78.5 -70.5t90.5 -24.5q58 0 90.5 31.5t32.5 79.5q0 59 -52 89.5t-114 60.5t-114 74.5t-52 130.5q0 39 15.5 73.5t43 60t65.5 40.5t84 15q73 0 128 -31.5t94 -82.5l-71 -62q-31 44 -68 68t-82 24q-51 0 -82 -29t-31 -74
q0 -59 52 -89t113.5 -59.5t113.5 -74t52 -131.5q0 -45 -16.5 -82t-45.5 -62.5t-69 -39.5t-86 -14q-77 0 -135.5 29.5t-104.5 85.5z" />
    <glyph glyph-name="sacute" unicode="&#x15b;" horiz-adv-x="443" 
d="M270 584h-83l104 166h96zM36 69l60 51q26 -33 58 -51t70 -18q42 0 65 22.5t23 55.5q0 42 -39.5 61.5t-86.5 39.5t-86.5 52t-39.5 98q0 59 46 101.5t118 42.5q54 0 98.5 -23t70.5 -60l-59 -50q-20 28 -48 45t-61 17q-40 0 -61.5 -21t-21.5 -50q0 -42 39.5 -62.5t87 -40
t87 -51t39.5 -95.5q-1 -70 -50.5 -111.5t-119.5 -41.5q-60 0 -107.5 23t-81.5 66z" />
    <glyph glyph-name="Scircumflex" unicode="&#x15c;" horiz-adv-x="588" 
d="M211 760h-77l113 135h105l112 -135h-77l-88 92zM58 96l70 64q36 -46 78.5 -70.5t90.5 -24.5q58 0 90.5 31.5t32.5 79.5q0 59 -52 89.5t-114 60.5t-114 74.5t-52 130.5q0 39 15.5 73.5t43 60t65.5 40.5t84 15q73 0 128 -31.5t94 -82.5l-71 -62q-31 44 -68 68t-82 24
q-51 0 -82 -29t-31 -74q0 -59 52 -89t113.5 -59.5t113.5 -74t52 -131.5q0 -45 -16.5 -82t-45.5 -62.5t-69 -39.5t-86 -14q-77 0 -135.5 29.5t-104.5 85.5z" />
    <glyph glyph-name="scircumflex" unicode="&#x15d;" horiz-adv-x="443" 
d="M142 584h-77l105 166h115l104 -166h-76l-85 126zM36 69l60 51q26 -33 58 -51t70 -18q42 0 65 22.5t23 55.5q0 42 -39.5 61.5t-86.5 39.5t-86.5 52t-39.5 98q0 59 46 101.5t118 42.5q54 0 98.5 -23t70.5 -60l-59 -50q-20 28 -48 45t-61 17q-40 0 -61.5 -21t-21.5 -50
q0 -42 39.5 -62.5t87 -40t87 -51t39.5 -95.5q-1 -70 -50.5 -111.5t-119.5 -41.5q-60 0 -107.5 23t-81.5 66z" />
    <glyph glyph-name="Scedilla" unicode="&#x15e;" horiz-adv-x="588" 
d="M58 96l70 64q36 -46 78.5 -70.5t90.5 -24.5q58 0 90.5 31.5t32.5 79.5q0 59 -52 89.5t-114 60.5t-114 74.5t-52 130.5q0 39 15.5 73.5t43 60t65.5 40.5t84 15q73 0 128 -31.5t94 -82.5l-71 -62q-31 44 -68 68t-82 24q-51 0 -82 -29t-31 -74q0 -59 52 -89t113.5 -59.5
t113.5 -74t52 -131.5q0 -80 -49.5 -131.5t-125.5 -63.5l-40 -48h4q43 0 73.5 -24t30.5 -63q0 -41 -32 -69t-82 -28q-31 0 -58 8.5t-46 25.5l33 47q13 -12 30.5 -20t36.5 -8q22 0 36 11.5t14 31.5t-14 30.5t-39 10.5q-12 0 -21.5 -2.5t-18.5 -6.5l-32 36l52 66q-66 6 -117 35
t-92 79z" />
    <glyph glyph-name="scedilla" unicode="&#x15f;" horiz-adv-x="443" 
d="M36 69l60 51q26 -33 58 -51t70 -18q42 0 65 22.5t23 55.5q0 42 -39.5 61.5t-86.5 39.5t-86.5 52t-39.5 98q0 59 46 101.5t118 42.5q54 0 98.5 -23t70.5 -60l-59 -50q-20 28 -48 45t-61 17q-40 0 -61.5 -21t-21.5 -50q0 -42 39.5 -62.5t87 -40t87 -51t39.5 -95.5
q-1 -62 -40 -101.5t-97 -48.5l-39 -47h4q43 0 73.5 -24t30.5 -63q0 -41 -32 -69t-82 -28q-31 0 -58 8.5t-46 25.5l33 47q13 -12 30.5 -20t36.5 -8q22 0 36 11.5t14 31.5t-14 30.5t-39 10.5q-12 0 -21.5 -2.5t-18.5 -6.5l-32 36l52 67q-46 6 -84 28.5t-66 57.5z" />
    <glyph glyph-name="Scaron" unicode="&#x160;" horiz-adv-x="588" 
d="M211 895l88 -92l88 92h77l-112 -135h-105l-113 135h77zM58 96l70 64q36 -46 78.5 -70.5t90.5 -24.5q58 0 90.5 31.5t32.5 79.5q0 59 -52 89.5t-114 60.5t-114 74.5t-52 130.5q0 39 15.5 73.5t43 60t65.5 40.5t84 15q73 0 128 -31.5t94 -82.5l-71 -62q-31 44 -68 68
t-82 24q-51 0 -82 -29t-31 -74q0 -59 52 -89t113.5 -59.5t113.5 -74t52 -131.5q0 -45 -16.5 -82t-45.5 -62.5t-69 -39.5t-86 -14q-77 0 -135.5 29.5t-104.5 85.5z" />
    <glyph glyph-name="scaron" unicode="&#x161;" horiz-adv-x="443" 
d="M142 750l86 -126l85 126h76l-104 -166h-115l-105 166h77zM36 69l60 51q26 -33 58 -51t70 -18q42 0 65 22.5t23 55.5q0 42 -39.5 61.5t-86.5 39.5t-86.5 52t-39.5 98q0 59 46 101.5t118 42.5q54 0 98.5 -23t70.5 -60l-59 -50q-20 28 -48 45t-61 17q-40 0 -61.5 -21
t-21.5 -50q0 -42 39.5 -62.5t87 -40t87 -51t39.5 -95.5q-1 -70 -50.5 -111.5t-119.5 -41.5q-60 0 -107.5 23t-81.5 66z" />
    <glyph glyph-name="Tcedilla" unicode="&#x162;" horiz-adv-x="629" 
d="M35 614v86h558v-86h-232v-611h1l-1 -1v-2h-2l-53 -64h4q43 0 73.5 -24t30.5 -63q0 -41 -32 -69t-82 -28q-31 0 -58 8.5t-46 25.5l33 47q13 -12 30.5 -20t36.5 -8q22 0 36 11.5t14 31.5t-14 30.5t-39 10.5q-12 0 -21.5 -2.5t-18.5 -6.5l-32 36l66 84h-20v614h-232z" />
    <glyph glyph-name="tcedilla" unicode="&#x163;" horiz-adv-x="424" 
d="M119 169v258h-95v77h95v126h86v-126h175v-77h-175v-258q0 -59 27.5 -80t73.5 -21q25 0 43 3t32 9v-76q-14 -6 -31 -9.5t-37 -4.5l-45 -54h4q43 0 73.5 -24t30.5 -63q0 -41 -32 -69t-82 -28q-31 0 -58 8.5t-46 25.5l33 47q13 -12 30.5 -20t36.5 -8q22 0 36 11.5t14 31.5
t-14 30.5t-39 10.5q-12 0 -21.5 -2.5t-18.5 -6.5l-32 36l61 78q-60 12 -92.5 55t-32.5 120z" />
    <glyph glyph-name="Tcaron" unicode="&#x164;" horiz-adv-x="629" 
d="M227 895l88 -92l88 92h77l-112 -135h-105l-113 135h77zM35 614v86h558v-86h-232v-614h-94v614h-232z" />
    <glyph glyph-name="tcaron" unicode="&#x165;" horiz-adv-x="420" 
d="M315 564h-74l85 186h91zM119 169v258h-95v77h95v126h86v-126h175v-77h-175v-258q0 -59 27.5 -80t73.5 -21q25 0 43 3t32 9v-76q-18 -7 -39 -10.5t-48 -3.5q-84 0 -129.5 43.5t-45.5 135.5z" />
    <glyph glyph-name="Tbar" unicode="&#x166;" horiz-adv-x="629" 
d="M120 286v64h147v264h-232v86h558v-86h-232v-264h147v-64h-147v-286h-94v286h-147z" />
    <glyph glyph-name="tbar" unicode="&#x167;" horiz-adv-x="420" 
d="M119 169v94h-96v65h96v99h-95v77h95v126h86v-126h175v-77h-175v-99h176v-65h-176v-94q0 -59 27.5 -80t73.5 -21q25 0 43 3t32 9v-76q-18 -7 -39 -10.5t-48 -3.5q-84 0 -129.5 43.5t-45.5 135.5z" />
    <glyph glyph-name="Utilde" unicode="&#x168;" horiz-adv-x="725" 
d="M187 760v44q0 44 26 72.5t69 28.5q29 0 51.5 -14.5t41 -32t34.5 -32t33 -14.5q15 0 23.5 10.5t8.5 29.5v43h64v-43q0 -46 -25.5 -74t-68.5 -28q-30 0 -52.5 14.5t-40.5 32t-33.5 32t-33.5 14.5q-16 0 -24.5 -10.5t-8.5 -29.5v-43h-64zM540 258v442h94v-436
q0 -134 -74.5 -209t-196.5 -75t-197 75t-75 209v436h94v-442q0 -90 48.5 -140t129.5 -50q80 0 128.5 50t48.5 140z" />
    <glyph glyph-name="utilde" unicode="&#x169;" horiz-adv-x="604" 
d="M477 750v-52q0 -51 -23.5 -86t-69.5 -35q-37 0 -59 18t-38 40t-30 40t-34 18q-16 0 -24.5 -14t-8.5 -35v-60h-64v55q0 51 23.5 84.5t68.5 33.5q37 0 59.5 -18t38.5 -40t30 -40t34 -18q16 0 24.5 14t8.5 35v60h64zM441 216v288h85v-285q0 -113 -61 -176t-163 -63
q-101 0 -162 63t-61 176v285h85v-288q0 -74 37.5 -115t101.5 -41q63 0 100.5 41t37.5 115z" />
    <glyph glyph-name="Umacron" unicode="&#x16a;" horiz-adv-x="725" 
d="M208 809v64h310v-64h-310zM540 258v442h94v-436q0 -134 -74.5 -209t-196.5 -75t-197 75t-75 209v436h94v-442q0 -90 48.5 -140t129.5 -50q80 0 128.5 50t48.5 140z" />
    <glyph glyph-name="umacron" unicode="&#x16b;" horiz-adv-x="604" 
d="M147 659v65h310v-65h-310zM441 216v288h85v-285q0 -113 -61 -176t-163 -63q-101 0 -162 63t-61 176v285h85v-288q0 -74 37.5 -115t101.5 -41q63 0 100.5 41t37.5 115z" />
    <glyph glyph-name="Ubreve" unicode="&#x16c;" horiz-adv-x="725" 
d="M364 811q43 0 68 21t27 63h71q0 -71 -47 -108t-120 -37q-71 0 -118 37t-48 108h71q3 -42 28 -63t68 -21zM540 258v442h94v-436q0 -134 -74.5 -209t-196.5 -75t-197 75t-75 209v436h94v-442q0 -90 48.5 -140t129.5 -50q80 0 128.5 50t48.5 140z" />
    <glyph glyph-name="ubreve" unicode="&#x16d;" horiz-adv-x="604" 
d="M303 645q46 0 69 27t23 78h71q0 -81 -43.5 -123.5t-120.5 -42.5q-75 0 -119.5 42.5t-44.5 123.5h72q0 -51 23.5 -78t69.5 -27zM441 216v288h85v-285q0 -113 -61 -176t-163 -63q-101 0 -162 63t-61 176v285h85v-288q0 -74 37.5 -115t101.5 -41q63 0 100.5 41t37.5 115z
" />
    <glyph glyph-name="Uring" unicode="&#x16e;" horiz-adv-x="725" 
d="M363 740q-49 0 -86 29t-37 83q0 56 37 85t86 29q50 0 87.5 -29t37.5 -85q0 -54 -37.5 -83t-87.5 -29zM364 791q28 0 47.5 16t19.5 45q0 31 -19.5 47t-47.5 16t-48 -16t-20 -47q0 -29 20 -45t48 -16zM540 258v442h94v-436q0 -134 -74.5 -209t-196.5 -75t-197 75t-75 209
v436h94v-442q0 -90 48.5 -140t129.5 -50q80 0 128.5 50t48.5 140z" />
    <glyph glyph-name="uring" unicode="&#x16f;" horiz-adv-x="604" 
d="M302 556q-49 0 -86 32t-37 85t37 85.5t86 32.5q50 0 87.5 -32.5t37.5 -85.5t-37.5 -85t-87.5 -32zM304 605q29 1 49 19.5t19 49.5t-21.5 49.5t-49.5 17.5q-28 0 -48 -19.5t-19 -50.5t21.5 -49t48.5 -17zM441 216v288h85v-285q0 -113 -61 -176t-163 -63q-101 0 -162 63
t-61 176v285h85v-288q0 -74 37.5 -115t101.5 -41q63 0 100.5 41t37.5 115z" />
    <glyph glyph-name="Uhungarumlaut" unicode="&#x170;" horiz-adv-x="725" 
d="M305 760h-87l113 135h103zM506 760h-87l113 135h102zM540 258v442h94v-436q0 -134 -74.5 -209t-196.5 -75t-197 75t-75 209v436h94v-442q0 -90 48.5 -140t129.5 -50q80 0 128.5 50t48.5 140z" />
    <glyph glyph-name="uhungarumlaut" unicode="&#x171;" horiz-adv-x="604" 
d="M251 584h-83l104 166h96zM434 584h-82l103 166h96zM441 216v288h85v-285q0 -113 -61 -176t-163 -63q-101 0 -162 63t-61 176v285h85v-288q0 -74 37.5 -115t101.5 -41q63 0 100.5 41t37.5 115z" />
    <glyph glyph-name="Uogonek" unicode="&#x172;" horiz-adv-x="725" 
d="M270 -143q0 32 20 62.5t60 60.5q-117 4 -188 78.5t-71 205.5v436h94v-442q0 -90 48.5 -140t129.5 -50q80 0 128.5 50t48.5 140v442h94v-436q0 -104 -45.5 -173.5t-124.5 -95.5l-38 -25q-49 -36 -67 -58.5t-18 -44.5q0 -26 16.5 -39t43.5 -13q22 0 40 4.5t30 10.5v-61
q-13 -6 -34 -10.5t-47 -4.5q-60 0 -90 32t-30 71z" />
    <glyph glyph-name="uogonek" unicode="&#x173;" horiz-adv-x="604" 
d="M197 -143q0 32 20.5 63t60.5 61q-91 7 -145 69.5t-54 168.5v285h85v-288q0 -74 37.5 -115t101.5 -41q63 0 100.5 41t37.5 115v288h85v-285q0 -87 -36.5 -145t-100.5 -80l-36 -24q-49 -36 -67 -58.5t-18 -44.5q0 -26 16.5 -39t43.5 -13q22 0 40 4.5t30 10.5v-61
q-13 -6 -34 -10.5t-47 -4.5q-60 0 -90 32t-30 71z" />
    <glyph glyph-name="Wcircumflex" unicode="&#x174;" horiz-adv-x="1018" 
d="M421 760h-77l113 135h105l112 -135h-77l-88 92zM33 700h94l152 -598l178 598h126l177 -597l153 597h93l-179 -700h-128l-179 600l-179 -600h-128z" />
    <glyph glyph-name="wcircumflex" unicode="&#x175;" horiz-adv-x="802" 
d="M315 584h-77l105 166h115l104 -166h-76l-85 126zM34 504h85l105 -416l118 416h116l119 -417l105 417h85l-127 -504h-119l-120 423l-121 -423h-119z" />
    <glyph glyph-name="Ycircumflex" unicode="&#x176;" horiz-adv-x="676" 
d="M250 760h-77l113 135h105l112 -135h-77l-88 92zM668 700l-283 -386v-314h-94v314l-284 386h113l218 -294l218 294h112z" />
    <glyph glyph-name="ycircumflex" unicode="&#x177;" horiz-adv-x="549" 
d="M189 584h-77l105 166h115l104 -166h-76l-85 126zM269 -122q-26 -63 -70.5 -95.5t-107.5 -32.5q-25 0 -45 4t-36 12v76q14 -7 31 -10.5t35 -3.5q38 0 68 17.5t49 63.5l39 92l-218 503h94l169 -395l167 395h90z" />
    <glyph glyph-name="Ydieresis" unicode="&#x178;" horiz-adv-x="676" 
d="M241 789q-22 0 -38 15.5t-16 37.5t16 37.5t38 15.5t37.5 -15.5t15.5 -37.5t-15.5 -37.5t-37.5 -15.5zM435 789q-22 0 -37.5 15.5t-15.5 37.5t15.5 37.5t37.5 15.5t38 -15.5t16 -37.5t-16 -37.5t-38 -15.5zM668 700l-283 -386v-314h-94v314l-284 386h113l218 -294l218 294
h112z" />
    <glyph glyph-name="Zacute" unicode="&#x179;" horiz-adv-x="668" 
d="M384 760h-87l113 135h102zM55 0v86l434 528h-424v86h538v-86l-434 -528h444v-86h-558z" />
    <glyph glyph-name="zacute" unicode="&#x17a;" horiz-adv-x="505" 
d="M296 584h-83l104 166h96zM49 0v77l297 350h-290v77h394v-77l-298 -350h305v-77h-408z" />
    <glyph glyph-name="Zdotaccent" unicode="&#x17b;" horiz-adv-x="668" 
d="M340 789q-22 0 -38 15.5t-16 37.5t16 37.5t38 15.5t37.5 -15.5t15.5 -37.5t-15.5 -37.5t-37.5 -15.5zM55 0v86l434 528h-424v86h538v-86l-434 -528h444v-86h-558z" />
    <glyph glyph-name="zdotaccent" unicode="&#x17c;" horiz-adv-x="505" 
d="M253 635q-25 0 -42.5 17.5t-17.5 42.5q0 24 17.5 41.5t42.5 17.5t42.5 -17.5t17.5 -41.5q0 -25 -17.5 -42.5t-42.5 -17.5zM49 0v77l297 350h-290v77h394v-77l-298 -350h305v-77h-408z" />
    <glyph glyph-name="Zcaron" unicode="&#x17d;" horiz-adv-x="668" 
d="M252 895l88 -92l88 92h77l-112 -135h-105l-113 135h77zM55 0v86l434 528h-424v86h538v-86l-434 -528h444v-86h-558z" />
    <glyph glyph-name="zcaron" unicode="&#x17e;" horiz-adv-x="505" 
d="M168 750l86 -126l85 126h76l-104 -166h-115l-105 166h77zM49 0v77l297 350h-290v77h394v-77l-298 -350h305v-77h-408z" />
    <glyph glyph-name="Scommaaccent" unicode="&#x218;" horiz-adv-x="588" 
d="M58 96l70 64q36 -46 78.5 -70.5t90.5 -24.5q58 0 90.5 31.5t32.5 79.5q0 59 -52 89.5t-114 60.5t-114 74.5t-52 130.5q0 39 15.5 73.5t43 60t65.5 40.5t84 15q73 0 128 -31.5t94 -82.5l-71 -62q-31 44 -68 68t-82 24q-51 0 -82 -29t-31 -74q0 -59 52 -89t113.5 -59.5
t113.5 -74t52 -131.5q0 -45 -16.5 -82t-45.5 -62.5t-69 -39.5t-86 -14q-77 0 -135.5 29.5t-104.5 85.5zM238 -246h-83l104 166h96z" />
    <glyph glyph-name="scommaaccent" unicode="&#x219;" horiz-adv-x="443" 
d="M36 69l60 51q26 -33 58 -51t70 -18q42 0 65 22.5t23 55.5q0 42 -39.5 61.5t-86.5 39.5t-86.5 52t-39.5 98q0 59 46 101.5t118 42.5q54 0 98.5 -23t70.5 -60l-59 -50q-20 28 -48 45t-61 17q-40 0 -61.5 -21t-21.5 -50q0 -42 39.5 -62.5t87 -40t87 -51t39.5 -95.5
q-1 -70 -50.5 -111.5t-119.5 -41.5q-60 0 -107.5 23t-81.5 66zM157 -246h-83l104 166h96z" />
    <glyph glyph-name="Tcommaaccent" unicode="&#x21a;" horiz-adv-x="629" 
d="M35 614v86h558v-86h-232v-614h-94v614h-232zM250 -246h-83l104 166h96z" />
    <glyph glyph-name="tcommaaccent" unicode="&#x21b;" horiz-adv-x="420" 
d="M119 169v258h-95v77h95v126h86v-126h175v-77h-175v-258q0 -59 27.5 -80t73.5 -21q25 0 43 3t32 9v-76q-18 -7 -39 -10.5t-48 -3.5q-84 0 -129.5 43.5t-45.5 135.5zM206 -246h-83l104 166h96z" />
    <glyph glyph-name="dotlessj" unicode="&#x237;" horiz-adv-x="265" 
d="M175 -66q0 -96 -45.5 -140t-129.5 -44q-27 0 -48 3.5t-38 10.5v76q13 -6 31.5 -9t43.5 -3q45 0 73 22t28 84v570h85v-570z" />
    <glyph glyph-name="circumflex" unicode="&#x2c6;" horiz-adv-x="601" 
d="M215 584h-77l105 166h115l104 -166h-76l-85 126z" />
    <glyph glyph-name="caron" unicode="&#x2c7;" horiz-adv-x="601" 
d="M215 750l86 -126l85 126h76l-104 -166h-115l-105 166h77z" />
    <glyph glyph-name="breve" unicode="&#x2d8;" 
d="M301 645q46 0 69 27t23 78h71q0 -81 -43.5 -123.5t-120.5 -42.5q-75 0 -119.5 42.5t-44.5 123.5h72q0 -51 23.5 -78t69.5 -27z" />
    <glyph glyph-name="dotaccent" unicode="&#x2d9;" 
d="M300 635q-25 0 -42.5 17.5t-17.5 42.5q0 24 17.5 41.5t42.5 17.5t42.5 -17.5t17.5 -41.5q0 -25 -17.5 -42.5t-42.5 -17.5z" />
    <glyph glyph-name="ring" unicode="&#x2da;" 
d="M299 556q-49 0 -86 32t-37 85t37 85.5t86 32.5q50 0 87.5 -32.5t37.5 -85.5t-37.5 -85t-87.5 -32zM301 605q29 1 49 19.5t19 49.5t-21.5 49.5t-49.5 17.5q-28 0 -48 -19.5t-19 -50.5t21.5 -49t48.5 -17z" />
    <glyph glyph-name="ogonek" unicode="&#x2db;" 
d="M199 -143q0 35 24 68.5t73 66.5l36 24l68 -16l-45 -30q-49 -36 -67 -58.5t-18 -44.5q0 -26 16.5 -39t43.5 -13q22 0 40 4.5t30 10.5v-61q-13 -6 -34 -10.5t-47 -4.5q-60 0 -90 32t-30 71z" />
    <glyph glyph-name="tilde" unicode="&#x2dc;" horiz-adv-x="599" 
d="M475 750v-52q0 -51 -23.5 -86t-69.5 -35q-37 0 -59 18t-38 40t-30 40t-34 18q-16 0 -24.5 -14t-8.5 -35v-60h-64v55q0 51 23.5 84.5t68.5 33.5q37 0 59.5 -18t38.5 -40t30 -40t34 -18q16 0 24.5 14t8.5 35v60h64z" />
    <glyph glyph-name="hungarumlaut" unicode="&#x2dd;" 
d="M192 584h-83l104 166h96zM375 584h-82l103 166h96z" />
    <glyph glyph-name="gravecmb" unicode="&#x300;" horiz-adv-x="0" 
d="M-44 584l-117 166h95l104 -166h-82z" />
    <glyph glyph-name="acutecmb" unicode="&#x301;" horiz-adv-x="0" 
d="M43 584h-83l104 166h96z" />
    <glyph glyph-name="circumflexcmb" unicode="&#x302;" horiz-adv-x="0" 
d="M-85 584h-77l105 166h115l104 -166h-76l-85 126z" />
    <glyph glyph-name="tildecmb" unicode="&#x303;" horiz-adv-x="0" 
d="M175 750v-52q0 -51 -23.5 -86t-69.5 -35q-37 0 -59 18t-38 40t-30 40t-34 18q-16 0 -24.5 -14t-8.5 -35v-60h-64v55q0 51 23.5 84.5t68.5 33.5q37 0 59.5 -18t38.5 -40t30 -40t34 -18q16 0 24.5 14t8.5 35v60h64z" />
    <glyph glyph-name="macroncmb" unicode="&#x304;" horiz-adv-x="0" 
d="M-155 659v65h310v-65h-310z" />
    <glyph glyph-name="brevecmb" unicode="&#x306;" horiz-adv-x="0" 
d="M1 645q46 0 69 27t23 78h71q0 -81 -43.5 -123.5t-120.5 -42.5q-75 0 -119.5 42.5t-44.5 123.5h72q0 -51 23.5 -78t69.5 -27z" />
    <glyph glyph-name="dotaccentcmb" unicode="&#x307;" horiz-adv-x="0" 
d="M0 635q-25 0 -42.5 17.5t-17.5 42.5q0 24 17.5 41.5t42.5 17.5t42.5 -17.5t17.5 -41.5q0 -25 -17.5 -42.5t-42.5 -17.5z" />
    <glyph glyph-name="dieresiscmb" unicode="&#x308;" horiz-adv-x="0" 
d="M-98 642q-23 0 -40 16.5t-17 39.5t17 39.5t40 16.5q22 0 39.5 -16.5t17.5 -39.5t-17.5 -39.5t-39.5 -16.5zM98 642q-22 0 -39.5 16.5t-17.5 39.5t17.5 39.5t39.5 16.5q23 0 40 -16.5t17 -39.5t-17 -39.5t-40 -16.5z" />
    <glyph glyph-name="ringabovecmb" unicode="&#x30a;" horiz-adv-x="0" 
d="M0 556q-49 0 -86 32t-37 85t37 85.5t86 32.5q50 0 87.5 -32.5t37.5 -85.5t-37.5 -85t-87.5 -32zM2 605q29 1 49 19.5t19 49.5t-21.5 49.5t-49.5 17.5q-28 0 -48 -19.5t-19 -50.5t21.5 -49t48.5 -17z" />
    <glyph glyph-name="hungarumlautcmb" unicode="&#x30b;" horiz-adv-x="0" 
d="M-51 584h-83l104 166h96zM132 584h-82l103 166h96z" />
    <glyph glyph-name="caroncmb" unicode="&#x30c;" horiz-adv-x="0" 
d="M-85 750l86 -126l85 126h76l-104 -166h-115l-105 166h77z" />
    <glyph glyph-name="commaturnedabovecmb" unicode="&#x312;" horiz-adv-x="0" 
d="M76 750h83l-104 -166h-96z" />
    <glyph glyph-name="commaaccentbelowcmb" unicode="&#x326;" horiz-adv-x="0" 
d="M-65 -246h-83l104 166h96z" />
    <glyph glyph-name="cedillacmb" unicode="&#x327;" horiz-adv-x="0" 
d="M-16 8l69 -5l-56 -67h4q43 0 73.5 -24t30.5 -63q0 -41 -32 -69t-82 -28q-31 0 -58 8.5t-46 25.5l33 47q13 -12 30.5 -20t36.5 -8q22 0 36 11.5t14 31.5t-14 30.5t-39 10.5q-12 0 -21.5 -2.5t-18.5 -6.5l-32 36z" />
    <glyph glyph-name="ogonekcmb" unicode="&#x328;" horiz-adv-x="0" 
d="M-201 -143q0 35 24 68.5t73 66.5l36 24l68 -16l-45 -30q-49 -36 -67 -58.5t-18 -44.5q0 -26 16.5 -39t43.5 -13q22 0 40 4.5t30 10.5v-61q-13 -6 -34 -10.5t-47 -4.5q-60 0 -90 32t-30 71z" />
    <glyph glyph-name="endash" unicode="&#x2013;" horiz-adv-x="540" 
d="M21 293h498v-74h-498v74z" />
    <glyph glyph-name="emdash" unicode="&#x2014;" horiz-adv-x="1080" 
d="M21 293h1038v-74h-1038v74z" />
    <glyph glyph-name="quoteleft" unicode="&#x2018;" horiz-adv-x="270" 
d="M147 700h79l-85 -268h-97z" />
    <glyph glyph-name="quoteright" unicode="&#x2019;" horiz-adv-x="270" 
d="M123 432h-79l85 268h97z" />
    <glyph glyph-name="quotesinglbase" unicode="&#x201a;" horiz-adv-x="270" 
d="M123 -160h-79l85 265h97z" />
    <glyph glyph-name="quotedblleft" unicode="&#x201c;" horiz-adv-x="461" 
d="M147 700h79l-85 -268h-97zM338 700h79l-85 -268h-97z" />
    <glyph glyph-name="quotedblright" unicode="&#x201d;" horiz-adv-x="461" 
d="M123 432h-79l85 268h97zM314 432h-79l85 268h97z" />
    <glyph glyph-name="quotedblbase" unicode="&#x201e;" horiz-adv-x="462" 
d="M123 -160h-79l85 265h97zM314 -160h-79l85 265h97z" />
    <glyph glyph-name="dagger" unicode="&#x2020;" horiz-adv-x="423" 
d="M171 110v412h-155v74h155v154h81v-154h155v-74h-155v-412h-81z" />
    <glyph glyph-name="daggerdbl" unicode="&#x2021;" horiz-adv-x="423" 
d="M171 110v154h-155v74h155v184h-155v74h155v154h81v-154h155v-74h-155v-184h155v-74h-155v-154h-81z" />
    <glyph glyph-name="bullet" unicode="&#x2022;" horiz-adv-x="351" 
d="M177 131q-54 0 -92.5 38t-38.5 90q0 51 38.5 87.5t92.5 36.5t91.5 -36.5t37.5 -87.5q0 -52 -37.5 -90t-91.5 -38z" />
    <glyph glyph-name="ellipsis" unicode="&#x2026;" horiz-adv-x="705" 
d="M136 -11q-27 0 -46 18.5t-19 44.5t19 45t46 19t45.5 -19t18.5 -45t-18.5 -44.5t-45.5 -18.5zM352 -11q-27 0 -45.5 18.5t-18.5 44.5t18.5 45t45.5 19t46 -19t19 -45t-19 -44.5t-46 -18.5zM570 -11q-27 0 -46 18.5t-19 44.5t19 45t46 19t45.5 -19t18.5 -45t-18.5 -44.5
t-45.5 -18.5z" />
    <glyph glyph-name="perthousand" unicode="&#x2030;" horiz-adv-x="1199" 
d="M206 722q37 0 68 -13.5t53.5 -36t34.5 -53t12 -64.5t-12 -64.5t-34.5 -53t-53.5 -36t-68 -13.5q-38 0 -69 13.5t-53 36t-34.5 53t-12.5 64.5t12.5 64.5t34.5 53t53 36t69 13.5zM109 2l513 700h90l-513 -700h-90zM206 448q43 0 72 31.5t29 75.5q0 45 -29 76t-72 31
q-45 0 -73.5 -31t-28.5 -76t28.5 -76t73.5 -31zM618 315q37 0 68 -13.5t53.5 -36t34.5 -53t12 -64.5t-12 -64.5t-34.5 -53t-53.5 -36t-68 -13.5q-38 0 -69 13.5t-53 36t-34.5 53t-12.5 64.5t12.5 64.5t34.5 53t53 36t69 13.5zM994 315q37 0 68 -13.5t53.5 -36t34.5 -53
t12 -64.5t-12 -64.5t-34.5 -53t-53.5 -36t-68 -13.5q-38 0 -69 13.5t-53 36t-34.5 53t-12.5 64.5t12.5 64.5t34.5 53t53 36t69 13.5zM618 41q43 0 72 31.5t29 75.5q0 45 -29 76t-72 31q-45 0 -73.5 -31t-28.5 -76t28.5 -76t73.5 -31zM994 41q43 0 72 31.5t29 75.5
q0 45 -29 76t-72 31q-45 0 -73.5 -31t-28.5 -76t28.5 -76t73.5 -31z" />
    <glyph glyph-name="guilsinglleft" unicode="&#x2039;" horiz-adv-x="327" 
d="M275 48h-92l-132 200l132 200h92l-131 -200z" />
    <glyph glyph-name="guilsinglright" unicode="&#x203a;" horiz-adv-x="327" 
d="M51 448h93l132 -200l-132 -200h-93l131 200z" />
    <glyph glyph-name="fraction" unicode="&#x2044;" horiz-adv-x="221" 
d="M-193 0l513 700h90l-513 -700h-90z" />
    <glyph glyph-name="zerosuperior" unicode="&#x2070;" horiz-adv-x="389" 
d="M194 847q41 0 72 -17.5t51 -48t30 -72t10 -89.5t-10 -89.5t-30 -72t-51 -48t-72 -17.5t-72 17.5t-51 48t-30 72t-10 89.5t10 89.5t30 72t51 48t72 17.5zM194 785q-46 0 -69.5 -46.5t-23.5 -118.5t23.5 -118.5t69.5 -46.5t69.5 46.5t23.5 118.5t-23.5 118.5t-69.5 46.5z
" />
    <glyph glyph-name="i.superior" unicode="&#x2071;" horiz-adv-x="187" 
d="M94 780q-18 0 -31 12.5t-13 30.5q0 17 13 30t31 13q17 0 30 -13t13 -30q0 -18 -13 -30.5t-30 -12.5zM62 405v310h63v-310h-63z" />
    <glyph glyph-name="foursuperior" unicode="&#x2074;" horiz-adv-x="389" 
d="M241 405v120h-202v57l189 253h80v-253h47v-57h-47v-120h-67zM109 582h132v176z" />
    <glyph glyph-name="fivesuperior" unicode="&#x2075;" horiz-adv-x="389" 
d="M71 604l13 231h246v-61h-181l-7 -110h50q72 0 114 -37.5t42 -98.5q0 -63 -43.5 -99t-109.5 -36q-57 0 -97.5 22t-65.5 65l60 37q18 -34 43.5 -49t59.5 -15q36 0 60 20t24 55q0 34 -23.5 54.5t-66.5 20.5h-81z" />
    <glyph glyph-name="sixsuperior" unicode="&#x2076;" horiz-adv-x="389" 
d="M218 847q53 0 87.5 -20t56.5 -51l-52 -42q-18 25 -39.5 38.5t-51.5 13.5q-53 0 -80.5 -41.5t-29.5 -117.5q22 24 50 37t65 13q61 0 98 -40.5t37 -97.5q0 -59 -41 -102.5t-111 -43.5q-81 0 -124.5 56.5t-43.5 165.5q0 104 44.5 168t134.5 64zM210 617q-29 0 -54.5 -13
t-43.5 -38q7 -60 31 -86t63 -26q40 0 61.5 24t21.5 59q0 34 -22 57t-57 23z" />
    <glyph glyph-name="sevensuperior" unicode="&#x2077;" horiz-adv-x="389" 
d="M140 405h-82l219 369h-227v61h303v-61z" />
    <glyph glyph-name="eightsuperior" unicode="&#x2078;" horiz-adv-x="389" 
d="M194 847q68 0 104 -34t36 -80q0 -29 -15.5 -54t-45.5 -40q39 -15 60 -45.5t21 -68.5q0 -56 -42 -94t-118 -38q-75 0 -117.5 38t-42.5 94q0 38 21 68.5t60 45.5q-30 15 -45.5 40t-15.5 54q0 46 36.5 80t103.5 34zM195 665q31 0 50.5 17t19.5 45t-19.5 45t-50.5 17
q-33 0 -52 -17t-19 -45t19 -45t52 -17zM195 452q40 0 65 21t25 55t-25 56.5t-65 22.5q-41 0 -66 -22.5t-25 -56.5t25 -55t66 -21z" />
    <glyph glyph-name="ninesuperior" unicode="&#x2079;" horiz-adv-x="389" 
d="M176 393q-52 0 -86.5 20t-56.5 51l51 42q19 -25 40 -38.5t51 -13.5q54 0 81.5 42t29.5 118q-22 -25 -50 -38t-65 -13q-62 0 -98.5 40.5t-36.5 97.5q0 59 40.5 102.5t111.5 43.5q81 0 124 -56.5t43 -165.5q0 -104 -44.5 -168t-134.5 -64zM105 703q0 -34 22 -57t57 -23
q31 0 57.5 13.5t41.5 38.5q-7 60 -32 85.5t-63 25.5q-39 0 -61 -24t-22 -59z" />
    <glyph glyph-name="n.superior" unicode="&#x207f;" horiz-adv-x="399" 
d="M62 405v310h63v-30q17 18 41 30t57 12q51 0 86 -35t35 -101v-186h-64v184q0 37 -19.5 57.5t-51.5 20.5t-51.5 -17t-32.5 -36v-209h-63z" />
    <glyph glyph-name="zeroinferior" unicode="&#x2080;" horiz-adv-x="389" 
d="M194 307q41 0 72 -17.5t51 -48t30 -72t10 -89.5t-10 -89.5t-30 -72t-51 -48t-72 -17.5t-72 17.5t-51 48t-30 72t-10 89.5t10 89.5t30 72t51 48t72 17.5zM194 245q-46 0 -69.5 -46.5t-23.5 -118.5t23.5 -118.5t69.5 -46.5t69.5 46.5t23.5 118.5t-23.5 118.5t-69.5 46.5z
" />
    <glyph glyph-name="oneinferior" unicode="&#x2081;" horiz-adv-x="389" 
d="M59 -135v61h118v300l-106 -57l-34 49l142 77h66v-369h106v-61h-292z" />
    <glyph glyph-name="twoinferior" unicode="&#x2082;" horiz-adv-x="389" 
d="M49 -135v61l147 148q28 30 46 52.5t18 56.5q0 30 -19.5 47t-49.5 17q-32 0 -54 -17t-40 -47l-55 34q26 42 63 66t90 24q57 0 95.5 -32.5t38.5 -86.5q0 -46 -25.5 -81t-59.5 -70l-113 -111h210v-61h-292z" />
    <glyph glyph-name="threeinferior" unicode="&#x2083;" horiz-adv-x="389" 
d="M189 247q-28 0 -48.5 -14t-34.5 -39l-56 33q23 38 58.5 59t84.5 21q57 0 95 -31.5t38 -82.5q0 -31 -13.5 -55.5t-39.5 -40.5q35 -16 54 -45.5t19 -65.5q0 -61 -43.5 -97t-110.5 -36q-57 0 -97 22t-65 65l59 37q19 -34 44 -49t59 -15q36 0 60 20t24 55q0 34 -22.5 54.5
t-61.5 20.5h-72v60h64q33 0 53 17.5t20 45.5q0 29 -19.5 45t-48.5 16z" />
    <glyph glyph-name="fourinferior" unicode="&#x2084;" horiz-adv-x="389" 
d="M39 -15v57l189 253h80v-253h47v-57h-47v-120h-67v120h-202zM109 42h132v176z" />
    <glyph glyph-name="fiveinferior" unicode="&#x2085;" horiz-adv-x="389" 
d="M71 64l13 231h246v-61h-181l-7 -110h50q72 0 114 -37.5t42 -98.5q0 -63 -43.5 -99t-109.5 -36q-57 0 -97.5 22t-65.5 65l60 37q18 -34 43.5 -49t59.5 -15q36 0 60 20t24 55q0 34 -23.5 54.5t-66.5 20.5h-81z" />
    <glyph glyph-name="sixinferior" unicode="&#x2086;" horiz-adv-x="389" 
d="M218 307q53 0 87.5 -20t56.5 -51l-52 -42q-18 25 -39.5 38.5t-51.5 13.5q-53 0 -80.5 -41.5t-29.5 -117.5q22 24 50 37t65 13q61 0 98 -40.5t37 -97.5q0 -59 -41 -102.5t-111 -43.5q-81 0 -124.5 56.5t-43.5 165.5q0 104 44.5 168t134.5 64zM210 77q-29 0 -54.5 -13
t-43.5 -38q7 -60 31 -86t63 -26q40 0 61.5 24t21.5 59q0 34 -22 57t-57 23z" />
    <glyph glyph-name="seveninferior" unicode="&#x2087;" horiz-adv-x="389" 
d="M140 -135h-82l219 369h-227v61h303v-61z" />
    <glyph glyph-name="eightinferior" unicode="&#x2088;" horiz-adv-x="389" 
d="M194 307q68 0 104 -34t36 -80q0 -29 -15.5 -54t-45.5 -40q39 -15 60 -45.5t21 -68.5q0 -56 -42 -94t-118 -38q-75 0 -117.5 38t-42.5 94q0 38 21 68.5t60 45.5q-30 15 -45.5 40t-15.5 54q0 46 36.5 80t103.5 34zM195 125q31 0 50.5 17t19.5 45t-19.5 45t-50.5 17
q-33 0 -52 -17t-19 -45t19 -45t52 -17zM195 -88q40 0 65 21t25 55t-25 56.5t-65 22.5q-41 0 -66 -22.5t-25 -56.5t25 -55t66 -21z" />
    <glyph glyph-name="nineinferior" unicode="&#x2089;" horiz-adv-x="389" 
d="M176 -147q-52 0 -86.5 20t-56.5 51l51 42q19 -25 40 -38.5t51 -13.5q54 0 81.5 42t29.5 118q-22 -25 -50 -38t-65 -13q-62 0 -98.5 40.5t-36.5 97.5q0 59 40.5 102.5t111.5 43.5q81 0 124 -56.5t43 -165.5q0 -104 -44.5 -168t-134.5 -64zM105 163q0 -34 22 -57t57 -23
q31 0 57.5 13.5t41.5 38.5q-7 60 -32 85.5t-63 25.5q-39 0 -61 -24t-22 -59z" />
    <glyph glyph-name="Euro" unicode="&#x20ac;" 
d="M21 232v74h84q-1 10 -1 21.5v23.5v19.5t1 18.5h-84v74h91q19 129 84.5 193t166.5 64q71 0 121.5 -28t84.5 -74l-68 -53q-23 33 -55 54t-81 21q-61 0 -103.5 -40.5t-57.5 -136.5h281v-74h-288q-1 -9 -1 -18.5v-19.5v-23.5t1 -21.5h288v-74h-280q16 -93 58 -132.5
t102 -39.5q48 0 80.5 21t55.5 54l68 -52q-34 -46 -84.5 -74.5t-121.5 -28.5q-100 0 -165 62.5t-85 189.5h-92z" />
    <glyph glyph-name="numero" unicode="&#x2116;" horiz-adv-x="1230" 
d="M1013 727q37 0 68 -13.5t53.5 -36t34.5 -53t12 -64.5t-12 -64.5t-34.5 -53t-53.5 -36t-68 -13.5q-38 0 -69 13.5t-53 36t-34.5 53t-12.5 64.5t12.5 64.5t34.5 53t53 36t69 13.5zM111 0v700h123l396 -585v585h94v-700h-123l-396 585v-585h-94zM1013 453q43 0 72 31.5
t29 75.5q0 45 -29 76t-72 31q-45 0 -73.5 -31t-28.5 -76t28.5 -76t73.5 -31zM868 258v61h290v-61h-290z" />
    <glyph glyph-name="trademark" unicode="&#x2122;" horiz-adv-x="956" 
d="M31 635v65h347v-65h-139v-365h-71v365h-137zM462 270v430h90l119 -197l119 197h90v-430h-71v329l-112 -182h-52l-113 184v-331h-70z" />
    <glyph glyph-name="arrowleft" unicode="&#x2190;" horiz-adv-x="794" 
d="M333 64l-296 296l297 298l52 -53l-212 -208h583v-74h-581l210 -207z" />
    <glyph glyph-name="arrowup" unicode="&#x2191;" horiz-adv-x="794" 
d="M359 0v579l-207 -207l-52 52l296 296l298 -297l-53 -52l-208 208v-579h-74z" />
    <glyph glyph-name="arrowright" unicode="&#x2192;" horiz-adv-x="794" 
d="M37 398h579l-207 207l52 52l296 -296l-297 -298l-52 53l208 208h-579v74z" />
    <glyph glyph-name="arrowdown" unicode="&#x2193;" horiz-adv-x="794" 
d="M694 276l-297 -296l-297 297l52 52l209 -209v580h74v-578l206 206z" />
    <glyph glyph-name="arrowNW" unicode="&#x2196;" horiz-adv-x="794" 
d="M142 196v419h421v-74h-296l410 -410l-53 -51l-408 408v-292h-74z" />
    <glyph glyph-name="arrowNE" unicode="&#x2197;" horiz-adv-x="794" 
d="M194 80l-52 51l410 410h-296v74h421v-419h-74v292z" />
    <glyph glyph-name="arrowSE" unicode="&#x2198;" horiz-adv-x="794" 
d="M194 615l409 -408v291h74v-418h-421v74h296l-410 409z" />
    <glyph glyph-name="arrowSW" unicode="&#x2199;" horiz-adv-x="794" 
d="M142 498h74v-291l408 408l53 -52l-410 -409h296v-74h-421v418z" />
    <glyph glyph-name="minus" unicode="&#x2212;" 
d="M552 215h-504v74h504v-74z" />
    <glyph glyph-name="radical" unicode="&#x221a;" 
d="M120 398l123 -322l235 624h82l-266 -700h-102l-152 398h80z" />
    <glyph glyph-name="integral" unicode="&#x222b;" horiz-adv-x="388" 
d="M236 -66q0 -81 -49 -132.5t-130 -51.5q-41 0 -74.5 13.5t-55.5 35.5l53 62q13 -15 31.5 -24.5t44.5 -9.5q41 0 68 28t27 77v634q0 81 49 132.5t130 51.5q42 0 75 -13.5t55 -35.5l-53 -62q-13 15 -31.5 24.5t-44.5 9.5q-41 0 -68 -28t-27 -77v-634z" />
    <glyph glyph-name="approxequal" unicode="&#x2248;" 
d="M123 278h-74v29q0 58 35 96t94 38q42 0 74 -16t59 -35t52.5 -35t53.5 -16q29 0 45 18t16 52v21h74v-28q0 -58 -35 -96t-95 -38q-42 0 -74 16t-59 35t-52.5 35t-53.5 16q-29 0 -44.5 -18t-15.5 -52v-22zM123 85h-74v29q0 58 35 96t94 38q42 0 74 -16t59 -35t52.5 -35
t53.5 -16q29 0 45 18t16 52v21h74v-28q0 -59 -35 -97t-95 -38q-42 0 -74 16t-59 35t-52.5 35t-53.5 16q-29 0 -44.5 -17.5t-15.5 -51.5v-22z" />
    <glyph glyph-name="notequal" unicode="&#x2260;" 
d="M552 107h-331l-89 -107h-84l89 107h-89v74h150l119 142h-269v74h330l89 107h85l-89 -107h89v-74h-151l-118 -142h269v-74z" />
    <glyph glyph-name="lessequal" unicode="&#x2264;" 
d="M552 105l-504 209v86l504 209v-80l-423 -172l423 -172v-80zM552 0h-504v74h504v-74z" />
    <glyph glyph-name="greaterequal" unicode="&#x2265;" 
d="M48 185l423 172l-423 172v80l504 -209v-86l-504 -209v80zM48 0v74h504v-74h-504z" />
    <glyph glyph-name="lozenge" unicode="&#x25ca;" 
d="M257 0l-179 350l179 350h85l179 -350l-179 -350h-85zM157 350l143 -280l142 280l-142 280z" />
    <glyph glyph-name="circledotted" unicode="&#x25cc;" horiz-adv-x="604" 
d="M302 -10q-54 0 -102 21t-83 56t-56 83t-21 102t21 102t56 83t83 56t102 21t102 -21t83 -56t56 -83t21 -102t-21 -102t-56 -83t-83 -56t-102 -21zM302 504q-52 0 -98 -20t-80 -54t-54 -80t-20 -98t20 -98t54 -80t80 -54t98 -20t98 20t80 54t54 80t20 98t-20 98t-54 80
t-80 54t-98 20z" />
    <glyph glyph-name="Ccedilla.1" horiz-adv-x="757" 
d="M419 68q70 0 126.5 31.5t91.5 82.5l75 -58q-44 -60 -113 -99t-154 -44l-37 -45h4q43 0 73.5 -24t30.5 -63q0 -41 -32 -69t-82 -28q-31 0 -58 8.5t-46 25.5l33 47q13 -12 30.5 -20t36.5 -8q22 0 36 11.5t14 31.5t-14 30.5t-39 10.5q-12 0 -21.5 -2.5t-18.5 -6.5l-32 36
l52 66q-73 8 -133 40.5t-102 81.5t-65.5 113t-23.5 133q0 75 27 142.5t75 117.5t116 80t150 30q94 0 169.5 -40t123.5 -104l-75 -58q-35 51 -91.5 82.5t-126.5 31.5q-59 0 -109 -22t-86 -60.5t-56 -90t-20 -109.5t20 -109.5t56 -90t86 -60.5t109 -22z" />
    <glyph glyph-name="Q.1" horiz-adv-x="837" 
d="M727 -123l-141 141q-37 -18 -79 -28t-88 -10q-82 0 -150 30t-116 80t-75 117.5t-27 142.5t27 142.5t75 117.5t116 80t150 30q81 0 149 -30t116 -80t75 -117.5t27 -142.5q0 -81 -31.5 -154t-88.5 -124l198 -195h-137zM419 68q59 0 108.5 22t85.5 60.5t56 90t20 109.5
t-20 109.5t-56 90t-85.5 60.5t-108.5 22t-109 -22t-86 -60.5t-56 -90t-20 -109.5t20 -109.5t56 -90t86 -60.5t109 -22z" />
    <glyph glyph-name="Q.2" horiz-adv-x="837" 
d="M816 -46q94 -72 165 -96t124 -24q35 0 64.5 6t52.5 15v-84q-22 -10 -52 -15.5t-68 -5.5q-75 0 -162.5 30t-186.5 108l-167 130q-37 -18 -79 -28t-88 -10q-82 0 -150 30t-116 80t-75 117.5t-27 142.5t27 142.5t75 117.5t116 80t150 30q81 0 149 -30t116 -80t75 -117.5
t27 -142.5q0 -82 -32.5 -155.5t-89.5 -124.5zM419 68q59 0 108.5 22t85.5 60.5t56 90t20 109.5t-20 109.5t-56 90t-85.5 60.5t-108.5 22t-109 -22t-86 -60.5t-56 -90t-20 -109.5t20 -109.5t56 -90t86 -60.5t109 -22z" />
    <glyph glyph-name="Scedilla.1" horiz-adv-x="588" 
d="M58 96l70 64q36 -46 78.5 -70.5t90.5 -24.5q58 0 90.5 31.5t32.5 79.5q0 59 -52 89.5t-114 60.5t-114 74.5t-52 130.5q0 39 15.5 73.5t43 60t65.5 40.5t84 15q73 0 128 -31.5t94 -82.5l-71 -62q-31 44 -68 68t-82 24q-51 0 -82 -29t-31 -74q0 -59 52 -89t113.5 -59.5
t113.5 -74t52 -131.5q0 -78 -47.5 -129.5t-121.5 -64.5l-91 -145h-87l91 143q-63 7 -112 35.5t-89 77.5z" />
    <glyph glyph-name="germandbls.cap" horiz-adv-x="1158" 
d="M58 96l70 64q36 -46 78.5 -70.5t90.5 -24.5q58 0 90.5 31.5t32.5 79.5q0 59 -52 89.5t-114 60.5t-114 74.5t-52 130.5q0 39 15.5 73.5t43 60t65.5 40.5t84 15q73 0 128 -31.5t94 -82.5l-71 -62q-31 44 -68 68t-82 24q-51 0 -82 -29t-31 -74q0 -59 52 -89t113.5 -59.5
t113.5 -74t52 -131.5q0 -45 -16.5 -82t-45.5 -62.5t-69 -39.5t-86 -14q-77 0 -135.5 29.5t-104.5 85.5zM628 96l70 64q36 -46 78.5 -70.5t90.5 -24.5q58 0 90.5 31.5t32.5 79.5q0 59 -52 89.5t-114 60.5t-114 74.5t-52 130.5q0 39 15.5 73.5t43 60t65.5 40.5t84 15
q73 0 128 -31.5t94 -82.5l-71 -62q-31 44 -68 68t-82 24q-51 0 -82 -29t-31 -74q0 -59 52 -89t113.5 -59.5t113.5 -74t52 -131.5q0 -45 -16.5 -82t-45.5 -62.5t-69 -39.5t-86 -14q-77 0 -135.5 29.5t-104.5 85.5z" />
    <glyph glyph-name="Tcedilla.1" horiz-adv-x="629" 
d="M35 614v86h558v-86h-232v-597h5l-5 -8v-9h-6l-100 -160h-87l101 160h-2v614h-232z" />
    <glyph glyph-name="ccedilla.1" horiz-adv-x="560" 
d="M322 60q46 0 83.5 20.5t60.5 53.5l67 -51q-32 -43 -81 -70.5t-110 -31.5l-37 -45h4q43 0 73.5 -24t30.5 -63q0 -41 -32 -69t-82 -28q-31 0 -58 8.5t-46 25.5l33 47q13 -12 30.5 -20t36.5 -8q22 0 36 11.5t14 31.5t-14 30.5t-39 10.5q-12 0 -21.5 -2.5t-18.5 -6.5l-32 36
l53 68q-52 8 -94 32.5t-71 60t-45 81t-16 94.5q0 55 19.5 104.5t55 86.5t86.5 59t113 22q68 0 122.5 -28.5t89.5 -74.5l-67 -51q-23 33 -60.5 53.5t-84.5 20.5q-40 0 -74.5 -15t-58.5 -41t-38 -61t-14 -75t14 -75.5t38.5 -61t58.5 -40.5t75 -15z" />
    <glyph glyph-name="i.trk" horiz-adv-x="265" 
d="M133 635q-25 0 -42.5 17.5t-17.5 42.5q0 24 17.5 41.5t42.5 17.5t42.5 -17.5t17.5 -41.5q0 -25 -17.5 -42.5t-42.5 -17.5zM90 0v504h85v-504h-85z" />
    <glyph glyph-name="scedilla.1" horiz-adv-x="443" 
d="M36 69l60 51q26 -33 58 -51t70 -18q42 0 65 22.5t23 55.5q0 42 -39.5 61.5t-86.5 39.5t-86.5 52t-39.5 98q0 59 46 101.5t118 42.5q54 0 98.5 -23t70.5 -60l-59 -50q-20 28 -48 45t-61 17q-40 0 -61.5 -21t-21.5 -50q0 -42 39.5 -62.5t87 -40t87 -51t39.5 -95.5
q-1 -60 -38 -99.5t-93 -49.5l-90 -144h-87l91 144q-43 7 -78.5 29t-63.5 56z" />
    <glyph glyph-name="tcedilla.1" horiz-adv-x="424" 
d="M119 169v258h-95v77h95v126h86v-126h175v-77h-175v-258q0 -59 27.5 -80t73.5 -21q25 0 43 3t32 9v-76q-13 -6 -29 -9t-35 -4l-94 -151h-87l99 156q-56 13 -86 56t-30 117z" />
    <glyph glyph-name="y.1" horiz-adv-x="549" 
d="M14 504h94l169 -393l165 393h92l-318 -754h-91l106 251z" />
    <glyph glyph-name="yacute.1" horiz-adv-x="549" 
d="M318 584h-83l104 166h96zM14 504h94l169 -393l165 393h92l-318 -754h-91l106 251z" />
    <glyph glyph-name="ycircumflex.1" horiz-adv-x="549" 
d="M190 584h-77l105 166h115l104 -166h-76l-85 126zM14 504h94l169 -393l165 393h92l-318 -754h-91l106 251z" />
    <glyph glyph-name="ydieresis.1" horiz-adv-x="549" 
d="M177 642q-23 0 -40 16.5t-17 39.5t17 39.5t40 16.5q22 0 39.5 -16.5t17.5 -39.5t-17.5 -39.5t-39.5 -16.5zM373 642q-22 0 -39.5 16.5t-17.5 39.5t17.5 39.5t39.5 16.5q23 0 40 -16.5t17 -39.5t-17 -39.5t-40 -16.5zM14 504h94l169 -393l165 393h92l-318 -754h-91
l106 251z" />
    <glyph glyph-name="caron.slovak" horiz-adv-x="0" 
d="M36 564h-74l85 186h91z" />
    <glyph glyph-name="cedilla.1" horiz-adv-x="0" 
d="M-23 17h86l-111 -177h-87z" />
    <glyph glyph-name="commaaccentbelow" 
d="M283 -246h-83l104 166h96z" />
    <glyph glyph-name="commaturnedabove" 
d="M317 750h83l-104 -166h-96z" />
    <glyph glyph-name="grave.case" horiz-adv-x="0" 
d="M-41 760l-128 135h102l113 -135h-87z" />
    <glyph glyph-name="acute.case" horiz-adv-x="0" 
d="M44 760h-87l113 135h102z" />
    <glyph glyph-name="hungarumlaut.case" horiz-adv-x="0" 
d="M-58 760h-87l113 135h103zM143 760h-87l113 135h102z" />
    <glyph glyph-name="circumflex.case" horiz-adv-x="0" 
d="M-88 760h-77l113 135h105l112 -135h-77l-88 92z" />
    <glyph glyph-name="caron.case" horiz-adv-x="0" 
d="M88 895h77l-112 -135h-105l-113 135h77l88 -92z" />
    <glyph glyph-name="breve.case" horiz-adv-x="0" 
d="M1 811q43 0 68 21t27 63h71q0 -71 -47 -108t-120 -37q-71 0 -118 37t-48 108h71q3 -42 28 -63t68 -21z" />
    <glyph glyph-name="ring.case" horiz-adv-x="0" 
d="M0 740q-49 0 -86 29t-37 83q0 56 37 85t86 29q50 0 87.5 -29t37.5 -85q0 -54 -37.5 -83t-87.5 -29zM1 791q28 0 47.5 16t19.5 45q0 31 -19.5 47t-47.5 16t-48 -16t-20 -47q0 -29 20 -45t48 -16z" />
    <glyph glyph-name="tilde.case" horiz-adv-x="0" 
d="M-176 760v44q0 44 26 72.5t69 28.5q29 0 51.5 -14.5t41 -32t34.5 -32t33 -14.5q15 0 23.5 10.5t8.5 29.5v43h64v-43q0 -46 -25.5 -74t-68.5 -28q-30 0 -52.5 14.5t-40.5 32t-33.5 32t-33.5 14.5q-16 0 -24.5 -10.5t-8.5 -29.5v-43h-64z" />
    <glyph glyph-name="dotaccent.case" horiz-adv-x="0" 
d="M0 789q-22 0 -38 15.5t-16 37.5t16 37.5t38 15.5t37.5 -15.5t15.5 -37.5t-15.5 -37.5t-37.5 -15.5z" />
    <glyph glyph-name="dieresis.case" horiz-adv-x="0" 
d="M-97 789q-22 0 -38 15.5t-16 37.5t16 37.5t38 15.5t37.5 -15.5t15.5 -37.5t-15.5 -37.5t-37.5 -15.5zM97 789q-22 0 -37.5 15.5t-15.5 37.5t15.5 37.5t37.5 15.5t38 -15.5t16 -37.5t-16 -37.5t-38 -15.5z" />
    <glyph glyph-name="macron.case" horiz-adv-x="0" 
d="M-155 809v64h310v-64h-310z" />
    <glyph glyph-name="exclamdown.case" horiz-adv-x="304" 
d="M152 711q25 0 44.5 -19t19.5 -46q0 -25 -19.5 -43.5t-44.5 -18.5q-27 0 -45.5 18.5t-18.5 43.5q0 27 19 46t45 19zM185 496l16 -496h-97l16 496h65z" />
    <glyph glyph-name="questiondown.case" horiz-adv-x="509" 
d="M296 716q26 0 45.5 -19t19.5 -46q0 -25 -19.5 -43.5t-45.5 -18.5t-45 18.5t-19 43.5q0 27 19 46t45 19zM330 501l11 -152q-106 -13 -162 -50.5t-56 -108.5q0 -54 36.5 -90t90.5 -36q46 0 80.5 21.5t65.5 65.5l74 -47q-39 -54 -93 -86.5t-131 -32.5q-44 0 -83.5 15.5
t-68.5 42.5t-46 64.5t-17 81.5q0 92 64 148.5t164 73.5l6 90h65z" />
    <glyph glyph-name="hyphen.case" horiz-adv-x="310" 
d="M20 391h270v-82h-270v82z" />
    <glyph glyph-name="guilsinglleft.case" horiz-adv-x="327" 
d="M275 150h-92l-132 200l132 200h92l-131 -200z" />
    <glyph glyph-name="guilsinglright.case" horiz-adv-x="327" 
d="M51 550h93l132 -200l-132 -200h-93l131 200z" />
    <glyph glyph-name="guillemetleft.case" horiz-adv-x="530" 
d="M275 150h-92l-132 200l132 200h92l-131 -200zM478 150h-92l-132 200l132 200h92l-131 -200z" />
    <glyph glyph-name="guillemetright.case" horiz-adv-x="530" 
d="M51 550h93l132 -200l-132 -200h-93l131 200zM254 550h93l132 -200l-132 -200h-93l131 200z" />
    <glyph glyph-name="parenleft.case" horiz-adv-x="322" 
d="M128 350q0 -132 43.5 -237.5t124.5 -186.5l-62 -51q-89 83 -140.5 204.5t-51.5 270.5q0 151 54 273t138 202l62 -51q-78 -78 -123 -185t-45 -239z" />
    <glyph glyph-name="parenright.case" horiz-adv-x="322" 
d="M194 350q0 132 -44.5 238.5t-124.5 185.5l62 51q86 -81 139 -202.5t53 -272.5t-52.5 -272.5t-139.5 -202.5l-62 51q80 79 124.5 185t44.5 239z" />
    <glyph glyph-name="braceleft.case" horiz-adv-x="305" 
d="M149 32q0 -36 21 -58.5t57 -22.5h64v-74h-65q-74 0 -116 43t-42 112q0 26 8.5 55.5t19 57.5t19 54t8.5 47q0 29 -13 48.5t-45 19.5h-56v74h56q32 0 45 19.5t13 48.5q0 21 -8.5 47t-19 54t-19 57t-8.5 55q0 70 42 112.5t116 42.5h65v-74h-64q-36 0 -57 -22.5t-21 -58.5
q0 -22 9 -48.5t19 -54t19 -56t9 -54.5q0 -34 -14 -61.5t-42 -43.5q28 -16 42 -43.5t14 -61.5q0 -26 -9 -54.5t-19 -56.5t-19 -54.5t-9 -48.5z" />
    <glyph glyph-name="braceright.case" horiz-adv-x="305" 
d="M157 32q0 22 -9 48.5t-19 54t-19 56t-9 54.5q0 34 14 61.5t41 43.5q-27 16 -41 43.5t-14 61.5q0 26 9 54.5t19 56.5t19 54.5t9 48.5q0 36 -21 58.5t-57 22.5h-64v74h65q74 0 116 -42.5t42 -112.5q0 -26 -8.5 -55.5t-19 -57.5t-19 -54t-8.5 -47q0 -29 13 -48t45 -19h56
v-75h-56q-32 0 -45 -19.5t-13 -48.5q0 -21 8.5 -47t19 -54t19 -57t8.5 -55q0 -69 -42 -112t-116 -43h-65v74h64q36 0 57 22.5t21 58.5z" />
    <glyph glyph-name="bracketleft.case" horiz-adv-x="305" 
d="M68 824h223v-74h-142v-799h142v-74h-223v947z" />
    <glyph glyph-name="bracketright.case" horiz-adv-x="305" 
d="M238 -123h-223v74h141v799h-141v74h223v-947z" />
    <glyph glyph-name="endash.case" horiz-adv-x="540" 
d="M21 387h498v-74h-498v74z" />
    <glyph glyph-name="emdash.case" horiz-adv-x="1080" 
d="M21 387h1038v-74h-1038v74z" />
    <glyph glyph-name="bullet.case" horiz-adv-x="351" 
d="M177 224q-54 0 -92.5 38t-38.5 90q0 51 38.5 87.5t92.5 36.5t91.5 -36.5t37.5 -87.5q0 -52 -37.5 -90t-91.5 -38z" />
    <glyph glyph-name="periodcentered.case" horiz-adv-x="270" 
d="M136 287q-27 0 -46 18.5t-19 44.5t19 45t46 19t45.5 -19t18.5 -45t-18.5 -44.5t-45.5 -18.5z" />
    <glyph glyph-name="at.case" horiz-adv-x="839" 
d="M234 349q0 36 12 69t34 57t54 38.5t70 14.5q34 0 63.5 -13.5t52.5 -37.5v38h69v-235q0 -23 13.5 -37.5t34.5 -14.5q39 0 64 44t25 117q0 57 -22.5 108t-62 88t-95 58.5t-120.5 21.5q-68 0 -126 -25.5t-99 -68t-64.5 -100t-23.5 -121.5t23 -122t64 -100.5t98 -68
t125 -25.5q72 0 128.5 21t113.5 72l35 -49q-62 -51 -128 -74.5t-150 -23.5q-82 0 -151 30t-118 80t-76 117.5t-27 142.5t27.5 142.5t76.5 117.5t118.5 80t153.5 30q80 0 147 -26t114.5 -71t74 -105.5t26.5 -128.5q0 -47 -11 -87t-31.5 -69t-49 -45.5t-62.5 -16.5
q-38 0 -64.5 17.5t-37.5 45.5q-24 -30 -55.5 -46.5t-72.5 -16.5q-38 0 -70 14t-54 38.5t-34 57t-12 68.5zM308 349q0 -48 29.5 -81t77.5 -33q33 0 59.5 17.5t45.5 46.5v99q-19 31 -45.5 48t-59.5 17q-48 0 -77.5 -33t-29.5 -81z" />
    <glyph glyph-name="dollar.lt" 
d="M51 110l62 58q33 -39 71 -61t80 -28v248q-33 12 -65 27.5t-56.5 37.5t-40 53t-15.5 75q0 68 49 118t128 60v72h74v-72q60 -7 108 -34t82 -70l-62 -56q-25 35 -58 56t-70 28v-233q34 -13 67.5 -28t59.5 -37.5t42 -54t16 -77.5q-1 -78 -52.5 -129t-132.5 -61v-72h-74v72
q-66 5 -119.5 32.5t-93.5 75.5zM172 521q0 -40 26.5 -63.5t65.5 -40.5v205q-46 -8 -69 -35t-23 -66zM439 191q0 43 -29 67t-72 42v-221q50 9 75.5 40t25.5 72z" />
    <glyph glyph-name="Euro.lt" 
d="M21 232v74h84q-1 10 -1 21.5v23.5v19.5t1 18.5h-84v74h91q19 129 84.5 193t166.5 64q71 0 121.5 -28t84.5 -74l-68 -53q-23 33 -55 54t-81 21q-61 0 -103.5 -40.5t-57.5 -136.5h281v-74h-288q-1 -9 -1 -18.5v-19.5v-23.5t1 -21.5h288v-74h-280q16 -93 58 -132.5
t102 -39.5q48 0 80.5 21t55.5 54l68 -52q-34 -46 -84.5 -74.5t-121.5 -28.5q-100 0 -165 62.5t-85 189.5h-92z" />
    <glyph glyph-name="cent.lt" 
d="M287 700h74v-79q59 -5 106.5 -32.5t78.5 -69.5l-68 -53q-20 29 -50 48.5t-67 24.5v-378q37 5 67 24.5t50 47.5l68 -53q-31 -42 -78.5 -69t-106.5 -32v-79h-74v81q-52 8 -94.5 32.5t-71.5 60.5t-45 81t-16 95t16 95t45 81t71.5 60.5t94.5 32.5v81zM149 350q0 -68 38 -119
t100 -66v370q-62 -15 -100 -66.5t-38 -118.5z" />
    <glyph glyph-name="sterling.lt" 
d="M71 0v81l77 69q41 38 57.5 63.5t16.5 62.5q0 8 -1.5 16.5t-4.5 16.5h-145v73h104q-22 31 -42 67t-19 84q0 81 56.5 134t143.5 53q70 0 118 -30t82 -83l-69 -52q-23 42 -54 62.5t-73 20.5q-49 0 -81.5 -29.5t-32.5 -80.5q-1 -44 21.5 -78t44.5 -68h219v-73h-186
q2 -8 3 -16.5t1 -17.5q-1 -48 -22.5 -85t-72.5 -84l-28 -25h355v-81h-468z" />
    <glyph glyph-name="yen.lt" 
d="M62 232v74h193v83h-193v74h135l-161 238h106l159 -236l158 235h105l-160 -237h135v-74h-193v-83h193v-74h-193v-232h-91v232h-193z" />
    <glyph glyph-name="zero.lt" 
d="M299 720q66 0 115.5 -28.5t81.5 -78.5t48.5 -117.5t16.5 -145.5t-16.5 -145.5t-48.5 -117.5t-81.5 -78.5t-115.5 -28.5q-65 0 -114 28.5t-81.5 78.5t-49 117.5t-16.5 145.5t16.5 145.5t49 117.5t81.5 78.5t114 28.5zM300 636q-42 0 -74 -21.5t-53 -60t-32 -91t-11 -113.5
t11 -113.5t32 -91t53 -60t74 -21.5q41 0 73 21.5t53 60t31.5 91t10.5 113.5t-10.5 113.5t-31.5 91t-53 60t-73 21.5z" />
    <glyph glyph-name="one.lt" 
d="M57 0v81h214v528l-190 -100l-46 64l236 127h90v-619h187v-81h-491z" />
    <glyph glyph-name="two.lt" 
d="M68 0v81l237 244q31 32 53.5 57t37 47t21.5 44.5t7 50.5q0 54 -35.5 84.5t-88.5 30.5q-55 0 -93.5 -27t-69.5 -78l-74 45q43 66 103 103.5t141 37.5q44 0 82.5 -13.5t66.5 -38.5t44.5 -60t16.5 -78q0 -71 -41.5 -129.5t-104.5 -124.5l-192 -195h357v-81h-468z" />
    <glyph glyph-name="three.lt" 
d="M542 193q0 -47 -18.5 -86.5t-50.5 -67.5t-77 -43.5t-98 -15.5q-90 0 -152.5 36.5t-104.5 105.5l79 49q32 -57 75.5 -83.5t101.5 -26.5q65 0 108.5 36.5t43.5 99.5q0 59 -39.5 96.5t-108.5 37.5h-119v81h105q60 0 95.5 32.5t35.5 83.5q0 53 -35.5 82t-89.5 29
q-47 0 -83.5 -23.5t-61.5 -69.5l-75 46q37 61 93.5 94.5t132.5 33.5q45 0 84 -13t67 -37t44 -58.5t16 -75.5q0 -51 -23.5 -92.5t-68.5 -66.5q60 -25 92 -74.5t32 -109.5z" />
    <glyph glyph-name="four.lt" 
d="M40 202v81l329 417h109v-417h81v-81h-81v-202h-90v202h-348zM136 283h252v319z" />
    <glyph glyph-name="five.lt" 
d="M103 332l21 368h385v-81h-299l-12 -205h101q123 0 183 -60.5t60 -153.5q0 -50 -18.5 -91t-51 -69.5t-77.5 -44t-97 -15.5q-90 0 -152.5 36.5t-104.5 105.5l79 49q32 -58 76 -84t101 -26q66 0 109.5 36.5t43.5 99.5q0 60 -41 97.5t-114 37.5h-192z" />
    <glyph glyph-name="six.lt" 
d="M333 720q81 0 134.5 -33t90.5 -86l-71 -55q-31 46 -68 69t-85 23q-96 0 -144 -75t-52 -204q37 37 86.5 57.5t106.5 20.5q49 0 90 -17.5t70.5 -47.5t45.5 -70.5t16 -86.5q0 -47 -16.5 -90t-47.5 -75t-76 -51t-101 -19q-122 0 -194.5 89t-72.5 270q0 85 17 155.5
t52.5 120.5t90 77.5t128.5 27.5zM317 356q-52 0 -98 -22.5t-77 -67.5q11 -110 56.5 -157t111.5 -47q70 0 109.5 43.5t39.5 106.5q0 60 -40.5 102t-101.5 42z" />
    <glyph glyph-name="seven.lt" 
d="M192 0h-104l370 619h-390v81h486v-81z" />
    <glyph glyph-name="eight.lt" 
d="M300 720q52 0 93.5 -14.5t69.5 -39.5t43 -58.5t15 -70.5q0 -52 -26.5 -92t-75.5 -62q65 -23 100.5 -72.5t35.5 -116.5q0 -45 -17.5 -84.5t-50 -68t-80 -45t-107.5 -16.5q-59 0 -106.5 16.5t-80.5 45t-50.5 68t-17.5 84.5q0 67 35.5 116.5t100.5 72.5q-50 22 -76.5 62
t-26.5 92q0 37 15 70.5t43 58.5t69.5 39.5t94.5 14.5zM301 417q56 0 91.5 31.5t35.5 80.5q0 50 -35.5 81.5t-91.5 31.5q-58 0 -93.5 -31.5t-35.5 -81.5t35.5 -81t93.5 -31zM301 59q72 0 116.5 39t44.5 100q0 62 -44.5 102t-116.5 40q-73 0 -118 -40t-45 -102t45 -100.5
t118 -38.5z" />
    <glyph glyph-name="nine.lt" 
d="M265 -20q-81 0 -135 33t-90 86l72 55q30 -46 67 -69t86 -23q96 0 144.5 75t51.5 205q-37 -38 -86.5 -58.5t-107.5 -20.5q-49 0 -90 17.5t-70 47.5t-45 70.5t-16 86.5q0 47 16.5 90t47 75t75.5 51t102 19q122 0 194.5 -89t72.5 -270q0 -85 -17.5 -155.5t-52.5 -120.5
t-90 -77.5t-129 -27.5zM139 488q0 -60 40.5 -102t101.5 -42q53 0 99 22.5t77 68.5q-11 110 -57 156.5t-112 46.5q-69 0 -109 -43.5t-40 -106.5z" />
    <glyph glyph-name="dollar.ot" 
d="M62 102l56 58q31 -32 70.5 -53.5t82.5 -28.5v165q-32 7 -63 16.5t-55.5 26t-39.5 42t-15 62.5q0 60 44.5 106t128.5 52v63h75v-66q56 -10 104 -35.5t76 -56.5l-55 -57q-23 26 -55.5 46t-69.5 29v-159q34 -7 65.5 -17t56 -27t39.5 -43.5t15 -66.5q-1 -66 -48 -109
t-128 -48v-62h-75v65q-60 8 -115 33.5t-94 64.5zM181 396q0 -31 26 -45.5t64 -23.5v149q-46 -6 -68 -29t-22 -51zM438 153q0 34 -25.5 50t-66.5 25v-154q44 4 68 25.5t24 53.5z" />
    <glyph glyph-name="Euro.ot" 
d="M20 170v72h69q-1 8 -1 16.5v16.5v13.5t1 13.5h-69v72h80q24 89 90.5 142t165.5 53q69 0 124 -26.5t88 -67.5l-66 -52q-24 30 -61 47.5t-85 17.5q-57 0 -100 -30t-63 -84h293v-72h-308q-1 -7 -1 -13.5v-13.5q0 -8 0.5 -17t1.5 -16h307v-72h-291q21 -52 63 -80.5t99 -28.5
q47 0 84 17.5t61 48.5l66 -52q-33 -41 -88 -68t-124 -27q-97 0 -163 51.5t-91 138.5h-82z" />
    <glyph glyph-name="cent.ot" 
d="M285 617h75v-69q60 -5 108 -32.5t79 -69.5l-69 -51q-19 28 -49.5 47.5t-68.5 23.5v-383q37 4 68 23.5t50 47.5l69 -51q-31 -43 -79 -70t-108 -32v-71h-75v74q-52 8 -94.5 33t-72 61t-45.5 81.5t-16 95.5q0 49 16 94.5t45.5 81.5t72 61t94.5 33v72zM146 275q0 -68 38 -120
t101 -68v375q-63 -16 -101 -68t-38 -119z" />
    <glyph glyph-name="sterling.ot" 
d="M69 0v81l68 47q43 30 59 45.5t16 37.5q0 7 -1.5 13t-4.5 12h-137v72h83q-16 20 -27.5 44.5t-11.5 57.5q0 69 57 114.5t141 45.5q76 -1 134 -35t96 -93l-74 -46q-29 44 -64.5 68.5t-85.5 24.5q-49 0 -81 -25t-32 -66q0 -27 14 -48.5t32 -41.5h240v-72h-194q2 -6 3 -12.5
t1 -13.5q0 -35 -21 -59.5t-72 -60.5l-13 -9h346v-81h-471z" />
    <glyph glyph-name="yen.ot" 
d="M61 170v72h196v60h-196v72h130l-146 177h107l148 -177h3l147 176h105l-145 -176h130v-72h-194v-60h194v-72h-194v-170h-89v170h-196z" />
    <glyph glyph-name="zero.ot" 
d="M299 570q63 0 113.5 -23.5t85.5 -63.5t54 -94t19 -114t-19 -114t-54 -94t-85.5 -63.5t-113.5 -23.5t-113 23.5t-85 63.5t-53.5 94t-18.5 114t18.5 114t53.5 94t85 63.5t113 23.5zM300 64q40 0 72.5 16t56 44.5t36.5 67t13 83.5t-13 84t-36.5 67t-56 44t-72.5 16
t-73.5 -16t-56.5 -44t-36 -67t-13 -84t13 -83.5t36 -67t56.5 -44.5t73.5 -16z" />
    <glyph glyph-name="one.ot" 
d="M77 0v81h198v376l-174 -99l-46 65l220 127h90v-469h171v-81h-459z" />
    <glyph glyph-name="two.ot" 
d="M81 0v81l213 162q56 45 87 78.5t31 79.5q0 42 -31.5 65t-80.5 23q-51 0 -90 -24.5t-68 -68.5l-74 46q39 60 97.5 94t134.5 34q90 0 146.5 -45t56.5 -118q0 -69 -40 -117.5t-115 -105.5l-139 -103h320v-81h-448z" />
    <glyph glyph-name="three.ot" 
d="M542 43q0 -47 -18.5 -86.5t-50.5 -67.5t-77 -43.5t-98 -15.5q-90 0 -152.5 36.5t-104.5 105.5l79 49q32 -57 75.5 -83.5t101.5 -26.5q65 0 108.5 36.5t43.5 99.5q0 59 -39.5 96.5t-108.5 37.5h-119v81h105q60 0 95.5 32.5t35.5 83.5q0 53 -35.5 82t-89.5 29
q-47 0 -83.5 -23.5t-61.5 -69.5l-75 46q37 61 93.5 94.5t132.5 33.5q45 0 84 -13t67 -37t44 -58.5t16 -75.5q0 -51 -23.5 -92.5t-68.5 -66.5q60 -25 92 -74.5t32 -109.5z" />
    <glyph glyph-name="four.ot" 
d="M40 52v81l329 417h109v-417h81v-81h-81v-202h-90v202h-348zM136 133h252v319z" />
    <glyph glyph-name="five.ot" 
d="M103 182l21 368h385v-81h-299l-12 -205h101q123 0 183 -60.5t60 -153.5q0 -50 -18.5 -91t-51 -69.5t-77.5 -44t-97 -15.5q-90 0 -152.5 36.5t-104.5 105.5l79 49q32 -58 76 -84t101 -26q66 0 109.5 36.5t43.5 99.5q0 60 -41 97.5t-114 37.5h-192z" />
    <glyph glyph-name="six.ot" 
d="M333 720q81 0 134.5 -33t90.5 -86l-71 -55q-31 46 -68 69t-85 23q-96 0 -144 -75t-52 -204q37 37 86.5 57.5t106.5 20.5q49 0 90 -17.5t70.5 -47.5t45.5 -70.5t16 -86.5q0 -47 -16.5 -90t-47.5 -75t-76 -51t-101 -19q-122 0 -194.5 89t-72.5 270q0 85 17 155.5
t52.5 120.5t90 77.5t128.5 27.5zM317 356q-52 0 -98 -22.5t-77 -67.5q11 -110 56.5 -157t111.5 -47q70 0 109.5 43.5t39.5 106.5q0 60 -40.5 102t-101.5 42z" />
    <glyph glyph-name="seven.ot" 
d="M192 -150h-104l370 619h-390v81h486v-81z" />
    <glyph glyph-name="eight.ot" 
d="M300 720q52 0 93.5 -14.5t69.5 -39.5t43 -58.5t15 -70.5q0 -52 -26.5 -92t-75.5 -62q65 -23 100.5 -72.5t35.5 -116.5q0 -45 -17.5 -84.5t-50 -68t-80 -45t-107.5 -16.5q-59 0 -106.5 16.5t-80.5 45t-50.5 68t-17.5 84.5q0 67 35.5 116.5t100.5 72.5q-50 22 -76.5 62
t-26.5 92q0 37 15 70.5t43 58.5t69.5 39.5t94.5 14.5zM301 417q56 0 91.5 31.5t35.5 80.5q0 50 -35.5 81.5t-91.5 31.5q-58 0 -93.5 -31.5t-35.5 -81.5t35.5 -81t93.5 -31zM301 59q72 0 116.5 39t44.5 100q0 62 -44.5 102t-116.5 40q-73 0 -118 -40t-45 -102t45 -100.5
t118 -38.5z" />
    <glyph glyph-name="nine.ot" 
d="M265 -170q-81 0 -135 33t-90 86l72 55q30 -46 67 -69t86 -23q96 0 144.5 75t51.5 205q-37 -38 -86.5 -58.5t-107.5 -20.5q-49 0 -90 17.5t-70 47.5t-45 70.5t-16 86.5q0 47 16.5 90t47 75t75.5 51t102 19q122 0 194.5 -89t72.5 -270q0 -85 -17.5 -155.5t-52.5 -120.5
t-90 -77.5t-129 -27.5zM139 338q0 -60 40.5 -102t101.5 -42q53 0 99 22.5t77 68.5q-11 110 -57 156.5t-112 46.5q-69 0 -109 -43.5t-40 -106.5z" />
    <glyph glyph-name="Euro.op" 
d="M20 170v72h69q-1 8 -1 16.5v16.5v13.5t1 13.5h-69v72h80q24 89 90.5 142t165.5 53q69 0 124 -26.5t88 -67.5l-66 -52q-24 30 -61 47.5t-85 17.5q-57 0 -100 -30t-63 -84h293v-72h-308q-1 -7 -1 -13.5v-13.5q0 -8 0.5 -17t1.5 -16h307v-72h-291q21 -52 63 -80.5t99 -28.5
q47 0 84 17.5t61 48.5l66 -52q-33 -41 -88 -68t-124 -27q-97 0 -163 51.5t-91 138.5h-82z" />
    <glyph glyph-name="dollar.op" 
d="M62 102l56 58q31 -32 70.5 -53.5t82.5 -28.5v165q-32 7 -63 16.5t-55.5 26t-39.5 42t-15 62.5q0 60 44.5 106t128.5 52v63h75v-66q56 -10 104 -35.5t76 -56.5l-55 -57q-23 26 -55.5 46t-69.5 29v-159q34 -7 65.5 -17t56 -27t39.5 -43.5t15 -66.5q-1 -66 -48 -109
t-128 -48v-62h-75v65q-60 8 -115 33.5t-94 64.5zM181 396q0 -31 26 -45.5t64 -23.5v149q-46 -6 -68 -29t-22 -51zM438 153q0 34 -25.5 50t-66.5 25v-154q44 4 68 25.5t24 53.5z" />
    <glyph glyph-name="cent.op" 
d="M285 617h75v-69q60 -5 108 -32.5t79 -69.5l-69 -51q-19 28 -49.5 47.5t-68.5 23.5v-383q37 4 68 23.5t50 47.5l69 -51q-31 -43 -79 -70t-108 -32v-71h-75v74q-52 8 -94.5 33t-72 61t-45.5 81.5t-16 95.5q0 49 16 94.5t45.5 81.5t72 61t94.5 33v72zM146 275q0 -68 38 -120
t101 -68v375q-63 -16 -101 -68t-38 -119z" />
    <glyph glyph-name="sterling.op" 
d="M69 0v81l68 47q43 30 59 45.5t16 37.5q0 7 -1.5 13t-4.5 12h-137v72h83q-16 20 -27.5 44.5t-11.5 57.5q0 69 57 114.5t141 45.5q76 -1 134 -35t96 -93l-74 -46q-29 44 -64.5 68.5t-85.5 24.5q-49 0 -81 -25t-32 -66q0 -27 14 -48.5t32 -41.5h240v-72h-194q2 -6 3 -12.5
t1 -13.5q0 -35 -21 -59.5t-72 -60.5l-13 -9h346v-81h-471z" />
    <glyph glyph-name="yen.op" 
d="M61 170v72h196v60h-196v72h130l-146 177h107l148 -177h3l147 176h105l-145 -176h130v-72h-194v-60h194v-72h-194v-170h-89v170h-196z" />
    <glyph glyph-name="zero.op" 
d="M299 570q63 0 113.5 -23.5t85.5 -63.5t54 -94t19 -114t-19 -114t-54 -94t-85.5 -63.5t-113.5 -23.5t-113 23.5t-85 63.5t-53.5 94t-18.5 114t18.5 114t53.5 94t85 63.5t113 23.5zM300 64q40 0 72.5 16t56 44.5t36.5 67t13 83.5t-13 84t-36.5 67t-56 44t-72.5 16
t-73.5 -16t-56.5 -44t-36 -67t-13 -84t13 -83.5t36 -67t56.5 -44.5t73.5 -16z" />
    <glyph glyph-name="one.op" horiz-adv-x="462" 
d="M237 0v458l-173 -94l-46 65l218 121h90v-550h-89z" />
    <glyph glyph-name="two.op" 
d="M81 0v81l213 162q56 45 87 78.5t31 79.5q0 42 -31.5 65t-80.5 23q-51 0 -90 -24.5t-68 -68.5l-74 46q39 60 97.5 94t134.5 34q90 0 146.5 -45t56.5 -118q0 -69 -40 -117.5t-115 -105.5l-139 -103h320v-81h-448z" />
    <glyph glyph-name="three.op" 
d="M542 43q0 -47 -18.5 -86.5t-50.5 -67.5t-77 -43.5t-98 -15.5q-90 0 -152.5 36.5t-104.5 105.5l79 49q32 -57 75.5 -83.5t101.5 -26.5q65 0 108.5 36.5t43.5 99.5q0 59 -39.5 96.5t-108.5 37.5h-119v81h105q60 0 95.5 32.5t35.5 83.5q0 53 -35.5 82t-89.5 29
q-47 0 -83.5 -23.5t-61.5 -69.5l-75 46q37 61 93.5 94.5t132.5 33.5q45 0 84 -13t67 -37t44 -58.5t16 -75.5q0 -51 -23.5 -92.5t-68.5 -66.5q60 -25 92 -74.5t32 -109.5z" />
    <glyph glyph-name="four.op" 
d="M40 52v81l329 417h109v-417h81v-81h-81v-202h-90v202h-348zM136 133h252v319z" />
    <glyph glyph-name="five.op" 
d="M103 182l21 368h385v-81h-299l-12 -205h101q123 0 183 -60.5t60 -153.5q0 -50 -18.5 -91t-51 -69.5t-77.5 -44t-97 -15.5q-90 0 -152.5 36.5t-104.5 105.5l79 49q32 -58 76 -84t101 -26q66 0 109.5 36.5t43.5 99.5q0 60 -41 97.5t-114 37.5h-192z" />
    <glyph glyph-name="six.op" 
d="M333 720q81 0 134.5 -33t90.5 -86l-71 -55q-31 46 -68 69t-85 23q-96 0 -144 -75t-52 -204q37 37 86.5 57.5t106.5 20.5q49 0 90 -17.5t70.5 -47.5t45.5 -70.5t16 -86.5q0 -47 -16.5 -90t-47.5 -75t-76 -51t-101 -19q-122 0 -194.5 89t-72.5 270q0 85 17 155.5
t52.5 120.5t90 77.5t128.5 27.5zM317 356q-52 0 -98 -22.5t-77 -67.5q11 -110 56.5 -157t111.5 -47q70 0 109.5 43.5t39.5 106.5q0 60 -40.5 102t-101.5 42z" />
    <glyph glyph-name="seven.op" 
d="M192 -150h-104l370 619h-390v81h486v-81z" />
    <glyph glyph-name="eight.op" 
d="M300 720q52 0 93.5 -14.5t69.5 -39.5t43 -58.5t15 -70.5q0 -52 -26.5 -92t-75.5 -62q65 -23 100.5 -72.5t35.5 -116.5q0 -45 -17.5 -84.5t-50 -68t-80 -45t-107.5 -16.5q-59 0 -106.5 16.5t-80.5 45t-50.5 68t-17.5 84.5q0 67 35.5 116.5t100.5 72.5q-50 22 -76.5 62
t-26.5 92q0 37 15 70.5t43 58.5t69.5 39.5t94.5 14.5zM301 417q56 0 91.5 31.5t35.5 80.5q0 50 -35.5 81.5t-91.5 31.5q-58 0 -93.5 -31.5t-35.5 -81.5t35.5 -81t93.5 -31zM301 59q72 0 116.5 39t44.5 100q0 62 -44.5 102t-116.5 40q-73 0 -118 -40t-45 -102t45 -100.5
t118 -38.5z" />
    <glyph glyph-name="nine.op" 
d="M265 -170q-81 0 -135 33t-90 86l72 55q30 -46 67 -69t86 -23q96 0 144.5 75t51.5 205q-37 -38 -86.5 -58.5t-107.5 -20.5q-49 0 -90 17.5t-70 47.5t-45 70.5t-16 86.5q0 47 16.5 90t47 75t75.5 51t102 19q122 0 194.5 -89t72.5 -270q0 -85 -17.5 -155.5t-52.5 -120.5
t-90 -77.5t-129 -27.5zM139 338q0 -60 40.5 -102t101.5 -42q53 0 99 22.5t77 68.5q-11 110 -57 156.5t-112 46.5q-69 0 -109 -43.5t-40 -106.5z" />
    <glyph glyph-name="dollar.weight" 
d="M51 110l62 58q40 -47 87 -69.5t100 -22.5q69 0 104 33t35 82q0 60 -55 86t-121 50.5t-121 65t-55 127.5q0 68 49 118t128 60v72h74v-72q60 -7 108 -34t82 -70l-62 -56q-31 43 -74 65t-92 22q-63 0 -95.5 -29t-32.5 -75q0 -59 55 -85t120.5 -50.5t120.5 -65t55 -128.5
q-1 -78 -52.5 -129t-132.5 -61v-72h-74v72q-66 5 -119.5 32.5t-93.5 75.5z" />
    <glyph glyph-name="cent.weight" 
d="M335 160q46 0 83 20.5t60 53.5l68 -52q-31 -43 -78.5 -70t-106.5 -32v-80h-74v82q-52 8 -94.5 32.5t-71.5 60.5t-45 81t-16 95t16 95t45 81t71.5 60.5t94.5 32.5v80h74v-78q59 -5 106.5 -32.5t78.5 -69.5l-68 -53q-23 34 -60 54.5t-83 20.5q-41 0 -75 -15t-58.5 -40.5
t-38.5 -60.5t-14 -75t14 -75t38.5 -61t58.5 -40.5t75 -14.5z" />
    <glyph glyph-name="dollar.lt.weight" 
d="M51 110l62 58q40 -47 87 -69.5t100 -22.5q69 0 104 33t35 82q0 60 -55 86t-121 50.5t-121 65t-55 127.5q0 68 49 118t128 60v72h74v-72q60 -7 108 -34t82 -70l-62 -56q-31 43 -74 65t-92 22q-63 0 -95.5 -29t-32.5 -75q0 -59 55 -85t120.5 -50.5t120.5 -65t55 -128.5
q-1 -78 -52.5 -129t-132.5 -61v-72h-74v72q-66 5 -119.5 32.5t-93.5 75.5z" />
    <glyph glyph-name="cent.lt.weight" 
d="M335 160q46 0 83 20.5t60 53.5l68 -52q-31 -43 -78.5 -70t-106.5 -32v-80h-74v82q-52 8 -94.5 32.5t-71.5 60.5t-45 81t-16 95t16 95t45 81t71.5 60.5t94.5 32.5v80h74v-78q59 -5 106.5 -32.5t78.5 -69.5l-68 -53q-23 34 -60 54.5t-83 20.5q-41 0 -75 -15t-58.5 -40.5
t-38.5 -60.5t-14 -75t14 -75t38.5 -61t58.5 -40.5t75 -14.5z" />
    <glyph glyph-name="dollar.op.weight" 
d="M62 102l56 58q41 -42 94.5 -64.5t109.5 -22.5q55 0 85.5 22t30.5 58q0 41 -37.5 57t-93.5 26q-35 7 -72.5 16t-67.5 25t-49.5 43t-19.5 70q0 60 44.5 106t129.5 52v63h74v-66q56 -10 104 -35.5t76 -56.5l-55 -57q-31 35 -78 58t-97 23q-58 0 -86.5 -24.5t-28.5 -56.5
q0 -20 11.5 -33t31 -21.5t45 -14t53.5 -10.5q37 -7 73 -16.5t64 -27t45.5 -45t17.5 -70.5q-1 -66 -48 -109t-128 -48v-62h-74v65q-60 7 -115.5 32.5t-94.5 65.5z" />
    <glyph glyph-name="Euro.op.weight" 
d="M19 236v72h70q9 116 80 188.5t187 72.5q69 0 123 -28.5t89 -74.5l-70 -51q-22 33 -59 53t-83 20q-73 0 -121 -47.5t-56 -132.5h306v-72h-306q10 -83 58 -129t120 -46q46 0 82.5 20.5t58.5 53.5l70 -52q-35 -46 -89 -74.5t-123 -28.5q-114 0 -185 70.5t-81 185.5h-71z" />
    <glyph glyph-name="cent.op.weight" 
d="M339 81q46 0 83 20t59 53l69 -51q-31 -43 -79.5 -70.5t-108.5 -31.5v-71h-74v74q-52 8 -94.5 33t-72 61t-45.5 81.5t-16 95.5q0 49 16 94.5t45.5 81.5t72 61t94.5 33v72h74v-69q60 -4 108.5 -32t79.5 -70l-69 -51q-22 33 -59.5 53t-83.5 20q-41 0 -76 -15t-60 -41
t-39 -61.5t-14 -75.5t14 -75.5t39 -62t60 -41.5t77 -15z" />
    <glyph glyph-name="yen.op.weight" 
d="M60 236v72h161l-176 243h106l150 -217l150 216h105l-175 -242h159v-72h-194v-236h-89v236h-197z" />
    <glyph glyph-name="dollar.ot.weight" 
d="M60 102l56 58q41 -42 94.5 -64.5t109.5 -22.5q55 0 85.5 22t30.5 58q0 41 -37.5 57t-93.5 26q-35 7 -72.5 16t-67.5 25t-49.5 43t-19.5 70q0 60 44.5 106t129.5 52v63h74v-66q56 -10 104 -35.5t76 -56.5l-55 -57q-31 35 -78 58t-97 23q-58 0 -86.5 -24.5t-28.5 -56.5
q0 -20 11.5 -33t31 -21.5t45 -14t53.5 -10.5q37 -7 73 -16.5t64 -27t45.5 -45t17.5 -70.5q-1 -66 -48 -109t-128 -48v-62h-74v65q-60 7 -115.5 32.5t-94.5 65.5z" />
    <glyph glyph-name="Euro.ot.weight" 
d="M18 236v72h70q9 116 80 188.5t187 72.5q69 0 123 -28.5t89 -74.5l-70 -51q-22 33 -59 53t-83 20q-73 0 -121 -47.5t-56 -132.5h306v-72h-306q10 -83 58 -129t120 -46q46 0 82.5 20.5t58.5 53.5l70 -52q-35 -46 -89 -74.5t-123 -28.5q-114 0 -185 70.5t-81 185.5h-71z" />
    <glyph glyph-name="cent.ot.weight" 
d="M337 81q46 0 83 20t59 53l69 -51q-31 -43 -79.5 -70.5t-108.5 -31.5v-71h-74v74q-52 8 -94.5 33t-72 61t-45.5 81.5t-16 95.5q0 49 16 94.5t45.5 81.5t72 61t94.5 33v72h74v-69q60 -4 108.5 -32t79.5 -70l-69 -51q-22 33 -59.5 53t-83.5 20q-41 0 -76 -15t-60 -41
t-39 -61.5t-14 -75.5t14 -75.5t39 -62t60 -41.5t77 -15z" />
    <glyph glyph-name="yen.ot.weight" 
d="M59 236v72h161l-176 243h106l150 -217l150 216h105l-175 -242h159v-72h-194v-236h-89v236h-197z" />
    <glyph glyph-name="a.superior" horiz-adv-x="359" 
d="M143 393q-45 0 -73.5 24.5t-28.5 66.5q0 36 27 61t76 32l96 16v16q0 28 -18.5 44.5t-48.5 16.5q-24 0 -43 -10.5t-32 -29.5l-48 36q21 28 53 44.5t72 16.5q62 0 95.5 -33.5t33.5 -84.5v-204h-64v35q-16 -22 -42 -34.5t-55 -12.5zM103 485q0 -18 13.5 -30t38.5 -12
q28 0 49.5 14t35.5 37v54l-80 -13q-31 -5 -44 -18t-13 -32z" />
    <glyph glyph-name="b.superior" horiz-adv-x="424" 
d="M387 560q0 -34 -11 -64t-31.5 -53t-49.5 -36.5t-66 -13.5q-32 0 -58 11t-46 31v-30h-63v461h63v-182q20 20 46 31.5t58 11.5q37 0 66 -13.5t49.5 -36.5t31.5 -53t11 -64zM126 506q16 -25 40.5 -39t54.5 -14q45 0 72.5 30.5t27.5 76.5q0 45 -27.5 76t-72.5 31
q-30 0 -54.5 -14t-40.5 -40l-1 1v-109z" />
    <glyph glyph-name="c.superior" horiz-adv-x="372" 
d="M206 453q26 0 46.5 11.5t33.5 30.5l51 -40q-22 -28 -55 -45t-76 -17q-39 0 -70.5 13.5t-53 36.5t-33.5 53t-12 64t12 64t33.5 53t53 36.5t70.5 13.5q42 0 75.5 -17.5t55.5 -45.5l-51 -39q-13 19 -33 30.5t-47 11.5q-45 0 -73.5 -31t-28.5 -76q0 -46 28.5 -76.5
t73.5 -30.5z" />
    <glyph glyph-name="d.superior" horiz-adv-x="424" 
d="M37 560q0 34 11 64t31.5 53t50 36.5t66.5 13.5q32 0 58 -11t45 -31v181h64v-461h-64v30q-19 -20 -45 -31t-58 -11q-37 0 -66.5 13.5t-50 36.5t-31.5 53t-11 64zM104 560q0 -46 27.5 -76.5t71.5 -30.5q31 0 55.5 13.5t40.5 38.5v109q-17 26 -41.5 39.5t-54.5 13.5
q-44 0 -71.5 -31t-27.5 -76z" />
    <glyph glyph-name="e.superior" horiz-adv-x="381" 
d="M341 455q-22 -28 -56.5 -45t-77.5 -17q-40 0 -71.5 13.5t-53.5 36.5t-33.5 53t-11.5 64q0 69 41.5 118t113.5 49q65 0 104 -39t39 -98q0 -10 -1.5 -20.5t-3.5 -17.5h-228q2 -46 31 -74.5t76 -28.5q28 0 50.5 11.5t35.5 30.5zM194 674q-34 0 -57 -19t-31 -56h165
q-1 30 -21.5 52.5t-55.5 22.5z" />
    <glyph glyph-name="egrave.superior" horiz-adv-x="381" 
d="M163 764l-73 102h71l63 -102h-61zM341 455q-22 -28 -56.5 -45t-77.5 -17q-40 0 -71.5 13.5t-53.5 36.5t-33.5 53t-11.5 64q0 69 42 118t115 49q63 0 102 -39t39 -98q0 -10 -1.5 -20.5t-3.5 -17.5h-226q1 -46 30 -74t75 -28q28 0 50.5 11.5t35.5 30.5zM195 673
q-33 0 -55.5 -18t-30.5 -54h162q-1 28 -21 50t-55 22z" />
    <glyph glyph-name="f.superior" horiz-adv-x="263" 
d="M22 715h58v35q0 49 31 82.5t84 33.5q25 0 46.5 -8.5t35.5 -21.5l-40 -46q-7 7 -17 12.5t-24 5.5q-23 0 -37.5 -15.5t-14.5 -40.5v-37h103v-58h-103v-252h-64v252h-58v58z" />
    <glyph glyph-name="g.superior" horiz-adv-x="370" 
d="M35 347q0 25 12.5 43.5t36.5 34.5q-10 8 -17 20.5t-7 26.5q0 18 9 32.5t27 26.5q-21 15 -32.5 38t-11.5 49q0 45 32.5 77t89.5 32q17 0 32 -3t28 -9h115v-55h-60q4 -10 6 -20.5t2 -21.5q0 -45 -33 -77.5t-90 -32.5q-10 0 -19.5 1.5t-17.5 2.5q-7 -5 -11 -11t-4 -13
q0 -9 6 -15t19 -6h81q60 0 90 -28t30 -68q0 -52 -44.5 -86t-117.5 -34q-69 0 -110 25t-41 71zM175 558q29 0 46 17.5t17 42.5t-17 42t-46 17q-30 0 -47 -17.5t-17 -41.5q0 -25 17 -42.5t47 -17.5zM98 358q0 -25 24 -39.5t66 -14.5q44 0 69 16t25 43q0 20 -13.5 33.5
t-49.5 13.5h-88q-16 -10 -24.5 -22.5t-8.5 -29.5z" />
    <glyph glyph-name="h.superior" horiz-adv-x="399" 
d="M62 405v461h63v-182q18 19 42 31t56 12q51 0 86 -35t35 -101v-186h-64v184q0 37 -19.5 57.5t-51.5 20.5t-52 -17t-32 -36v-209h-63z" />
    <glyph glyph-name="j.superior" horiz-adv-x="187" 
d="M93 780q-18 0 -30.5 12.5t-12.5 30.5q0 17 12.5 30t30.5 13q17 0 30 -13t13 -30q0 -18 -13 -30.5t-30 -12.5zM125 368q0 -58 -28 -87.5t-82 -29.5q-18 0 -31.5 2.5t-24.5 7.5v56q8 -3 19 -5t27 -2q26 0 41.5 12.5t15.5 45.5v347h63v-347z" />
    <glyph glyph-name="k.superior" horiz-adv-x="350" 
d="M56 405v430h65v-254l131 134h80l-128 -130l130 -180h-79l-97 134l-37 -38v-96h-65z" />
    <glyph glyph-name="l.superior" horiz-adv-x="187" 
d="M62 405v461h63v-461h-63z" />
    <glyph glyph-name="m.superior" horiz-adv-x="591" 
d="M62 405v310h63v-30q16 18 38.5 30t53.5 12q33 0 59 -15t41 -44q18 24 43 41.5t63 17.5q48 0 81 -33t33 -97v-192h-64v190q0 34 -17.5 53t-47.5 19q-28 0 -46.5 -14.5t-30.5 -35.5q1 -5 1 -10v-10v-192h-65v190q0 34 -17.5 53t-47.5 19q-29 0 -47.5 -17t-29.5 -36v-209
h-63z" />
    <glyph glyph-name="o.superior" horiz-adv-x="411" 
d="M206 727q37 0 68 -13.5t53.5 -36t34.5 -53t12 -64.5t-12 -64.5t-34.5 -53t-53.5 -36t-68 -13.5q-38 0 -69 13.5t-53 36t-34.5 53t-12.5 64.5t12.5 64.5t34.5 53t53 36t69 13.5zM206 453q43 0 72 31.5t29 75.5q0 45 -29 76t-72 31q-45 0 -73.5 -31t-28.5 -76t28.5 -76
t73.5 -31z" />
    <glyph glyph-name="p.superior" horiz-adv-x="424" 
d="M62 254v461h63v-31q20 20 46 31.5t58 11.5q37 0 66 -13.5t49.5 -36.5t31.5 -53t11 -64t-11 -64t-31.5 -53t-49.5 -36.5t-66 -13.5q-32 0 -58 11t-46 31v-181h-63zM126 506q16 -25 40.5 -39t54.5 -14q45 0 72.5 30.5t27.5 76.5q0 45 -27.5 76t-72.5 31q-30 0 -54.5 -14
t-40.5 -40l-1 1v-109z" />
    <glyph glyph-name="q.superior" horiz-adv-x="424" 
d="M363 254h-64v181q-20 -20 -46 -31t-58 -11q-36 0 -65.5 13.5t-50 36.5t-31.5 53t-11 64t11 64t31.5 53t50 36.5t65.5 13.5q32 0 58 -11.5t46 -31.5v31h64v-461zM103 560q0 -46 28 -76.5t72 -30.5q30 0 54.5 14t41.5 39v107q-17 26 -41.5 40t-54.5 14q-44 0 -72 -31
t-28 -76z" />
    <glyph glyph-name="r.superior" horiz-adv-x="261" 
d="M62 405v310h63v-36q16 18 37.5 30t49.5 12q7 0 14 -1.5t12 -2.5v-66q-7 1 -14.5 2.5t-17.5 1.5q-30 0 -49.5 -14t-31.5 -33v-203h-63z" />
    <glyph glyph-name="s.superior" horiz-adv-x="296" 
d="M31 448l43 39q16 -19 34.5 -30.5t41.5 -11.5q22 0 34.5 12t12.5 29q0 22 -23.5 33.5t-51.5 23.5t-51.5 32.5t-23.5 60.5q0 39 29.5 65t75.5 26q34 0 63 -14.5t46 -36.5l-44 -39q-12 17 -28.5 27t-36.5 10q-21 0 -32 -10t-11 -26q0 -22 23.5 -33t51 -23.5t51 -32
t23.5 -59.5q-1 -46 -32.5 -71.5t-74.5 -25.5q-39 0 -68.5 15t-51.5 40z" />
    <glyph glyph-name="t.superior" horiz-adv-x="284" 
d="M80 512v145h-58v58h58v77h64v-77h103v-58h-103v-145q0 -31 15.5 -43t40.5 -12q16 0 27.5 2t19.5 5v-56q-11 -4 -25 -6.5t-31 -2.5q-54 0 -82.5 28.5t-28.5 84.5z" />
    <glyph glyph-name="u.superior" horiz-adv-x="390" 
d="M272 538v177h64v-174q0 -69 -38 -108.5t-103 -39.5t-102.5 39.5t-37.5 108.5v174h64v-177q0 -40 20 -62.5t57 -22.5q35 0 55.5 22.5t20.5 62.5z" />
    <glyph glyph-name="v.superior" horiz-adv-x="350" 
d="M16 715h68l91 -241l91 241h68l-117 -310h-84z" />
    <glyph glyph-name="w.superior" horiz-adv-x="512" 
d="M23 715h64l60 -244l65 244h87l66 -243l60 243h63l-76 -310h-89l-67 246l-68 -246h-89z" />
    <glyph glyph-name="x.superior" horiz-adv-x="354" 
d="M95 405h-72l114 160l-106 150h70l76 -109l76 109h70l-106 -150l113 -160h-70l-83 118z" />
    <glyph glyph-name="y.superior" horiz-adv-x="360" 
d="M184 332q-16 -38 -43 -59.5t-69 -21.5q-16 0 -29 3t-23 7v57q8 -4 18.5 -6t20.5 -2q23 0 39.5 10t27.5 36l21 50l-131 309h71l94 -226l95 226h68z" />
    <glyph glyph-name="z.superior" horiz-adv-x="333" 
d="M39 405v58l172 194h-167v58h246v-58l-172 -194h176v-58h-255z" />
    <glyph glyph-name="zero.numr" horiz-adv-x="389" 
d="M194 712q41 0 72 -17.5t51 -48t30 -72t10 -89.5t-10 -89.5t-30 -72t-51 -48t-72 -17.5t-72 17.5t-51 48t-30 72t-10 89.5t10 89.5t30 72t51 48t72 17.5zM194 650q-46 0 -69.5 -46.5t-23.5 -118.5t23.5 -118.5t69.5 -46.5t69.5 46.5t23.5 118.5t-23.5 118.5t-69.5 46.5z
" />
    <glyph glyph-name="one.numr" horiz-adv-x="389" 
d="M59 270v61h118v300l-106 -57l-34 49l142 77h66v-369h106v-61h-292z" />
    <glyph glyph-name="two.numr" horiz-adv-x="389" 
d="M49 270v61l147 148q28 30 46 52.5t18 56.5q0 30 -19.5 47t-49.5 17q-32 0 -54 -17t-40 -47l-55 34q26 42 63 66t90 24q57 0 95.5 -32.5t38.5 -86.5q0 -46 -25.5 -81t-59.5 -70l-113 -111h210v-61h-292z" />
    <glyph glyph-name="three.numr" horiz-adv-x="389" 
d="M346 391q0 -61 -43.5 -97t-110.5 -36q-57 0 -97 22t-65 65l59 37q19 -34 44 -49t59 -15q36 0 60 20t24 55q0 34 -22.5 54.5t-61.5 20.5h-72v60h64q33 0 53 17.5t20 45.5q0 29 -19.5 45t-48.5 16q-28 0 -48.5 -14t-34.5 -39l-56 33q23 38 58.5 59t84.5 21q57 0 95 -31.5
t38 -82.5q0 -31 -13.5 -55.5t-39.5 -40.5q35 -16 54 -45.5t19 -65.5z" />
    <glyph glyph-name="four.numr" horiz-adv-x="389" 
d="M241 270v120h-202v57l189 253h80v-253h47v-57h-47v-120h-67zM109 447h132v176z" />
    <glyph glyph-name="five.numr" horiz-adv-x="389" 
d="M71 469l13 231h246v-61h-181l-7 -110h50q72 0 114 -37.5t42 -98.5q0 -63 -43.5 -99t-109.5 -36q-57 0 -97.5 22t-65.5 65l60 37q18 -34 43.5 -49t59.5 -15q36 0 60 20t24 55q0 34 -23.5 54.5t-66.5 20.5h-81z" />
    <glyph glyph-name="six.numr" horiz-adv-x="389" 
d="M218 712q53 0 87.5 -20t56.5 -51l-52 -42q-18 25 -39.5 38.5t-51.5 13.5q-53 0 -80.5 -41.5t-29.5 -117.5q22 24 50 37t65 13q61 0 98 -40.5t37 -97.5q0 -59 -41 -102.5t-111 -43.5q-81 0 -124.5 56.5t-43.5 165.5q0 104 44.5 168t134.5 64zM210 482q-29 0 -54.5 -13
t-43.5 -38q7 -60 31 -86t63 -26q40 0 61.5 24t21.5 59q0 34 -22 57t-57 23z" />
    <glyph glyph-name="seven.numr" horiz-adv-x="388" 
d="M140 270h-82l219 369h-227v61h303v-61z" />
    <glyph glyph-name="eight.numr" horiz-adv-x="389" 
d="M194 712q68 0 104 -34t36 -80q0 -29 -15.5 -54t-45.5 -40q39 -15 60 -45.5t21 -68.5q0 -56 -42 -94t-118 -38q-75 0 -117.5 38t-42.5 94q0 38 21 68.5t60 45.5q-30 15 -45.5 40t-15.5 54q0 46 36.5 80t103.5 34zM195 530q31 0 50.5 17t19.5 45t-19.5 45t-50.5 17
q-33 0 -52 -17t-19 -45t19 -45t52 -17zM195 317q40 0 65 21t25 55t-25 56.5t-65 22.5q-41 0 -66 -22.5t-25 -56.5t25 -55t66 -21z" />
    <glyph glyph-name="nine.numr" horiz-adv-x="389" 
d="M176 258q-52 0 -86.5 20t-56.5 51l51 42q19 -25 40 -38.5t51 -13.5q54 0 81.5 42t29.5 118q-22 -25 -50 -38t-65 -13q-62 0 -98.5 40.5t-36.5 97.5q0 59 40.5 102.5t111.5 43.5q81 0 124 -56.5t43 -165.5q0 -104 -44.5 -168t-134.5 -64zM105 568q0 -34 22 -57t57 -23
q31 0 57.5 13.5t41.5 38.5q-7 60 -32 85.5t-63 25.5q-39 0 -61 -24t-22 -59z" />
    <glyph glyph-name="zero.dnom" horiz-adv-x="389" 
d="M194 442q41 0 72 -17.5t51 -48t30 -72t10 -89.5t-10 -89.5t-30 -72t-51 -48t-72 -17.5t-72 17.5t-51 48t-30 72t-10 89.5t10 89.5t30 72t51 48t72 17.5zM194 380q-46 0 -69.5 -46.5t-23.5 -118.5t23.5 -118.5t69.5 -46.5t69.5 46.5t23.5 118.5t-23.5 118.5t-69.5 46.5z
" />
    <glyph glyph-name="one.dnom" horiz-adv-x="389" 
d="M59 0v61h118v300l-106 -57l-34 49l142 77h66v-369h106v-61h-292z" />
    <glyph glyph-name="two.dnom" horiz-adv-x="389" 
d="M49 0v61l147 148q28 30 46 52.5t18 56.5q0 30 -19.5 47t-49.5 17q-32 0 -54 -17t-40 -47l-55 34q26 42 63 66t90 24q57 0 95.5 -32.5t38.5 -86.5q0 -46 -25.5 -81t-59.5 -70l-113 -111h210v-61h-292z" />
    <glyph glyph-name="three.dnom" horiz-adv-x="389" 
d="M346 121q0 -61 -43.5 -97t-110.5 -36q-57 0 -97 22t-65 65l59 37q19 -34 44 -49t59 -15q36 0 60 20t24 55q0 34 -22.5 54.5t-61.5 20.5h-72v60h64q33 0 53 17.5t20 45.5q0 29 -19.5 45t-48.5 16q-28 0 -48.5 -14t-34.5 -39l-56 33q23 38 58.5 59t84.5 21q57 0 95 -31.5
t38 -82.5q0 -31 -13.5 -55.5t-39.5 -40.5q35 -16 54 -45.5t19 -65.5z" />
    <glyph glyph-name="four.dnom" horiz-adv-x="389" 
d="M39 120v57l189 253h80v-253h47v-57h-47v-120h-67v120h-202zM109 177h132v176z" />
    <glyph glyph-name="five.dnom" horiz-adv-x="389" 
d="M71 199l13 231h246v-61h-181l-7 -110h50q72 0 114 -37.5t42 -98.5q0 -63 -43.5 -99t-109.5 -36q-57 0 -97.5 22t-65.5 65l60 37q18 -34 43.5 -49t59.5 -15q36 0 60 20t24 55q0 34 -23.5 54.5t-66.5 20.5h-81z" />
    <glyph glyph-name="six.dnom" horiz-adv-x="389" 
d="M218 442q53 0 87.5 -20t56.5 -51l-52 -42q-18 25 -39.5 38.5t-51.5 13.5q-53 0 -80.5 -41.5t-29.5 -117.5q22 24 50 37t65 13q61 0 98 -40.5t37 -97.5q0 -59 -41 -102.5t-111 -43.5q-81 0 -124.5 56.5t-43.5 165.5q0 104 44.5 168t134.5 64zM210 212q-29 0 -54.5 -13
t-43.5 -38q7 -60 31 -86t63 -26q40 0 61.5 24t21.5 59q0 34 -22 57t-57 23z" />
    <glyph glyph-name="seven.dnom" horiz-adv-x="388" 
d="M140 0h-82l219 369h-227v61h303v-61z" />
    <glyph glyph-name="eight.dnom" horiz-adv-x="389" 
d="M194 442q68 0 104 -34t36 -80q0 -29 -15.5 -54t-45.5 -40q39 -15 60 -45.5t21 -68.5q0 -56 -42 -94t-118 -38q-75 0 -117.5 38t-42.5 94q0 38 21 68.5t60 45.5q-30 15 -45.5 40t-15.5 54q0 46 36.5 80t103.5 34zM195 260q31 0 50.5 17t19.5 45t-19.5 45t-50.5 17
q-33 0 -52 -17t-19 -45t19 -45t52 -17zM195 47q40 0 65 21t25 55t-25 56.5t-65 22.5q-41 0 -66 -22.5t-25 -56.5t25 -55t66 -21z" />
    <glyph glyph-name="nine.dnom" horiz-adv-x="389" 
d="M176 -12q-52 0 -86.5 20t-56.5 51l51 42q19 -25 40 -38.5t51 -13.5q54 0 81.5 42t29.5 118q-22 -25 -50 -38t-65 -13q-62 0 -98.5 40.5t-36.5 97.5q0 59 40.5 102.5t111.5 43.5q81 0 124 -56.5t43 -165.5q0 -104 -44.5 -168t-134.5 -64zM105 298q0 -34 22 -57t57 -23
q31 0 57.5 13.5t41.5 38.5q-7 60 -32 85.5t-63 25.5q-39 0 -61 -24t-22 -59z" />
    </font>
</defs>
</svg>
